<svg width="64" height="64" viewBox="0 0 64 64" fill="none" xmlns="http://www.w3.org/2000/svg"><rect width="64" height="64" rx="11" fill="#fff"/><path d="M31.04 46.413v-6.965a1 1 0 0 1 .821-.984l6.36-1.156a1 1 0 0 1 1.135 1.278l-2.499 8.121a1 1 0 0 1-.956.706H32.04a1 1 0 0 1-1-1Z" fill="#631EC6"/><path fill-rule="evenodd" clip-rule="evenodd" d="m27.643 16.842 5.22 7.617h13.279c2.304 0 4.36 1.154 5.697 2.954h-2.2a1 1 0 0 0-1 1v1.2a1 1 0 0 0 1 1h3.626c.115.555.175 1.132.175 1.724 0 4.35-3.267 7.876-7.298 7.876H31.545c-2.67 0-5.004-1.546-6.276-3.854-.16-.169-.3-.413-.414-.74-.1-.286-.193-.602-.282-.945a8.327 8.327 0 0 1-.188-.801c-1.093-5.116-1.304-12.915-1.345-16.355-.008-.725.535-1.305 1.207-1.305h2.358a1.2 1.2 0 0 1 1.038.629Z" fill="#631EC6"/><path d="M18.24 23.413a.8.8 0 0 1 .8-.8h6.4a.8.8 0 1 1 0 1.6h-6.4a.8.8 0 0 1-.8-.8Zm-8 4.8a.8.8 0 0 1 .8-.8h14.4a.8.8 0 1 1 0 1.6h-14.4a.8.8 0 0 1-.8-.8Zm6.4 3.2a.8.8 0 0 1 .8-.8h8a.8.8 0 1 1 0 1.6h-8a.8.8 0 0 1-.8-.8Zm0 4.8a.8.8 0 0 1 .8-.8h8a.8.8 0 1 1 0 1.6h-8a.8.8 0 0 1-.8-.8Zm-6.4 0a.8.8 0 0 1 .8-.8h3.2a.8.8 0 1 1 0 1.6h-3.2a.8.8 0 0 1-.8-.8Z" fill="#631EC6"/><path d="M18.24 29.813a.8.8 0 0 1 .8-.8h9.6a.8.8 0 1 1 0 1.6h-9.6a.8.8 0 0 1-.8-.8Zm3.2-7.6a1.2 1.2 0 0 1 1.2-1.2h5.6a1.2 1.2 0 1 1 0 2.4h-5.6a1.2 1.2 0 0 1-1.2-1.2Zm-8 1.2a.8.8 0 0 1 .8-.8h1.6a.8.8 0 1 1 0 1.6h-1.6a.8.8 0 0 1-.8-.8Z" fill="#631EC6"/></svg>