<svg width="28" height="28" viewBox="0 0 28 28" fill="none" xmlns="http://www.w3.org/2000/svg">
<path d="M4.56388 1.80764L14.9917 4.41459C15.071 4.43442 15.1525 4.44444 15.2342 4.44444H16.9713C17.2052 4.44444 17.4318 4.36243 17.6115 4.21267L22.3885 0.231779C22.5682 0.0820162 22.7948 0 23.0287 0H26.9132C27.4982 0 27.9583 0.500026 27.9097 1.08305L27.5839 4.99266C27.5655 5.2135 27.4743 5.42198 27.3246 5.58534L23.0447 10.2542C22.8098 10.5105 22.7249 10.8704 22.8204 11.2047L26.1372 22.8137C26.1926 23.0074 26.1881 23.2134 26.1244 23.4046L25.8654 24.1817C25.8081 24.3536 25.7051 24.5068 25.5675 24.6247L23.5657 26.3405C23.0956 26.7434 22.376 26.6267 22.0574 26.0957L16.5887 16.9812C16.2772 16.462 15.5793 16.3365 15.1065 16.7148L12.0072 19.1943C11.7278 19.4178 11.5891 19.7735 11.6435 20.1272L12.3599 24.7838C12.4125 25.1255 12.2848 25.4702 12.0223 25.6952L10.3589 27.121C9.84878 27.5582 9.06123 27.378 8.79193 26.7625L6.35488 21.1921C6.26874 20.9952 6.12146 20.8313 5.93486 20.7247L1.25039 18.0478C0.644864 17.7018 0.570575 16.8579 1.10635 16.4114L2.34846 15.3763C2.5522 15.2065 2.81505 15.1246 3.07918 15.1486L7.02005 15.5069C7.35442 15.5373 7.68172 15.3978 7.89146 15.1357L10.3963 12.0046C10.7746 11.5318 10.6492 10.8339 10.1299 10.5224L1.00119 5.04516C0.47507 4.72949 0.354677 4.01883 0.747468 3.54748L1.92238 2.13759C2.11237 1.9096 2.39382 1.77778 2.6906 1.77778H4.32134C4.4031 1.77778 4.48455 1.78781 4.56388 1.80764Z" fill="current"/>
</svg>
