<svg width="36" height="36" viewBox="0 0 36 36" fill="none" xmlns="http://www.w3.org/2000/svg">
<rect x="0.5" y="0.5" width="35" height="35" rx="17.5" fill="current" stroke="#F4EBFF"/>
<path d="M17.0489 9.92705C17.3483 9.00574 18.6517 9.00574 18.9511 9.92705L20.2451 13.9098C20.379 14.3219 20.763 14.6008 21.1962 14.6008H25.3839C26.3527 14.6008 26.7554 15.8404 25.9717 16.4098L22.5838 18.8713C22.2333 19.126 22.0866 19.5773 22.2205 19.9894L23.5146 23.9721C23.8139 24.8934 22.7595 25.6596 21.9757 25.0902L18.5878 22.6287C18.2373 22.374 17.7627 22.374 17.4122 22.6287L14.0243 25.0902C13.2405 25.6596 12.1861 24.8934 12.4854 23.9721L13.7795 19.9894C13.9134 19.5773 13.7667 19.126 13.4162 18.8713L10.0283 16.4098C9.24456 15.8404 9.64734 14.6008 10.6161 14.6008H14.8038C15.237 14.6008 15.621 14.3219 15.7549 13.9098L17.0489 9.92705Z" fill="#FFAE35"/>
</svg>
