<svg width="96" height="89" viewBox="0 0 96 89" fill="none" xmlns="http://www.w3.org/2000/svg">
<g id="illust_&#236;&#156;&#132;&#237;&#151;&#152;&#235;&#172;&#188;&#236;&#167;&#136;">
<path id="Union" fill-rule="evenodd" clip-rule="evenodd" d="M43.697 4C44.8016 4 45.697 4.89543 45.697 6V18.8036C45.697 19.1536 45.7888 19.4974 45.9634 19.8008L62.0483 47.7639C65.8831 54.4305 61.0709 62.75 53.38 62.75H49.9997V63C49.9997 64.1046 49.1043 65 47.9997 65H14.9997C13.8952 65 12.9997 64.1046 12.9997 63V62.75H10.0149C2.32396 62.75 -2.48816 54.4305 1.34663 47.7639L17.4307 19.8023C17.6052 19.4989 17.697 19.1551 17.697 18.8051V6C17.697 4.89543 18.5924 4 19.697 4H43.697Z" fill="#E2E2E2"/>
<path id="Union_2" d="M44.2204 22.6126L57.671 46.1191C61.4556 52.7333 56.7064 60.9873 49.116 60.9873H47.7863V61.0157C47.7863 62.1116 46.9025 63 45.8124 63H16.8355C15.7454 63 14.8617 62.1116 14.8617 61.0157V60.9873H13.884C6.29359 60.9873 1.54436 52.7333 5.32903 46.1191L18.7788 22.6139C20.2886 19.9754 23.7189 16.3256 26.8639 18.8503C30.3182 21.6232 30.8116 24.3071 34.7594 24.3071C37.4319 24.3071 43.2066 20.8408 44.2204 22.6126Z" fill="#7EC266"/>
<g id="Group 1000004122">
<path id="Union_3" fill-rule="evenodd" clip-rule="evenodd" d="M37.9998 50.5284C41.5866 48.6264 43.9998 45.0716 43.9998 41C43.9998 34.9249 38.6272 30 31.9998 30C25.3723 30 19.9998 34.9249 19.9998 41C19.9998 45.0716 22.4129 48.6264 25.9998 50.5284V52C25.9998 53.1046 26.8952 54 27.9998 54H35.9998C37.1043 54 37.9998 53.1046 37.9998 52V50.5284Z" fill="#F5F5F5"/>
<path id="Vector 557" d="M29.2926 41.1104L27.8894 39.7071C27.4988 39.3166 26.8576 39.3148 26.5573 39.7783C26.0268 40.5967 25.6627 41.7067 26.4779 42.5219C27.2931 43.3371 28.4031 42.973 29.2215 42.4425C29.6849 42.1421 29.6832 41.5009 29.2926 41.1104Z" stroke="black"/>
<path id="Vector 558" d="M34.7069 41.1104L36.1102 39.7071C36.5007 39.3166 37.1419 39.3148 37.4423 39.7783C37.9727 40.5967 38.3368 41.7067 37.5216 42.5219C36.7064 43.3371 35.5964 42.973 34.778 42.4425C34.3146 42.1421 34.3163 41.5009 34.7069 41.1104Z" stroke="black"/>
<path id="Rectangle 6041" d="M29.9998 50.5C29.9998 50.2239 30.2236 50 30.4998 50C30.7759 50 30.9998 50.2239 30.9998 50.5V54H29.9998V50.5Z" fill="black"/>
<path id="Rectangle 6042" d="M32.9998 50.5C32.9998 50.2239 33.2236 50 33.4998 50C33.7759 50 33.9998 50.2239 33.9998 50.5V54H32.9998V50.5Z" fill="black"/>
</g>
<circle id="Ellipse 730" cx="36" cy="18" r="3" fill="#7EC266"/>
<circle id="Ellipse 731" cx="26" cy="5" r="5" fill="#7EC266"/>
<g id="Group 1000004124">
<path id="Polygon 12" d="M59.1699 31.5C61.0944 28.1667 65.9056 28.1667 67.8301 31.5L87.3157 65.25C89.2402 68.5833 86.8346 72.75 82.9856 72.75H44.0144C40.1654 72.75 37.7598 68.5833 39.6843 65.25L59.1699 31.5Z" fill="#FFD749"/>
<g id="Group 1000004123">
<rect id="Rectangle 6052" x="61" y="40" width="4" height="18" rx="2" fill="#FF3232"/>
<circle id="Ellipse 732" cx="63" cy="64" r="2" fill="#FF3232"/>
</g>
</g>
</g>
</svg>
