<svg width="16" height="22" viewBox="0 0 16 22" fill="none" xmlns="http://www.w3.org/2000/svg">
<g id="Group 1000004191">
<g id="Group 1000004175">
<path id="Subtract" fill-rule="evenodd" clip-rule="evenodd" d="M16 0.458286C16 0.205182 15.801 0 15.5556 0H0.444444C0.198985 0 0 0.205182 0 0.458286V20.4842C0 20.8842 0.467407 21.0863 0.744034 20.8059Lnan nanL0.744034 20.8059C0.914224 20.6334 1.18708 20.6334 1.35727 20.8059L2.40577 21.8686C2.5787 22.0438 2.85594 22.0438 3.02886 21.8686L4.07244 20.8109C4.24537 20.6356 4.52261 20.6356 4.69553 20.8109L5.51688 21.6433C5.68981 21.8186 5.96705 21.8186 6.13998 21.6433L6.96133 20.8109C7.13425 20.6356 7.4115 20.6356 7.58442 20.8109L8.40577 21.6433C8.5787 21.8186 8.85594 21.8186 9.02886 21.6433L9.85022 20.8109C10.0231 20.6356 10.3004 20.6356 10.4733 20.8109L11.2947 21.6433C11.4676 21.8186 11.7448 21.8186 11.9178 21.6433L12.7391 20.8109C12.912 20.6356 13.1893 20.6356 13.3622 20.8109L13.7391 21.1929C13.912 21.3682 14.1893 21.3682 14.3622 21.1929L14.7736 20.7759C14.9274 20.6201 15.1739 20.6201 15.3277 20.7759Lnan nanL15.3277 20.7759C15.5777 21.0293 16 20.8467 16 20.4853V0.458286Z" fill="#631EC6"/>
<g id="Group 1000004174">
<path id="Vector (Stroke)" fill-rule="evenodd" clip-rule="evenodd" d="M5.5 11C5.77614 11 6 11.1452 6 11.3243V16.6757C6 16.8548 5.77614 17 5.5 17C5.22386 17 5 16.8548 5 16.6757V11.3243C5 11.1452 5.22386 11 5.5 11Z" fill="#F0EBF8"/>
<path id="Vector (Stroke)_2" fill-rule="evenodd" clip-rule="evenodd" d="M3.48261 11.5096C3.79162 11.1833 4.21072 11 4.64773 11H7.20455C7.45558 11 7.65909 11.2149 7.65909 11.48C7.65909 11.7451 7.45558 11.96 7.20455 11.96H4.64773C4.45183 11.96 4.26395 12.0422 4.12543 12.1885C3.98691 12.3347 3.90909 12.5331 3.90909 12.74C3.90909 12.9469 3.98691 13.1453 4.12543 13.2915C4.26395 13.4378 4.45183 13.52 4.64773 13.52H6.35227C6.78928 13.52 7.20838 13.7033 7.51739 14.0296C7.8264 14.3559 8 14.7985 8 15.26C8 15.7215 7.8264 16.1641 7.51739 16.4904C7.20838 16.8167 6.78928 17 6.35227 17H3.45455C3.20351 17 3 16.7851 3 16.52C3 16.2549 3.20351 16.04 3.45455 16.04H6.35227C6.54817 16.04 6.73605 15.9578 6.87457 15.8115C7.01309 15.6653 7.09091 15.4669 7.09091 15.26C7.09091 15.0531 7.01309 14.8547 6.87457 14.7085C6.73605 14.5622 6.54817 14.48 6.35227 14.48H4.64773C4.21072 14.48 3.79162 14.2967 3.48261 13.9704C3.1736 13.6441 3 13.2015 3 12.74C3 12.2785 3.1736 11.8359 3.48261 11.5096Z" fill="#F0EBF8"/>
</g>
<path id="Rectangle 6127" d="M3 3.5C3 3.22386 3.19699 3 3.44 3H13.56C13.803 3 14 3.22386 14 3.5C14 3.77614 13.803 4 13.56 4H3.44C3.19699 4 3 3.77614 3 3.5Z" fill="#F0EBF8"/>
<path id="Rectangle 6128" d="M3 5.5C3 5.22386 3.19699 5 3.44 5H13.56C13.803 5 14 5.22386 14 5.5C14 5.77614 13.803 6 13.56 6H3.44C3.19699 6 3 5.77614 3 5.5Z" fill="#F0EBF8"/>
<path id="Rectangle 6129" d="M7 7.5C7 7.22386 7.20893 7 7.46667 7H13.5333C13.7911 7 14 7.22386 14 7.5C14 7.77614 13.7911 8 13.5333 8H7.46667C7.20893 8 7 7.77614 7 7.5Z" fill="#F0EBF8"/>
</g>
</g>
</svg>
