<svg width="26" height="36" viewBox="0 0 26 36" fill="none" xmlns="http://www.w3.org/2000/svg">
<g id="icon_&#234;&#176;&#128;&#235;&#176;&#169;">
<path id="Union" fill-rule="evenodd" clip-rule="evenodd" d="M8.2931 4.77109C8.2931 2.13609 10.5008 0 13.2241 0C15.9475 0 18.1552 2.13609 18.1552 4.77108V5.98586C22.7705 7.91687 26 12.3617 26 17.5364V32.0964C26 34.2523 24.1937 36 21.9655 36H4.03448C1.8063 36 0 34.2523 0 32.0964V17.5364C0 12.1958 3.44002 7.63251 8.2931 5.80788V4.77109ZM16.1379 5.32696C15.133 5.08597 14.0819 4.95808 13 4.95808C12.0779 4.95808 11.1782 5.05098 10.3103 5.22762V5.19053C10.3103 3.63349 11.6149 2.37126 13.2241 2.37126C14.8334 2.37126 16.1379 3.63349 16.1379 5.19053V5.32696Z" fill="#9250F1"/>
<path id="Rectangle 6067" d="M3 20H22V23H3V20Z" fill="#F4EEFF"/>
<path id="Rectangle 6068" d="M19 21.3605C19 20.6091 19.6716 20 20.5 20C21.3284 20 22 20.6091 22 21.3605V27.6395C22 28.3909 21.3284 29 20.5 29C19.6716 29 19 28.3909 19 27.6395V21.3605Z" fill="#F4EEFF"/>
</g>
</svg>
