<svg width="64" height="64" viewBox="0 0 64 64" fill="none" xmlns="http://www.w3.org/2000/svg">
<g id="illust_&#236;&#180;&#157;">
<path id="Rectangle 6045" d="M1.15552 16.294C0.964861 15.684 1.30485 15.0349 1.9149 14.8442L4.67639 13.9812C5.28644 13.7905 5.93555 14.1305 6.1262 14.7406L6.81663 16.9498C7.00729 17.5598 6.6673 18.2089 6.05725 18.3996L3.29576 19.2626C2.68571 19.4533 2.0366 19.1133 1.84595 18.5032L1.15552 16.294Z" fill="#818388"/>
<path id="Rectangle 6046" d="M11.4775 60.9615C11.2869 60.3515 11.6269 59.7024 12.2369 59.5117L24.3875 55.7144C24.9975 55.5237 25.6466 55.8637 25.8373 56.4737L26.1825 57.5783C26.3732 58.1884 26.0332 58.8375 25.4231 59.0281L13.2726 62.8255C12.6625 63.0162 12.0134 62.6762 11.8228 62.0661L11.4775 60.9615Z" fill="#8E8F93"/>
<path id="Rectangle 6047" d="M2.01831 19.0558C1.82765 18.4457 2.16764 17.7966 2.77769 17.606L58.0075 0.345207C58.6176 0.15455 59.2667 0.494537 59.4573 1.10459L61.5286 7.73217L4.0896 25.6833L2.01831 19.0558Z" fill="#8E8F93"/>
<path id="Vector 15426" d="M35.0707 27.8228C34.0489 27.6571 33.1721 24.9808 32.8614 23.6633L32.24 22.645C30.9628 22.4379 28.184 22.2758 27.2866 23.2837C26.1647 24.5437 31.2218 28.1163 33.0341 29.0655C34.8464 30.0147 36.3479 28.0299 35.0707 27.8228Z" fill="#8E8F93"/>
<path id="Subtract" fill-rule="evenodd" clip-rule="evenodd" d="M4.08975 25.6831C3.67555 26.6209 2.91618 28.7174 3.19235 29.601C3.44611 30.413 4.40865 30.3483 5.15448 30.2982H5.15452C5.42328 30.2801 5.6639 30.2639 5.83306 30.2914C6.47167 30.3949 10.5622 31.8446 9.9237 36.591C9.28521 41.3373 8.43964 47.3609 7.6975 47.896C7.21426 49.2595 5.31592 57.7339 7.19725 59.874C9.07858 62.0142 9.63087 61.8415 13.7731 60.547L26.7521 56.4907C27.2757 56.2261 28.1846 55.2549 27.6323 53.4875C27.3519 52.5904 26.8069 52.1259 26.3531 51.7392C25.6894 51.1737 25.221 50.7745 26.0616 49.4316C27.1925 47.6248 27.0119 47.1957 26.6735 46.3917C26.5884 46.1895 26.4934 45.9637 26.4067 45.6863C25.9752 44.3056 26.0959 42.7522 27.2005 42.407C28.3051 42.0618 27.6147 39.8526 26.9933 38.8343C26.372 37.816 26.6135 34.7093 27.7181 34.3641C28.8227 34.0189 31.6533 34.3467 32.102 34.8127C32.4611 35.1855 39.2474 32.7817 42.5957 31.5332C43.2746 31.1189 44.5115 29.9038 44.0282 28.3574L42.2158 22.5583C41.8564 21.9009 41.6079 20.6226 42.6816 19.6846L62.1503 13.6001C62.7603 13.4095 63.1003 12.7604 62.9096 12.1503L61.5288 7.73194L7.40353 24.6475L7.41098 24.6713L4.08975 25.6831ZM28.9434 27.6156C28.6574 26.7005 29.1674 25.7269 30.0825 25.4409L37.8146 23.0244C38.7297 22.7384 39.7034 23.2484 39.9894 24.1635L41.025 27.4772C41.311 28.3923 40.801 29.366 39.8859 29.652L34.9153 31.2054C32.475 31.9681 29.8786 30.6081 29.116 28.1679L28.9434 27.6156ZM23.5409 33.9125L23.2315 50.3319C23.2034 51.8261 22.2223 53.1345 20.7959 53.5803L13.2217 55.9475C12.5419 56.1599 11.8013 56.031 11.2333 55.6013C10.5709 55.1002 10.2448 54.2693 10.4013 53.4536C10.9045 50.8301 11.6961 47.133 12.1382 46.5862C12.6443 45.9601 13.8014 40.0155 14.3731 36.8125C14.4136 36.5855 14.4306 36.356 14.4249 36.1255L14.3749 34.0924C14.3467 32.9463 14.879 31.8435 15.8885 31.2999C16.6682 30.8801 17.618 30.462 18.4375 30.3708C19.4257 30.2608 20.6417 30.5799 21.6432 30.9436C22.8657 31.3876 23.5654 32.612 23.5409 33.9125Z" fill="#818388"/>
<path id="Rectangle 6048" d="M45.5122 12.7378L61.5289 7.73218L62.9097 12.1506C63.1004 12.7606 62.7604 13.4097 62.1503 13.6004L47.2383 18.2608L45.5122 12.7378Z" fill="#D2D2D2"/>
</g>
</svg>
