<svg width="32" height="25" viewBox="0 0 32 25" fill="none" xmlns="http://www.w3.org/2000/svg">
<g id="illust_&#236;&#180;&#136;&#234;&#179;&#188;&#236;&#136;&#152;&#237;&#149;&#152;&#235;&#172;&#188;">
<rect id="Rectangle 6078" x="5.75" y="0.75" width="4.5" height="6.5" rx="2.25" stroke="#631EC6" stroke-width="1.5"/>
<rect id="Rectangle 6082" x="22.75" y="2.75" width="4.5" height="6.5" rx="2.25" stroke="#631EC6" stroke-width="1.5"/>
<circle id="Ellipse 740" cx="4" cy="23" r="2" fill="#631EC6"/>
<circle id="Ellipse 741" cx="12" cy="23" r="2" fill="#631EC6"/>
<circle id="Ellipse 742" cx="21" cy="23" r="2" fill="#631EC6"/>
<circle id="Ellipse 743" cx="29" cy="23" r="2" fill="#631EC6"/>
<path id="Rectangle 6079" d="M0 5.76807C0 5.14675 0.596954 4.64307 1.33333 4.64307H14.6667C15.403 4.64307 16 5.14675 16 5.76807V21.5181C16 22.1394 15.403 22.6431 14.6667 22.6431H1.33333C0.596954 22.6431 0 22.1394 0 21.5181V5.76807Z" fill="#9250F1"/>
<rect id="Rectangle 6080" x="18" y="12" width="14" height="10" rx="1" fill="#9250F1"/>
<path id="Rectangle 6081" d="M18 9C18 6.79086 19.7909 5 22 5H28C30.2091 5 32 6.79086 32 9V10C32 10.5523 31.5523 11 31 11H19C18.4477 11 18 10.5523 18 10V9Z" fill="#9250F1"/>
</g>
</svg>
