<svg width="18" height="39" viewBox="0 0 18 39" fill="none" xmlns="http://www.w3.org/2000/svg">
<g id="illust_&#235;&#172;&#188;">
<path id="Rectangle 6067" d="M6 2H12V6H6V2Z" fill="#631EC6"/>
<path id="Rectangle 6068" d="M5 0.6C5 0.268629 5.25584 0 5.57143 0H12.4286C12.7442 0 13 0.268629 13 0.6V2.4C13 2.73137 12.7442 3 12.4286 3H5.57143C5.25584 3 5 2.73137 5 2.4V0.6Z" fill="#4B1993"/>
<path id="Subtract" fill-rule="evenodd" clip-rule="evenodd" d="M18 24.972V36.6056C18 37.928 16.8487 39 15.4286 39H2.57143C1.15127 39 0 37.928 0 36.6056V24.972V21.8961C0 21.8334 0.0351249 21.7769 0.0819207 21.7337L1.89765 20.0548C2.09919 19.8684 2.09919 19.5663 1.89765 19.3799L0.0819208 17.7011C0.0351261 17.6578 2.76862e-07 17.6013 2.89023e-07 17.5386L1.09599e-06 13.3803C1.53359e-06 8.75198 4.02944 5 9 5C13.9706 5 18 8.75198 18 13.3803L18 17.4538C18 17.5503 17.9384 17.6344 17.8663 17.7011L16.0506 19.3799C15.8491 19.5663 15.8491 19.8684 16.0506 20.0548L17.8663 21.7337C17.9384 21.8003 18 21.8844 18 21.9809V24.972Z" fill="#9250F1"/>
<path id="Rectangle 6069" d="M0 23H18V33H0V23Z" fill="#631EC6"/>
</g>
</svg>
