<svg width="35" height="26" viewBox="0 0 35 26" fill="none" xmlns="http://www.w3.org/2000/svg">
<g id="&#8;icon_&#237;&#139;&#176;&#236;&#188;&#147;">
<g id="Group 30">
<path id="Subtract" d="M2.44233 6.8743C1.61665 7.05239 1.09029 7.85975 1.26668 8.67754L2.2648 13.3049C3.9162 12.9487 5.54087 13.9859 5.89368 15.6215C6.24648 17.2571 5.19379 18.8718 3.54239 19.228L4.5405 23.8554C4.7169 24.6732 5.52927 25.1918 6.35494 25.0137C15.3647 23.0497 24.3432 21.095 33.345 19.1256C34.1707 18.9475 34.697 18.1401 34.5206 17.3223L33.5225 12.6949C31.8711 13.0511 30.2464 12.014 29.8936 10.3784C29.5408 8.74272 30.5935 7.12807 32.2449 6.77187L31.2468 2.14448C31.0704 1.32668 30.258 0.808094 29.4324 0.98619C20.4235 2.95722 11.4771 4.90486 2.44233 6.8743Z" fill="#9250F1"/>
<path id="Vector 15404" d="M24.1066 2.89478L27.6007 19.094" stroke="#F4EEFF" stroke-linecap="round" stroke-dasharray="2 2"/>
</g>
<g id="icon_&#237;&#152;&#188;&#236;&#158;&#161;&#235;&#143;&#132;">
<path id="icon_&#237;&#152;&#188;&#236;&#158;&#161;&#235;&#143;&#132;_2" d="M12.2873 8.03571L16.2687 10.0588C16.3416 10.0958 16.4187 10.1238 16.4984 10.142L16.9539 10.2463C17.1819 10.2986 17.421 10.2692 17.6296 10.1633L19.6372 9.14463C19.8458 9.03877 20.0849 9.0094 20.313 9.06163L21.1287 9.24846C21.699 9.37908 22.0358 9.9692 21.8583 10.5267L21.5958 11.3509C21.5286 11.562 21.3931 11.7449 21.2107 11.8707L19.4001 13.1192C19.1139 13.3166 18.9507 13.6484 18.9692 13.9956L19.2177 18.6668C19.2284 18.8681 19.178 19.0679 19.0732 19.24L19.0649 19.2537C18.9706 19.4085 18.8361 19.5347 18.6756 19.619L18.4144 19.7561C17.8662 20.044 17.1908 19.7695 16.9989 19.1808L15.9989 16.1148C15.8112 15.5392 15.1589 15.2611 14.6136 15.5243L13.9681 15.8357C13.6459 15.9912 13.4313 16.3071 13.4053 16.6639L13.3028 18.0751C13.2798 18.3927 13.0943 18.6758 12.8124 18.8239C12.2645 19.1115 11.5945 18.7878 11.4793 18.1799L11.1533 16.459C11.1132 16.2478 11.0063 16.0552 10.8482 15.9096L9.68232 14.8358C9.27077 14.4567 9.36384 13.7835 9.86278 13.5303C10.0525 13.434 10.2727 13.417 10.475 13.4831L11.6478 13.8663C11.967 13.9706 12.3171 13.9078 12.5801 13.699L13.1733 13.2282C13.6476 12.8518 13.6811 12.1435 13.2446 11.724L10.8312 9.40444C10.4289 9.01781 10.4665 8.36344 10.9104 8.02538C11.1251 7.86186 11.4013 7.80215 11.6644 7.8624L12.0576 7.95245C12.1373 7.97071 12.2144 7.99867 12.2873 8.03571Z" fill="#FAF9FC"/>
</g>
</g>
</svg>
