<svg width="40" height="40" viewBox="0 0 40 40" fill="none" xmlns="http://www.w3.org/2000/svg">
<g id="icon_&#235;&#185;&#132;&#236;&#158;&#144;">
<circle id="Ellipse 24" cx="20" cy="20" r="20" fill="#F4EEFF"/>
<g id="VISA">
<path id="Vector" d="M29.916 16.6055L27.3672 24H25.8262L29.0371 15.4688H30.0215L29.916 16.6055ZM32.0488 24L29.4941 16.6055L29.3828 15.4688H30.373L33.5957 24H32.0488ZM31.9258 20.8359V22.002H27.2852V20.8359H31.9258Z" fill="#631EC6"/>
<path id="Vector_2" d="M23.8164 21.8027C23.8164 21.627 23.7891 21.4707 23.7344 21.334C23.6836 21.1973 23.5918 21.0723 23.459 20.959C23.3262 20.8457 23.1387 20.7363 22.8965 20.6309C22.6582 20.5215 22.3535 20.4102 21.9824 20.2969C21.5762 20.1719 21.2012 20.0332 20.8574 19.8809C20.5176 19.7246 20.2207 19.5449 19.9668 19.3418C19.7129 19.1348 19.5156 18.8984 19.375 18.6328C19.2344 18.3633 19.1641 18.0527 19.1641 17.7012C19.1641 17.3535 19.2363 17.0371 19.3809 16.752C19.5293 16.4668 19.7383 16.2207 20.0078 16.0137C20.2812 15.8027 20.6035 15.6406 20.9746 15.5273C21.3457 15.4102 21.7559 15.3516 22.2051 15.3516C22.8379 15.3516 23.3828 15.4688 23.8398 15.7031C24.3008 15.9375 24.6543 16.252 24.9004 16.6465C25.1504 17.041 25.2754 17.4766 25.2754 17.9531H23.8164C23.8164 17.6719 23.7559 17.4238 23.6348 17.209C23.5176 16.9902 23.3379 16.8184 23.0957 16.6934C22.8574 16.5684 22.5547 16.5059 22.1875 16.5059C21.8398 16.5059 21.5508 16.5586 21.3203 16.6641C21.0898 16.7695 20.918 16.9121 20.8047 17.0918C20.6914 17.2715 20.6348 17.4746 20.6348 17.7012C20.6348 17.8613 20.6719 18.0078 20.7461 18.1406C20.8203 18.2695 20.9336 18.3906 21.0859 18.5039C21.2383 18.6133 21.4297 18.7168 21.6602 18.8145C21.8906 18.9121 22.1621 19.0059 22.4746 19.0957C22.9473 19.2363 23.3594 19.3926 23.7109 19.5645C24.0625 19.7324 24.3555 19.9238 24.5898 20.1387C24.8242 20.3535 25 20.5977 25.1172 20.8711C25.2344 21.1406 25.293 21.4473 25.293 21.791C25.293 22.1504 25.2207 22.4746 25.0762 22.7637C24.9316 23.0488 24.7246 23.293 24.4551 23.4961C24.1895 23.6953 23.8691 23.8496 23.4941 23.959C23.123 24.0645 22.709 24.1172 22.252 24.1172C21.8418 24.1172 21.4375 24.0625 21.0391 23.9531C20.6445 23.8438 20.2852 23.6777 19.9609 23.4551C19.6367 23.2285 19.3789 22.9473 19.1875 22.6113C18.9961 22.2715 18.9004 21.875 18.9004 21.4219H20.3711C20.3711 21.6992 20.418 21.9355 20.5117 22.1309C20.6094 22.3262 20.7441 22.4863 20.916 22.6113C21.0879 22.7324 21.2871 22.8223 21.5137 22.8809C21.7441 22.9395 21.9902 22.9688 22.252 22.9688C22.5957 22.9688 22.8828 22.9199 23.1133 22.8223C23.3477 22.7246 23.5234 22.5879 23.6406 22.4121C23.7578 22.2363 23.8164 22.0332 23.8164 21.8027Z" fill="#631EC6"/>
<path id="Vector_3" d="M17.5 15.4688V24H16.0293V15.4688H17.5Z" fill="#631EC6"/>
<path id="Vector_4" d="M11.1074 22.4414L13.3516 15.4688H14.9746L11.916 24H10.8203L11.1074 22.4414ZM9.0332 15.4688L11.2598 22.4414L11.5645 24H10.4629L7.41602 15.4688H9.0332Z" fill="#631EC6"/>
</g>
</g>
</svg>
