<svg width="32" height="32" viewBox="0 0 32 32" fill="none" xmlns="http://www.w3.org/2000/svg">
<g id="icon_&#234;&#179;&#181;&#237;&#149;&#173;&#236;&#133;&#148;&#237;&#139;&#128;&#235;&#178;&#132;&#236;&#138;&#164;">
<rect id="Rectangle 212" width="32" height="32" rx="4" fill="#FAF9FC"/>
<path id="illust_&#235;&#178;&#132;&#236;&#138;&#164;" fill-rule="evenodd" clip-rule="evenodd" d="M8.44444 5C7.46262 5 6.66667 5.78799 6.66667 6.76V8.99303C6.60232 8.98009 6.53662 8.9708 6.46984 8.96542C6.4248 8.96183 6.37929 8.96 6.33333 8.96C5.60764 8.96 4.99029 9.41912 4.7615 10.06H4.44444C4.199 10.06 4 10.257 4 10.5V12.7C4 12.943 4.199 13.14 4.44444 13.14H4.7615C4.99029 13.7809 5.60764 14.24 6.33333 14.24C6.44748 14.24 6.55897 14.2286 6.66667 14.207V23.04C6.66667 24.0121 7.46262 24.8 8.44444 24.8H8.88889V25.46C8.88889 26.3106 9.5 27 10.4444 27H10.8889C12 27 12.4444 26.3106 12.4444 25.46V24.8H19.5556V25.46C19.5556 26.3106 20 27 21.1111 27H21.5556C23 27 23.1111 26.3106 23.1111 25.46V24.8H23.5556C24.5374 24.8 25.3333 24.0121 25.3333 23.04V14.207C25.441 14.2286 25.5525 14.24 25.6667 14.24C26.3924 14.24 27.0097 13.7809 27.2385 13.14H27.5556C27.801 13.14 28 12.943 28 12.7V10.5C28 10.257 27.801 10.06 27.5556 10.06H27.2385C27.0097 9.41912 26.3924 8.96 25.6667 8.96C25.5525 8.96 25.441 8.97139 25.3333 8.99303V6.76C25.3333 5.78799 24.5374 5 23.5556 5H8.44444ZM25.3333 13.7545V9.44555C25.3748 9.43395 25.4173 9.42444 25.4604 9.41713C25.5275 9.40585 25.5964 9.4 25.6667 9.4C26.1417 9.4 26.5533 9.66823 26.7556 10.06H26.6667C26.4212 10.06 26.2222 10.257 26.2222 10.5V12.7C26.2222 12.943 26.4212 13.14 26.6667 13.14H26.7556C26.5533 13.5318 26.1417 13.8 25.6667 13.8C25.5511 13.8 25.4393 13.7841 25.3333 13.7545ZM6.66667 9.44555V13.7545C6.61637 13.7685 6.56472 13.7795 6.51199 13.7872C6.45367 13.7956 6.39404 13.8 6.33333 13.8C5.85834 13.8 5.44667 13.5318 5.24436 13.14H5.33333C5.57878 13.14 5.77778 12.943 5.77778 12.7V10.5C5.77778 10.257 5.57878 10.06 5.33333 10.06H5.24436C5.44667 9.66823 5.85834 9.4 6.33333 9.4C6.39497 9.4 6.45551 9.40451 6.51465 9.41321C6.56646 9.42084 6.61719 9.43169 6.66667 9.44555ZM11.7778 6.1C11.7778 5.97851 11.8773 5.88 12 5.88H20C20.1227 5.88 20.2222 5.97851 20.2222 6.1C20.2222 6.22149 20.1227 6.32 20 6.32H12C11.8773 6.32 11.7778 6.22149 11.7778 6.1ZM9.31038 7.39954C9.07406 7.41071 8.88889 7.60375 8.88889 7.83803V14.482C8.88889 14.7163 9.07406 14.9093 9.31038 14.9205C10.4653 14.975 13.7447 15.12 16 15.12C18.2553 15.12 21.5347 14.975 22.6896 14.9205C22.9259 14.9093 23.1111 14.7163 23.1111 14.482V7.83803C23.1111 7.60375 22.9259 7.41071 22.6896 7.39954C21.5347 7.34497 18.2553 7.2 16 7.2C13.7447 7.2 10.4653 7.34497 9.31038 7.39954ZM13.3333 20.4C13.3333 21.4935 12.4379 22.38 11.3333 22.38C10.2288 22.38 9.33333 21.4935 9.33333 20.4C9.33333 19.3065 10.2288 18.42 11.3333 18.42C12.4379 18.42 13.3333 19.3065 13.3333 20.4ZM20.6667 22.38C21.7712 22.38 22.6667 21.4935 22.6667 20.4C22.6667 19.3065 21.7712 18.42 20.6667 18.42C19.5621 18.42 18.6667 19.3065 18.6667 20.4C18.6667 21.4935 19.5621 22.38 20.6667 22.38Z" fill="#9250F1"/>
</g>
</svg>
