<svg width="32" height="32" viewBox="0 0 32 32" fill="none" xmlns="http://www.w3.org/2000/svg">
<g id="icon_&#236;&#151;&#172;&#237;&#150;&#137;&#234;&#176;&#157;&#237;&#149;&#132;&#236;&#136;&#152;&#237;&#146;&#136;&#235;&#166;&#172;&#236;&#138;&#164;&#237;&#138;&#184;">
<rect id="Rectangle 210" width="32" height="32" rx="4" fill="#FAF9FC"/>
<g id="illust_&#236;&#151;&#172;&#237;&#150;&#137;&#234;&#176;&#157;&#234;&#176;&#128;&#235;&#176;&#169;">
<g id="Subtract">
<path d="M6 12.4348C6 11.0901 7.11929 10 8.5 10H10.0625C10.2351 10 10.375 10.1363 10.375 10.3043V23.6957C10.375 23.8637 10.2351 24 10.0625 24H8.5C7.11929 24 6 22.9099 6 21.5652V12.4348Z" fill="#9250F1"/>
<path d="M11.9375 24C11.7649 24 11.625 23.8637 11.625 23.6957V10.3043C11.625 10.1363 11.7649 10 11.9375 10H20.0625C20.2351 10 20.375 10.1363 20.375 10.3043V23.6957C20.375 23.8637 20.2351 24 20.0625 24H11.9375Z" fill="#9250F1"/>
<path d="M21.625 23.6957C21.625 23.8637 21.7649 24 21.9375 24H23.5C24.8807 24 26 22.9099 26 21.5652V12.4348C26 11.0901 24.8807 10 23.5 10H21.9375C21.7649 10 21.625 10.1363 21.625 10.3043V23.6957Z" fill="#9250F1"/>
</g>
<path id="Union" d="M12 7C12 6.44772 12.4477 6 13 6H19C19.5523 6 20 6.44772 20 7V8.38462C20 8.72448 19.7245 9 19.3846 9C19.0447 9 18.7692 8.72448 18.7692 8.38462V7.5H13.2308V8.38462C13.2308 8.72448 12.9553 9 12.6154 9C12.2755 9 12 8.72448 12 8.38462V7Z" fill="#9250F1"/>
</g>
</g>
</svg>
