<svg width="32" height="32" viewBox="0 0 32 32" fill="none" xmlns="http://www.w3.org/2000/svg">
<g id="icon_&#236;&#131;&#129;&#235;&#139;&#180;&#235;&#178;&#136;&#237;&#152;&#184;">
<rect id="Rectangle 213" width="32" height="32" rx="4" fill="#FAF9FC"/>
<path id="illust_&#236;&#160;&#132;&#237;&#153;&#148;&#234;&#184;&#176;" d="M22.9996 22.5893V20.4817C23.0081 20.1372 22.8895 19.8015 22.6663 19.5386C22.4431 19.2756 22.1308 19.1037 21.7888 19.0556C21.113 18.9666 20.4495 18.8016 19.8108 18.5638C19.5589 18.4693 19.2851 18.4488 19.0218 18.5049C18.7586 18.5609 18.5169 18.6911 18.3256 18.8799L17.4316 19.7721C15.6693 18.7721 14.2102 17.3158 13.2081 15.557L14.1021 14.6648C14.2913 14.4738 14.4218 14.2327 14.4779 13.9699C14.534 13.7072 14.5135 13.4339 14.4188 13.1825C14.1805 12.5451 14.0152 11.8829 13.9261 11.2084C13.8783 10.8708 13.7091 10.5621 13.4501 10.3398C13.1911 10.1174 12.8599 9.99671 12.5183 10.0001H10.4065C10.2111 10.0003 10.0178 10.041 9.839 10.1199C9.66022 10.1987 9.49984 10.3138 9.36807 10.4578C9.2363 10.6019 9.13603 10.7718 9.07364 10.9566C9.01126 11.1415 8.98812 11.3373 9.00571 11.5316C9.23677 13.7031 9.9771 15.7897 11.1667 17.6224C12.2475 19.3198 13.6895 20.7589 15.3902 21.8376C17.2183 23.0207 19.299 23.7594 21.465 23.9943C21.6603 24.0119 21.8571 23.9886 22.0428 23.9259C22.2285 23.8633 22.399 23.7626 22.5435 23.6303C22.6879 23.498 22.8031 23.3371 22.8817 23.1578C22.9602 22.9786 23.0004 22.7849 22.9996 22.5893Z" fill="#9250F1"/>
</g>
</svg>
