<svg width="40" height="40" viewBox="0 0 40 40" fill="none" xmlns="http://www.w3.org/2000/svg">
<g id="&#8;icon_&#236;&#154;&#180;&#236;&#160;&#132;">
<circle id="Ellipse 25" cx="20" cy="20" r="20" fill="#F4EEFF"/>
<circle id="Ellipse 27" cx="20" cy="15" r="6" fill="#631EC6"/>
<path id="Subtract" fill-rule="evenodd" clip-rule="evenodd" d="M8 31C8 24.3726 13.3726 19 20 19C26.6274 19 32 24.3726 32 31H27.1004C27.1659 30.6097 27.2 30.2088 27.2 29.7999C27.2 25.8235 23.9764 22.5999 20 22.5999C16.0235 22.5999 12.8 25.8235 12.8 29.7999C12.8 30.2088 12.834 30.6097 12.8995 31H8Z" fill="#631EC6"/>
<g id="Vector">
<path d="M21.7004 29.2222C21.7004 30.1576 20.9482 30.916 20.0203 30.916C19.0924 30.916 18.3402 30.1576 18.3402 29.2222C18.3402 28.2867 19.0924 27.5284 20.0203 27.5284C20.9482 27.5284 21.7004 28.2867 21.7004 29.2222Z" fill="#631EC6"/>
<path d="M23.5255 25.1543C22.5311 24.4263 21.3389 24.0238 20.1102 24.001C18.8814 23.9783 17.6754 24.3365 16.6551 25.0271L18.3781 27.6138C18.8729 27.2789 19.4576 27.1052 20.0534 27.1162C20.6493 27.1273 21.2273 27.3225 21.7095 27.6754L23.5255 25.1543Z" fill="#631EC6"/>
<path d="M15.7574 25.7717C15.0872 26.4473 14.5854 27.2733 14.2929 28.182C14.0004 29.0908 13.9256 30.0565 14.0747 31L17.1269 30.51C17.0546 30.0525 17.0909 29.5842 17.2327 29.1436C17.3745 28.7029 17.6178 28.3024 17.9428 27.9748L15.7574 25.7717Z" fill="#631EC6"/>
<path d="M24.2426 25.7717C24.9128 26.4473 25.4146 27.2733 25.7071 28.182C25.9996 29.0908 26.0744 30.0565 25.9253 31L22.8731 30.51C22.9454 30.0525 22.9091 29.5842 22.7673 29.1436C22.6255 28.7029 22.3822 28.3024 22.0572 27.9748L24.2426 25.7717Z" fill="#631EC6"/>
</g>
</g>
</svg>
