<svg width="41" height="81" viewBox="0 0 41 81" fill="none" xmlns="http://www.w3.org/2000/svg">
<g id="&#8;liiust_&#235;&#182;&#128;&#237;&#131;&#132;&#234;&#176;&#128;&#236;&#138;&#164;">
<path id="Rectangle 6036" d="M15.8308 9.62671C15.8308 9.62671 22.7483 13.4721 27.6146 14.5953C32.4809 15.7185 40.384 15.2938 40.384 15.2938L26.1248 77.073C25.9601 77.7866 25.3459 78.304 24.6138 78.3247C22.2003 78.3929 16.7662 78.431 13.0773 77.5795C9.38834 76.7281 4.52063 74.3123 2.38119 73.1932C1.73223 72.8537 1.40691 72.1195 1.57162 71.4059L15.8308 9.62671Z" fill="#CB2B24"/>
<path id="Ellipse 725" d="M40.4456 15.0268C40.1394 16.3534 34.3948 16.1601 27.6146 14.5952C20.8344 13.0303 15.5862 10.6863 15.8924 9.3597C16.1986 8.03315 21.9432 8.22639 28.7234 9.79131C35.5035 11.3562 40.7517 13.7002 40.4456 15.0268Z" fill="#C3C2D6"/>
<path id="Rectangle 6037" d="M24.1248 5.35669C24.1248 5.35669 27.2443 6.63891 29.3392 7.12243C31.4341 7.60595 34.8 7.82064 34.8 7.82064L34.005 11.2653C33.824 12.0493 33.1026 12.5865 32.3015 12.5114C31.1335 12.402 29.4622 12.2106 28.2304 11.9263C26.9986 11.642 25.4125 11.0815 24.3147 10.668C23.5618 10.3843 23.1488 9.5853 23.3297 8.80131L24.1248 5.35669Z" fill="#C3C2D6"/>
<path id="Ellipse 726" d="M34.8001 7.82086C34.596 8.70523 32.0407 8.87058 29.0928 8.19018C26.1449 7.50978 23.9207 6.24128 24.1248 5.35691C24.3289 4.47254 26.8841 4.30719 29.832 4.98759C32.7799 5.66799 35.0042 6.93649 34.8001 7.82086Z" fill="#CFCDE2"/>
<path id="Rectangle 6038" d="M27.656 2.23633C27.656 2.23633 29.1788 3.03757 30.2263 3.27933C31.2737 3.52109 32.9937 3.46831 32.9937 3.46831L32.3915 6.07724C32.2236 6.80454 31.5862 7.33175 30.8406 7.29705C30.3399 7.27375 29.78 7.22417 29.3392 7.12243C28.8985 7.0207 28.3735 6.81988 27.9133 6.62139C27.2278 6.3258 26.886 5.57257 27.0538 4.84526L27.656 2.23633Z" fill="#B42F29"/>
<path id="Ellipse 727" d="M32.9937 3.46828C32.7896 4.35265 31.4292 4.79379 29.9553 4.45359C28.4813 4.11339 27.4519 3.12067 27.656 2.2363C27.8602 1.35193 29.2205 0.910797 30.6945 1.251C32.1684 1.5912 33.1978 2.58391 32.9937 3.46828Z" fill="#D76863"/>
<path id="Ellipse 728" d="M31.7194 43.0904C30.4266 48.6914 24.8381 52.1839 19.2371 50.8911C13.6361 49.5984 10.1436 44.0099 11.4363 38.4089C12.7291 32.8079 18.3176 29.3153 23.9186 30.6081C29.5196 31.9009 33.0122 37.4894 31.7194 43.0904Z" fill="#EEEEEE"/>
<path id="Vector 15417 (Stroke)" fill-rule="evenodd" clip-rule="evenodd" d="M16.849 36.0507C16.8959 36.0628 16.9352 36.0729 16.9637 36.0795C17.4059 36.1816 17.6816 36.6228 17.5796 37.065C17.4775 37.5071 17.0363 37.7829 16.5941 37.6808C16.5204 37.6638 16.4275 37.64 16.3527 37.6208C16.3149 37.6111 16.2817 37.6026 16.2581 37.5968C16.1632 37.5735 16.1001 37.5611 16.0503 37.5556C15.975 37.5473 15.9599 37.5564 15.9387 37.5691L15.9377 37.5697C15.8286 37.6351 15.7099 37.6976 15.6121 37.7491C15.6016 37.7546 15.5914 37.76 15.5814 37.7652C15.4691 37.8245 15.3771 37.874 15.2949 37.9249C15.1283 38.0279 15.0923 38.0834 15.0896 38.0877C15.0894 38.088 15.0893 38.088 15.0894 38.0878C14.9811 38.3147 14.8589 38.5339 14.7493 38.7298L14.7397 38.7471C14.6299 38.9434 14.5323 39.1179 14.4457 39.294C14.269 39.6533 14.1729 39.953 14.1704 40.2535C14.1684 40.5029 14.2154 40.8687 14.3196 41.2175C14.4303 41.5878 14.567 41.8103 14.6595 41.8937C14.7762 41.9989 14.8741 42.1036 14.9526 42.1896C14.9764 42.2157 14.9975 42.2391 15.0169 42.2604C15.0676 42.3165 15.1061 42.3591 15.1495 42.4032C15.2508 42.5062 15.3146 42.5492 15.3923 42.5776C15.8779 42.7556 16.3676 42.8868 16.9071 43.0113C17.3493 43.1133 17.625 43.5545 17.523 43.9967C17.4209 44.4389 16.9797 44.7146 16.5375 44.6126C15.9659 44.4806 15.4026 44.3317 14.8269 44.1207C14.4364 43.9777 14.173 43.754 13.9776 43.5553C13.9081 43.4846 13.8377 43.4068 13.7814 43.3445C13.766 43.3275 13.7516 43.3116 13.7386 43.2973C13.6702 43.2223 13.6151 43.1648 13.5587 43.114C13.1324 42.7294 12.8862 42.1605 12.745 41.688C12.5974 41.1939 12.5236 40.6651 12.5271 40.2401C12.5324 39.5856 12.7453 39.0278 12.971 38.5688C13.0773 38.3526 13.1941 38.1438 13.2982 37.9577C13.3038 37.9477 13.3094 37.9377 13.3149 37.9278C13.4273 37.7269 13.5242 37.5518 13.6064 37.3797C13.8124 36.9484 14.1734 36.6861 14.4307 36.527C14.5662 36.4433 14.7035 36.3703 14.8146 36.3117C14.8228 36.3074 14.8308 36.3032 14.8387 36.299C14.9465 36.2422 15.0249 36.2008 15.0932 36.1599C15.4956 35.9188 15.8916 35.8849 16.23 35.9221C16.4387 35.945 16.6883 36.0093 16.849 36.0507Z" fill="#4D4D4D"/>
<path id="Vector 15418 (Stroke)" fill-rule="evenodd" clip-rule="evenodd" d="M18.1471 41.5485C18.1562 41.5466 18.1716 41.5438 18.1943 41.5408C18.2583 41.5322 18.3448 41.5263 18.4439 41.5249C18.5416 41.5235 18.6396 41.5266 18.7236 41.533C18.7654 41.5361 18.8008 41.5398 18.8288 41.5435C18.8426 41.5454 18.8536 41.5471 18.8617 41.5485C18.8701 41.5499 18.8738 41.5508 18.8735 41.5507C19.3157 41.6528 19.7569 41.3771 19.859 40.9349C19.961 40.4927 19.6853 40.0515 19.2431 39.9495C19.0133 39.8964 18.6909 39.8778 18.4206 39.8816C18.2767 39.8837 18.1221 39.8924 17.9757 39.912C17.8884 39.9237 17.7703 39.9434 17.6469 39.9821C17.6323 39.9796 17.6156 39.9767 17.5959 39.9731C17.5903 39.9721 17.5842 39.971 17.5777 39.9698C17.5138 39.9582 17.4113 39.9396 17.3108 39.9297C17.2305 39.9219 17.0981 39.913 16.9471 39.9372C16.9307 39.9344 16.9105 39.9306 16.8869 39.9255C16.8442 39.9162 16.8034 39.9059 16.7747 39.8981C16.7677 39.8962 16.7619 39.8946 16.7575 39.8933C16.7349 39.886 16.7119 39.8796 16.6883 39.8742C16.6835 39.8731 16.6744 39.871 16.663 39.8688C16.6629 39.8688 16.6627 39.8687 16.6625 39.8687C16.6557 39.8673 16.6257 39.8613 16.5873 39.8574C16.587 39.8574 16.5867 39.8573 16.5863 39.8573C16.5723 39.8558 16.5115 39.8495 16.4348 39.8559C16.386 39.8614 16.252 39.8923 16.1692 39.9238C16.0177 40.0116 15.7427 40.3627 15.6823 40.6309C15.6991 40.8456 15.828 41.1436 15.8972 41.2301C15.9387 41.2722 16.0108 41.3329 16.0395 41.3533C16.0897 41.3876 16.1326 41.4084 16.1442 41.4141L16.1444 41.4141C16.175 41.429 16.2 41.4387 16.2063 41.4411L16.2066 41.4412C16.2167 41.4451 16.2249 41.4481 16.2294 41.4496C16.2386 41.4529 16.246 41.4554 16.2496 41.4565C16.2629 41.4609 16.2754 41.4646 16.282 41.4666C16.2988 41.4715 16.3203 41.4776 16.3448 41.4843C16.3936 41.4975 16.4629 41.5152 16.5401 41.5319C16.6146 41.5479 16.7115 41.5664 16.8112 41.5768C16.8677 41.5828 17.0112 41.5974 17.1738 41.5681C17.2011 41.5719 17.2387 41.5786 17.3047 41.5905C17.3065 41.5908 17.3084 41.5911 17.3102 41.5915C17.3784 41.6038 17.4945 41.6247 17.6119 41.632C17.711 41.6381 17.9233 41.6445 18.1471 41.5485ZM17.1391 41.5646C17.139 41.5645 17.1414 41.5645 17.1466 41.5649C17.1418 41.5649 17.1392 41.5647 17.1391 41.5646ZM16.9827 39.9424C16.9825 39.9424 16.9822 39.9424 16.982 39.9423C17.0006 39.9427 17.0029 39.9445 16.9827 39.9424Z" fill="#4D4D4D"/>
<path id="Vector 15419 (Stroke)" fill-rule="evenodd" clip-rule="evenodd" d="M18.191 40.0496C18.6332 40.1517 18.909 40.5929 18.8069 41.035C18.7781 41.1599 18.7356 41.2843 18.7004 41.3822C18.6819 41.4337 18.6626 41.4856 18.6448 41.5331L18.6413 41.5425C18.6244 41.5879 18.6088 41.6296 18.5938 41.6709C18.561 41.7611 18.5386 41.8289 18.5249 41.881C18.5208 41.8966 18.5183 41.9077 18.5168 41.9149C18.5223 42.0386 18.5442 42.168 18.5773 42.363L18.5777 42.3654C18.6095 42.5526 18.6534 42.811 18.6511 43.0882C18.6482 43.4387 18.6335 43.7795 18.604 44.127C18.5974 44.2046 18.5975 44.3841 18.5978 44.613C18.5979 44.6793 18.5979 44.7499 18.5979 44.8233C18.5977 44.9658 18.5966 45.1183 18.5908 45.2355C18.5884 45.286 18.5834 45.3698 18.5687 45.4509C18.5686 45.4516 18.5684 45.4525 18.5682 45.4536C18.5638 45.4787 18.5419 45.603 18.469 45.7328C18.4373 45.7892 18.312 46.0033 18.0313 46.1063C17.668 46.2397 17.3642 46.0865 17.2197 45.9671C16.9619 45.7541 16.8673 45.4168 16.9511 45.114C16.9534 45.0423 16.9543 44.9426 16.9545 44.8214C16.9545 44.7758 16.9544 44.7256 16.9543 44.6728C16.9538 44.4349 16.9532 44.1441 16.9665 43.9876C16.9922 43.6857 17.0052 43.3872 17.0078 43.0748C17.0087 42.9613 16.9909 42.8369 16.9571 42.638C16.955 42.6258 16.9529 42.6133 16.9507 42.6004C16.9207 42.4249 16.8799 42.186 16.8731 41.934C16.8682 41.75 16.9047 41.5801 16.9357 41.4623C16.9689 41.3365 17.0118 41.2126 17.0492 41.1097C17.0767 41.0339 17.1002 40.9711 17.12 40.9178C17.1653 40.7964 17.1918 40.7251 17.2056 40.6655C17.3077 40.2233 17.7489 39.9475 18.191 40.0496Z" fill="#4D4D4D"/>
<path id="Vector 15420 (Stroke)" fill-rule="evenodd" clip-rule="evenodd" d="M22.8568 39.5895C22.712 39.0598 22.5576 39.0057 22.4954 38.994C22.4238 38.9805 22.3902 38.9856 22.3831 38.9869C22.3822 38.9871 22.3814 38.9873 22.3808 38.9874C22.3718 38.9939 22.3166 39.0415 22.2469 39.2083C22.1781 39.3731 22.1228 39.5864 22.0714 39.8447C22.047 39.9675 22.0253 40.0906 22.0027 40.2188L22.0005 40.2311C21.9778 40.3595 21.9536 40.4966 21.9269 40.625C21.784 41.3122 21.7006 42.0048 21.6124 42.7382C21.6074 42.7793 21.6025 42.8205 21.5975 42.8618C21.505 43.6286 21.4036 44.4382 21.2158 45.2518C21.1138 45.694 20.6726 45.9697 20.2304 45.8677C19.7882 45.7656 19.5125 45.3244 19.6145 44.8822C19.7801 44.165 19.8729 43.4367 19.9659 42.665C19.9716 42.6183 19.9772 42.5714 19.9829 42.5244C20.0691 41.8066 20.1602 41.0488 20.3179 40.2905C20.3387 40.1905 20.3587 40.078 20.3821 39.9454L20.3852 39.9277C20.4071 39.8037 20.4316 39.6648 20.4596 39.5242C20.5172 39.2344 20.5976 38.893 20.7305 38.5749C20.8616 38.2611 21.0736 37.8964 21.4388 37.6408C21.832 37.3656 22.303 37.2856 22.7992 37.3789C23.8562 37.5778 24.265 38.5085 24.442 39.1561C24.5377 39.506 24.5937 39.8691 24.6349 40.1856C24.6528 40.323 24.6672 40.4444 24.6804 40.5555C24.7003 40.7235 24.7175 40.868 24.7397 41.0091C24.8506 41.713 24.9589 42.6562 24.92 43.4402C24.8914 44.0169 24.9168 44.6029 24.9711 45.1965C24.9794 45.2872 24.9774 45.3723 24.974 45.4369C24.9705 45.5041 24.9642 45.5708 24.9581 45.6287C24.9531 45.6761 24.9485 45.7169 24.9443 45.7543C24.9366 45.8215 24.9303 45.8777 24.9253 45.9418C24.9232 45.9684 24.9218 45.9914 24.9211 46.0114C25.0876 46.3058 25.0604 46.6852 24.8258 46.955C24.5281 47.2975 24.0091 47.3339 23.6666 47.0362C23.3894 46.7952 23.3178 46.4783 23.2941 46.3108C23.2681 46.1264 23.2767 45.9445 23.2868 45.8141C23.2941 45.7213 23.306 45.6153 23.3152 45.5343C23.3185 45.5045 23.3215 45.478 23.3237 45.4568C23.3329 45.3694 23.3332 45.3385 23.3338 45.3385C23.3339 45.3385 23.3341 45.3413 23.3345 45.346C23.2758 44.7037 23.245 44.0362 23.2787 43.3587C23.309 42.7471 23.2224 41.9379 23.1163 41.2649C23.0901 41.0985 23.0658 40.8951 23.0424 40.6998C23.0298 40.5945 23.0175 40.4915 23.0053 40.3979C22.9668 40.1021 22.9221 39.8284 22.8568 39.5895Z" fill="#4D4D4D"/>
<path id="Vector 15421 (Stroke)" fill-rule="evenodd" clip-rule="evenodd" d="M20.8527 41.602C20.8559 41.1482 21.2263 40.7828 21.6801 40.7859L23.518 40.7986C23.9718 40.8017 24.3371 41.1721 24.334 41.6259C24.3309 42.0797 23.9605 42.4451 23.5067 42.4419L21.6688 42.4293C21.215 42.4262 20.8496 42.0558 20.8527 41.602Z" fill="#4D4D4D"/>
<path id="Vector 15422 (Stroke)" fill-rule="evenodd" clip-rule="evenodd" d="M29.107 37.2488C29.2354 37.2869 29.3313 37.3147 29.4117 37.3332C29.8539 37.4353 30.1296 37.8765 30.0276 38.3187C29.9255 38.7609 29.4843 39.0366 29.0421 38.9345C28.9045 38.9027 28.761 38.8604 28.6393 38.8243C28.6311 38.8218 28.6229 38.8194 28.6148 38.817C28.4948 38.7813 28.3886 38.7498 28.2837 38.7229C28.1726 38.6945 28.083 38.6767 28.0106 38.6687C27.9755 38.6648 27.949 38.6637 27.9299 38.664C27.9115 38.6642 27.9033 38.6657 27.9033 38.6657L27.9034 38.6657C27.7785 38.6899 27.6606 38.6958 27.5914 38.699C27.5707 38.7 27.5532 38.7008 27.5381 38.7015C27.5324 38.7017 27.5271 38.7019 27.5221 38.7022C27.4876 38.7443 27.4522 38.7884 27.4138 38.8361C27.4049 38.8472 27.3959 38.8584 27.3866 38.8699C27.3117 38.9631 27.2262 39.0687 27.1313 39.1758C27.1247 39.1908 27.1154 39.2141 27.1049 39.2466C27.0768 39.3335 27.0518 39.448 27.039 39.5672C27.0281 39.6686 27.0283 39.7508 27.0336 39.8068C27.0878 39.8685 27.13 39.9265 27.1618 39.9727C27.1867 40.0088 27.209 40.0435 27.2251 40.0687C27.2274 40.0723 27.2296 40.0757 27.2317 40.079C27.2417 40.0945 27.2492 40.1062 27.2561 40.1168C27.2685 40.121 27.2827 40.1256 27.2988 40.1308C27.3113 40.1348 27.3372 40.1428 27.3684 40.1525C27.4253 40.1701 27.4999 40.1933 27.5433 40.2075C27.6347 40.2374 27.7521 40.2784 27.868 40.3334C27.956 40.3752 28.0808 40.4421 28.2008 40.5469C28.2652 40.558 28.3518 40.5639 28.508 40.5737C28.511 40.5739 28.5142 40.5741 28.5173 40.5743C28.6581 40.5831 28.8764 40.5968 29.0854 40.6476C29.3028 40.7004 29.6193 40.8177 29.8559 41.1168C29.8683 41.1324 29.8874 41.1543 29.9116 41.1819C30.0075 41.2915 30.1826 41.4916 30.3247 41.748C30.6263 42.2924 30.5183 42.879 30.45 43.1747C30.3108 43.7778 30.0022 44.5973 29.2083 45.0861C28.3973 45.5855 27.3195 45.5968 25.979 45.1338C25.55 44.9857 25.3224 44.5179 25.4705 44.0889C25.6187 43.66 26.0865 43.4323 26.5154 43.5805C27.6292 43.9651 28.131 43.8195 28.3467 43.6867C28.5795 43.5433 28.7448 43.2554 28.8487 42.8051C28.8735 42.6977 28.8831 42.6209 28.8827 42.5672C28.8826 42.5498 28.8814 42.5387 28.8805 42.5326C28.8445 42.4691 28.8167 42.4323 28.7839 42.3929C28.7667 42.3723 28.751 42.3543 28.7285 42.3285C28.7197 42.3184 28.7099 42.3072 28.6985 42.2941C28.683 42.2762 28.6661 42.2566 28.648 42.2352C28.597 42.2277 28.523 42.2213 28.4048 42.2139C28.3942 42.2132 28.383 42.2125 28.3712 42.2118C28.2384 42.2037 28.0394 42.1915 27.8526 42.1534C27.6652 42.1152 27.3835 42.032 27.1438 41.8094C27.1203 41.7997 27.085 41.7866 27.0327 41.7695C26.9995 41.7587 26.9644 41.7478 26.9244 41.7354C26.9193 41.7339 26.9142 41.7323 26.9089 41.7307C26.8745 41.7201 26.8357 41.7081 26.7982 41.6961C26.7177 41.6703 26.6016 41.6317 26.4912 41.579C26.1654 41.4234 25.9889 41.1784 25.8986 41.0433C25.8794 41.0147 25.8608 40.9856 25.8473 40.9645C25.8453 40.9614 25.8435 40.9585 25.8417 40.9558C25.826 40.9312 25.8163 40.9164 25.808 40.9043C25.8053 40.9004 25.8032 40.8974 25.8016 40.8952C25.5321 40.6377 25.4467 40.3012 25.4141 40.0941C25.3766 39.8564 25.3815 39.6096 25.4051 39.3911C25.4289 39.1694 25.4757 38.9436 25.5413 38.7407C25.5992 38.5618 25.7003 38.3089 25.8804 38.1094C25.9535 38.0283 26.024 37.942 26.1061 37.8399C26.1149 37.829 26.1238 37.8178 26.133 37.8064C26.2054 37.7163 26.2887 37.6126 26.3773 37.5103C26.6731 37.1687 27.0532 37.0963 27.2625 37.0736C27.3467 37.0645 27.4361 37.0608 27.4897 37.0585C27.4993 37.0581 27.5079 37.0578 27.515 37.0574C27.575 37.0546 27.591 37.0522 27.5911 37.0522C27.5911 37.0522 27.5909 37.0523 27.5908 37.0523C28.0021 36.9726 28.417 37.0607 28.6912 37.1309C28.828 37.1659 28.9633 37.2061 29.0774 37.24C29.0874 37.243 29.0973 37.2459 29.107 37.2488ZM27.1724 41.8228C27.1724 41.8228 27.1706 41.8219 27.1674 41.82C27.1709 41.8218 27.1725 41.8227 27.1724 41.8228ZM28.7103 42.2481C28.7102 42.2482 28.709 42.2478 28.7068 42.247C28.7092 42.2477 28.7103 42.2481 28.7103 42.2481ZM28.8794 42.5267C28.8794 42.5267 28.8795 42.5269 28.8796 42.5274L28.8794 42.5267ZM28.1559 40.5368C28.156 40.5367 28.1579 40.5373 28.1614 40.5386C28.1576 40.5375 28.1558 40.5369 28.1559 40.5368ZM27.1398 39.1583C27.1398 39.1583 27.1394 39.1592 27.1384 39.1608C27.1393 39.1591 27.1398 39.1583 27.1398 39.1583ZM27.4265 38.7092C27.4265 38.7092 27.4268 38.7092 27.4275 38.7091L27.4265 38.7092Z" fill="#4D4D4D"/>
</g>
</svg>
