<svg width="32" height="32" viewBox="0 0 32 32" fill="none" xmlns="http://www.w3.org/2000/svg">
<g id="icon_&#234;&#184;&#176;&#235;&#130;&#180;&#235;&#176;&#152;&#236;&#158;&#133;&#234;&#184;&#136;&#236;&#167;&#128;&#235;&#172;&#188;&#237;&#146;&#136;">
<rect id="Rectangle 209" width="32" height="32" rx="4" fill="#FAF9FC"/>
<g id="illust_!">
<path id="Polygon 1" d="M14.2373 7.28788C14.9915 5.8812 17.0085 5.8812 17.7627 7.28788L25.6795 22.055C26.3938 23.3874 25.4286 25 23.9168 25H8.08318C6.57144 25 5.60622 23.3874 6.32051 22.055L14.2373 7.28788Z" fill="#9250F1"/>
<path id="Rectangle 223" d="M15 13C15 12.4477 15.4477 12 16 12C16.5523 12 17 12.4477 17 13V18C17 18.5523 16.5523 19 16 19C15.4477 19 15 18.5523 15 18V13Z" fill="#FAF9FC"/>
<circle id="Ellipse 20" cx="16" cy="21" r="1" fill="#FAF9FC"/>
</g>
</g>
</svg>
