<svg width="29" height="23" viewBox="0 0 29 23" fill="none" xmlns="http://www.w3.org/2000/svg">
<g id="icon_&#236;&#163;&#188;&#236;&#176;&#168;&#236;&#160;&#149;&#235;&#179;&#180;">
<path id="&#8;icon_&#236;&#163;&#188;&#236;&#176;&#168;&#236;&#158;&#165;" fill-rule="evenodd" clip-rule="evenodd" d="M21.111 0C21.771 0 22.3541 0.430064 22.5498 1.06109L24.3905 6.99788C24.5645 7.55896 25.048 7.96784 25.6297 8.04568L26.6611 8.18369C27.1786 8.25294 27.6231 8.584 27.8134 9.07069C28.2557 10.2018 29 12.3441 29 13.9508C29 15.499 28.309 17.5444 27.8629 18.7034C27.6494 19.2582 27.1112 19.6066 26.5173 19.6066H25.2338V20.7377C25.2338 21.9871 24.222 23 22.974 23C21.726 23 20.7143 21.9871 20.7143 20.7377V19.6066H8.28572V20.7377C8.28572 21.9871 7.27399 23 6.02597 23C4.77795 23 3.76623 21.9871 3.76623 20.7377V19.6066H2.48275C1.88881 19.6066 1.3506 19.2582 1.13706 18.7034C0.691037 17.5444 0 15.499 0 13.9508C0 12.3353 0.752429 10.1784 1.19377 9.05227C1.38049 8.57582 1.81162 8.24795 2.31688 8.16991L3.0175 8.06169C3.58659 7.97379 4.05585 7.5688 4.22656 7.01824L6.0736 1.06109C6.26925 0.430065 6.8524 0 7.51238 0H21.111ZM8.49721 2.5082C8.15157 2.5082 7.85028 2.7437 7.76645 3.0794L6.63658 6.60399C6.51773 7.07994 6.8773 7.54098 7.36734 7.54098H21.256C21.7461 7.54098 22.1056 7.07994 21.9868 6.60399L20.8569 3.0794C20.7731 2.7437 20.4718 2.5082 20.1262 2.5082H8.49721ZM25.987 14.7049C25.987 16.1626 24.8067 17.3443 23.3507 17.3443C21.8946 17.3443 20.7143 16.1626 20.7143 14.7049C20.7143 13.2472 21.8946 12.0656 23.3507 12.0656C24.8067 12.0656 25.987 13.2472 25.987 14.7049ZM5.64935 17.3443C7.10537 17.3443 8.28572 16.1626 8.28572 14.7049C8.28572 13.2472 7.10537 12.0656 5.64935 12.0656C4.19333 12.0656 3.01299 13.2472 3.01299 14.7049C3.01299 16.1626 4.19333 17.3443 5.64935 17.3443Z" fill="#9250F1"/>
</g>
</svg>
