<svg width="52" height="74" viewBox="0 0 52 74" fill="none" xmlns="http://www.w3.org/2000/svg">
<g id="liiust_&#235;&#157;&#188;&#236;&#157;&#180;&#237;&#132;&#176;">
<circle id="Ellipse 35" cx="43" cy="36" r="4" fill="#C6CBD1"/>
<rect id="Rectangle 276" x="18" y="36" width="34" height="38" rx="6" fill="#DDE3EB"/>
<path id="Rectangle 279" d="M18 66H52V68C52 71.3137 49.3137 74 46 74H24C20.6863 74 18 71.3137 18 68V66Z" fill="#CBD2DC"/>
<rect id="Rectangle 277" y="4" width="20" height="34" rx="6" fill="#DDE3EB"/>
<circle id="Ellipse 34" cx="18.5" cy="36.5" r="4.5" fill="#8E9BAB"/>
<path id="Rectangle 278" d="M27 30C27 28.8954 27.8954 28 29 28H41C42.1046 28 43 28.8954 43 30V36H27V30Z" fill="#D3D8DF"/>
<path id="Vector 15416" d="M28.9168 11.4909C25.9138 19.6762 31.0023 23.1567 33.9219 23.8738C35.0099 24.0312 36.0435 24.0525 36.8052 23.8738C40.831 22.9294 42.8439 20.0435 43.7687 16.9478C45.1631 12.2803 39.7973 3.51549 39.7973 5.45688C40.1781 8.9199 38.7637 11.0187 38.7637 9.60201C38.4724 6.98983 36.6547 4.27899 34.9242 2.29951C34.2753 1.55732 33.0204 2.24064 33.0203 3.22646C33.0201 6.68307 31.8877 10.2964 31.1473 12.0156C31.1183 12.0828 30.8282 11.0799 30.5032 9.94196C30.2337 8.99863 29.5064 9.10037 29.3013 10.0597C29.2044 10.5127 29.0787 10.9934 28.9168 11.4909Z" fill="#F9CE5F"/>
</g>
</svg>
