<svg width="87" height="102" viewBox="0 0 87 102" fill="none" xmlns="http://www.w3.org/2000/svg">
<g id="&#8;illust_&#235;&#166;&#172;&#237;&#138;&#172;&#235;&#176;&#176;&#237;&#132;&#176;&#235;&#166;&#172;">
<g id="Group 1000004125">
<path id="Rectangle 6058" d="M44.5279 27.6251C44.77 26.7276 45.6939 26.1963 46.5914 26.4384L61.4493 30.4466C62.3468 30.6887 62.8781 31.6125 62.636 32.51L60.3188 41.0998C60.0767 41.9973 59.1528 42.5286 58.2553 42.2865L43.3974 38.2783C42.4999 38.0362 41.9686 37.1123 42.2107 36.2148L44.5279 27.6251Z" fill="#7B7B7B"/>
<path id="Rectangle 6059" d="M31.469 33.5663C32.057 31.3866 34.3007 30.0963 36.4803 30.6843L68.0534 39.2016C70.2331 39.7896 71.5234 42.0333 70.9354 44.2129L56.531 97.6086C55.943 99.7882 53.6994 101.079 51.5197 100.491L19.9467 91.9732C17.767 91.3852 16.4767 89.1416 17.0647 86.9619L31.469 33.5663Z" fill="#F0D547"/>
<path id="Rectangle 6060" d="M26.7038 79.8489C27.0497 78.5667 28.3695 77.8077 29.6516 78.1536L50.0813 83.6648C51.3634 84.0107 52.1224 85.3305 51.7765 86.6127L51.025 89.3985C50.6791 90.6807 49.3593 91.4397 48.0772 91.0938L27.6475 85.5826C26.3654 85.2367 25.6064 83.9169 25.9523 82.6348L26.7038 79.8489Z" fill="white"/>
<path id="Rectangle 6061" d="M29.3342 70.0984C29.6801 68.8162 30.9998 68.0572 32.282 68.4031L52.7116 73.9144C53.9938 74.2602 54.7528 75.58 54.4069 76.8622L53.6554 79.648C53.3095 80.9302 51.9897 81.6892 50.7076 81.3433L30.2779 75.8321C28.9958 75.4862 28.2368 74.1664 28.5826 72.8843L29.3342 70.0984Z" fill="white"/>
<path id="Rectangle 6062" d="M31.8395 60.8123C32.1854 59.5301 33.5052 58.7711 34.7874 59.117L55.217 64.6282C56.4992 64.9741 57.2582 66.2939 56.9123 67.576L56.1607 70.3619C55.8149 71.6441 54.4951 72.4031 53.2129 72.0572L32.7833 66.546C31.5011 66.2001 30.7421 64.8803 31.088 63.5981L31.8395 60.8123Z" fill="white"/>
</g>
<g id="Vector 15429">
<path d="M75.3096 16.6867L68.7172 14.9519C67.9636 14.7536 67.7164 13.8075 68.2767 13.2658L77.5424 4.30905C78.3588 3.51985 79.6501 4.48618 79.1232 5.49205L77.0966 9.361C76.794 9.93869 77.1164 10.6468 77.7508 10.7978L85.2272 12.5779C85.995 12.7607 86.2583 13.7192 85.6917 14.2686L74.7184 24.9094C73.9104 25.693 72.6245 24.7511 73.1279 23.7443L75.9495 18.101C76.2333 17.5333 75.9234 16.8483 75.3096 16.6867Z" fill="#FFEA7A"/>
<path d="M75.3096 16.6867L68.7172 14.9519C67.9636 14.7536 67.7164 13.8075 68.2767 13.2658L77.5424 4.30905C78.3588 3.51985 79.6501 4.48618 79.1232 5.49205L77.0966 9.361C76.794 9.93869 77.1164 10.6468 77.7508 10.7978L85.2272 12.5779C85.995 12.7607 86.2583 13.7192 85.6917 14.2686L74.7184 24.9094C73.9104 25.693 72.6245 24.7511 73.1279 23.7443L75.9495 18.101C76.2333 17.5333 75.9234 16.8483 75.3096 16.6867Z" fill="#FFEA7A"/>
<path d="M75.3096 16.6867L68.7172 14.9519C67.9636 14.7536 67.7164 13.8075 68.2767 13.2658L77.5424 4.30905C78.3588 3.51985 79.6501 4.48618 79.1232 5.49205L77.0966 9.361C76.794 9.93869 77.1164 10.6468 77.7508 10.7978L85.2272 12.5779C85.995 12.7607 86.2583 13.7192 85.6917 14.2686L74.7184 24.9094C73.9104 25.693 72.6245 24.7511 73.1279 23.7443L75.9495 18.101C76.2333 17.5333 75.9234 16.8483 75.3096 16.6867Z" fill="#FFEA7A"/>
</g>
<g id="Vector 15430">
<path d="M8.30956 46.6867L1.71724 44.9519C0.963552 44.7536 0.716368 43.8075 1.27671 43.2658L10.5424 34.3091C11.3588 33.5199 12.6501 34.4862 12.1232 35.492L10.0966 39.361C9.79402 39.9387 10.1164 40.6468 10.7508 40.7978L18.2272 42.5779C18.995 42.7607 19.2583 43.7192 18.6917 44.2686L7.71843 54.9094C6.91036 55.693 5.62447 54.7511 6.12785 53.7443L8.94949 48.101C9.23334 47.5333 8.92336 46.8483 8.30956 46.6867Z" fill="#FFEA7A"/>
<path d="M8.30956 46.6867L1.71724 44.9519C0.963552 44.7536 0.716368 43.8075 1.27671 43.2658L10.5424 34.3091C11.3588 33.5199 12.6501 34.4862 12.1232 35.492L10.0966 39.361C9.79402 39.9387 10.1164 40.6468 10.7508 40.7978L18.2272 42.5779C18.995 42.7607 19.2583 43.7192 18.6917 44.2686L7.71843 54.9094C6.91036 55.693 5.62447 54.7511 6.12785 53.7443L8.94949 48.101C9.23334 47.5333 8.92336 46.8483 8.30956 46.6867Z" fill="#FFEA7A"/>
<path d="M8.30956 46.6867L1.71724 44.9519C0.963552 44.7536 0.716368 43.8075 1.27671 43.2658L10.5424 34.3091C11.3588 33.5199 12.6501 34.4862 12.1232 35.492L10.0966 39.361C9.79402 39.9387 10.1164 40.6468 10.7508 40.7978L18.2272 42.5779C18.995 42.7607 19.2583 43.7192 18.6917 44.2686L7.71843 54.9094C6.91036 55.693 5.62447 54.7511 6.12785 53.7443L8.94949 48.101C9.23334 47.5333 8.92336 46.8483 8.30956 46.6867Z" fill="#FFEA7A"/>
</g>
</g>
</svg>
