<svg width="40" height="40" viewBox="0 0 40 40" fill="none" xmlns="http://www.w3.org/2000/svg">
<g id="icon_&#236;&#151;&#172;&#234;&#182;&#140;">
<circle id="Ellipse 23" cx="20" cy="20" r="20" fill="#F4EEFF"/>
<g id="icon_&#236;&#151;&#172;&#234;&#182;&#140;_2">
<path id="Rectangle 270" d="M10.1245 10.8876C10.1245 9.96141 10.7605 9.15637 11.6615 8.94196L25.7641 5.58609C27.0208 5.28705 28.2271 6.23999 28.2271 7.53177V31.0001C28.2271 32.1046 27.3317 33.0001 26.2271 33.0001H12.1245C11.0199 33.0001 10.1245 32.1046 10.1245 31.0001V10.8876Z" fill="#CFB4F7"/>
<rect id="Rectangle 268" x="10.1245" y="9.30786" width="19.1795" height="23.6924" rx="2" fill="#631EC6"/>
<path id="Union" fill-rule="evenodd" clip-rule="evenodd" d="M25.9193 18.8975C25.9193 22.3245 23.1412 25.1027 19.7142 25.1027C16.2872 25.1027 13.509 22.3245 13.509 18.8975C13.509 15.4705 16.2872 12.6924 19.7142 12.6924C23.1412 12.6924 25.9193 15.4705 25.9193 18.8975ZM24.9062 18.8975C24.9062 19.3801 24.8404 19.8472 24.7173 20.2905H22.0506C22.1618 19.3117 22.1338 18.3728 22.0165 17.5045H24.7173C24.8404 17.9478 24.9062 18.415 24.9062 18.8975ZM20.9939 17.5045C21.1203 18.3651 21.1522 19.3066 21.0284 20.2905H18.6066C18.4828 19.3066 18.5147 18.3651 18.6411 17.5045H20.9939ZM21.8347 16.4915H24.3163C23.6244 15.1709 22.3808 14.1848 20.8916 13.8396C21.249 14.5385 21.5999 15.445 21.8347 16.4915ZM18.7681 13.7915C17.1768 14.0844 15.8395 15.103 15.1121 16.4915H17.8003C18.0405 15.4208 18.4023 14.4967 18.7681 13.7915ZM18.8396 16.4915C19.0925 15.4616 19.464 14.5965 19.8175 13.9818C20.171 14.5965 20.5425 15.4616 20.7954 16.4915H18.8396ZM17.6185 17.5045H14.7111C14.5879 17.9478 14.5221 18.415 14.5221 18.8975C14.5221 19.3801 14.5879 19.8472 14.7111 20.2905H17.5844C17.4732 19.3117 17.5012 18.3728 17.6185 17.5045ZM17.7486 21.3036H15.1121C15.8295 22.6729 17.1401 23.6825 18.7026 23.9911C18.2414 23.0865 17.9347 22.1837 17.7486 21.3036ZM20.9585 23.9395C22.418 23.5805 23.6348 22.6044 24.3163 21.3036H21.8864C21.7038 22.167 21.4052 23.0522 20.9585 23.9395ZM20.8465 21.3036H18.7885C18.9902 22.1642 19.3205 23.0462 19.8175 23.9259C20.3145 23.0462 20.6448 22.1642 20.8465 21.3036Z" fill="white"/>
<rect id="Rectangle 269" x="14.0732" y="27.9229" width="11.2821" height="1.12821" rx="0.564104" fill="white"/>
</g>
</g>
</svg>
