<svg width="34" height="26" viewBox="0 0 34 26" fill="none" xmlns="http://www.w3.org/2000/svg">
<g id="illust_&#236;&#156;&#160;&#236;&#134;&#140;&#236;&#149;&#132;">
<path id="Vector 559" d="M0.957928 3.13308L3.89693 2.42589C4.38677 2.30802 4.88479 2.58126 5.19104 2.98132C5.89598 3.90221 7.34205 4.89791 9.7351 4.51887C12.161 4.13462 13.2758 2.69946 13.6902 1.59271C13.8614 1.13563 14.2431 0.744479 14.7296 0.705445L17.9029 0.450841C18.4236 0.409059 18.8888 0.77519 18.9705 1.2912L19.2458 3.02935C19.3322 3.57484 18.9601 4.08708 18.4146 4.17348L17.3596 4.3406C16.7346 4.43959 16.3567 5.08628 16.5698 5.6821C17.2167 7.49057 18.1129 10.1609 18.4485 11.7599C18.9713 14.2506 18.7716 18.6572 18.436 18.9677C18.1004 19.2782 15.9736 19.6151 15.3083 19.4631C14.643 19.3111 14.2477 17.2883 14.1401 16.946C14 16.5 13.7309 15.9814 11.6041 16.3183C9.47723 16.6551 9.5 17 9.38608 17.699C9.29489 18.2584 9.40841 20.2689 8.94774 20.5992C8.48708 20.9296 6.48537 21.2466 5.94518 21.0748C5.40498 20.903 3.83916 15.8754 3.68591 14.0982C3.58464 12.9239 3.59439 9.83554 3.62079 7.70549C3.6285 7.08346 3.07515 6.60316 2.46073 6.70048L1.62393 6.83303C1.07844 6.91943 0.566197 6.54727 0.479796 6.00178L0.204189 4.26178C0.122578 3.74654 0.450743 3.25513 0.957928 3.13308Z" fill="#9250F1"/>
<g id="Vector">
<path d="M29.5432 11.4771L23.3756 10.2589C23.0295 10.5612 21.1924 15.5294 20.9543 19.3408C20.7163 23.1522 23.9732 23.6101 26.6274 24.1142C29.2815 24.6182 31.5396 23.2835 31.5981 20.6788C31.6563 18.0907 29.5065 17.595 28.0882 17.3126L29.5432 11.4771Z" fill="#9250F1"/>
<path d="M29.5432 11.4771L23.3756 10.2589C23.2313 10.3849 22.8276 11.3222 22.3889 12.6486L28.9735 13.7619L29.5432 11.4771Z" fill="#B687FB"/>
<path d="M31.5829 21.2131C31.0456 23.6768 29.8434 23.7373 28.5625 23.458C27.2816 23.1786 26.5138 21.7113 26.8476 20.1805C27.1814 18.6498 28.4904 17.6353 29.7713 17.9146C31.0522 18.1939 31.9167 19.6824 31.5829 21.2131Z" fill="#B687FB"/>
</g>
</g>
</svg>
