<svg width="32" height="32" viewBox="0 0 32 32" fill="none" xmlns="http://www.w3.org/2000/svg">
<g id="icon_&#236;&#181;&#156;&#236;&#134;&#140;&#236;&#136;&#152;&#237;&#149;&#152;&#235;&#172;&#188;">
<rect id="Rectangle 211" width="32" height="32" rx="4" fill="#FAF9FC"/>
<g id="&#8;illust_&#236;&#181;&#156;&#236;&#134;&#140;&#236;&#136;&#152;&#237;&#149;&#152;&#235;&#172;&#188;">
<rect id="Rectangle 226" x="14" y="9" width="4" height="4" fill="#CAAAF8"/>
<path id="Rectangle 227" d="M8 5H24C24 7.20914 22.2091 9 20 9H12C9.79086 9 8 7.20914 8 5Z" fill="#CAAAF8"/>
<rect id="Rectangle 228" x="7" y="4" width="18" height="2" rx="1" fill="#9250F1"/>
<path id="Rectangle 225" d="M7 19C7 14.0294 11.0294 10 16 10C20.9706 10 25 14.0294 25 19V24.9231C25 26.6224 23.6224 28 21.9231 28H10.0769C8.37759 28 7 26.6224 7 24.9231V19Z" fill="#9250F1"/>
<circle id="Ellipse 21" cx="16" cy="19" r="6" fill="#CAAAF8"/>
<circle id="Ellipse 22" cx="16" cy="19" r="1" fill="#FAF9FC"/>
<path id="Vector 15406" d="M16 14.5V18.5" stroke="#FAF9FC" stroke-linecap="round"/>
</g>
</g>
</svg>
