<svg width="20" height="30" viewBox="0 0 20 30" fill="current" xmlns="http://www.w3.org/2000/svg">
<path fill-rule="evenodd" clip-rule="evenodd" d="M5.38462 2.85714C5.38462 1.27919 6.7622 0 8.46154 0H11.5385C13.2378 0 14.6154 1.27919 14.6154 2.85715V7.19692C14.6154 7.28542 14.6111 7.37299 14.6026 7.45944H17.6923C18.9668 7.45944 20 8.41883 20 9.6023V26.3977C20 27.5812 18.9668 28.5405 17.6923 28.5405H16.1538C16.1538 29.3466 15.379 30 14.4231 30C13.4672 30 12.6923 29.3466 12.6923 28.5405H7.30769C7.30769 29.3466 6.5328 30 5.57692 30C4.62105 30 3.84615 29.3466 3.84615 28.5405H2.30769C1.03319 28.5405 0 27.5812 0 26.3977V9.6023C0 8.41883 1.03319 7.45944 2.30769 7.45944H5.39743C5.38895 7.37299 5.38462 7.28542 5.38462 7.19692V2.85714ZM9.42308 1.94592C8.57341 1.94592 7.88462 2.58551 7.88462 3.37449V7.45943H12.3077V3.37449C12.3077 2.58551 11.6189 1.94592 10.7692 1.94592H9.42308Z" fill="current"/>
</svg>
