<svg width="17" height="17" viewBox="0 0 17 17" fill="none" xmlns="http://www.w3.org/2000/svg">
<path d="M8.50004 14.1666C6.9181 14.1666 5.57817 13.6177 4.48025 12.5198C3.38233 11.4219 2.83337 10.0819 2.83337 8.49998C2.83337 6.91804 3.38233 5.5781 4.48025 4.48019C5.57817 3.38227 6.9181 2.83331 8.50004 2.83331C9.31462 2.83331 10.0938 3.00154 10.8375 3.338C11.5813 3.67446 12.2188 4.15554 12.75 4.78123V2.83331H14.1667V7.79165H9.20837V6.37498H12.1834C11.8056 5.71387 11.2891 5.19442 10.6339 4.81665C9.97869 4.43887 9.2674 4.24998 8.50004 4.24998C7.31949 4.24998 6.31601 4.66317 5.48962 5.48956C4.66324 6.31595 4.25004 7.31942 4.25004 8.49998C4.25004 9.68054 4.66324 10.684 5.48962 11.5104C6.31601 12.3368 7.31949 12.75 8.50004 12.75C9.40907 12.75 10.2296 12.4903 10.9615 11.9708C11.6934 11.4514 12.207 10.7666 12.5021 9.91665H13.9896C13.6591 11.168 12.9862 12.1892 11.9709 12.9802C10.9556 13.7712 9.79865 14.1666 8.50004 14.1666Z" fill="#631EC6"/>
</svg>
