<svg width="64" height="64" viewBox="0 0 64 64" fill="none" xmlns="http://www.w3.org/2000/svg"><rect width="64" height="64" rx="11" fill="#631EC6"/><path d="m32.135 25.913-5.208-7.618a1.197 1.197 0 0 0-1.036-.628h-2.353c-.67 0-1.213.58-1.204 1.304.04 3.44.251 11.24 1.342 16.355.05.272.113.54.188.801.088.343.181.66.28.945.114.328.253.571.413.74 1.27 2.308 3.6 3.855 6.263 3.855h14.565c4.021 0 7.282-3.527 7.282-7.877s-3.26-7.877-7.282-7.877h-13.25Z" fill="#F5F5F5"/><path d="M30.334 47.667v-6.905a1 1 0 0 1 .826-.985l6.548-1.157a1 1 0 0 1 1.127 1.287l-2.553 8.062a1 1 0 0 1-.953.698h-3.995a1 1 0 0 1-1-1ZM17.666 24.833c0-.46.374-.833.834-.833h6.333a.833.833 0 0 1 0 1.667H18.5a.833.833 0 0 1-.834-.834Zm-8 4.667c0-.46.374-.833.834-.833h14.333a.833.833 0 0 1 0 1.666H10.5a.833.833 0 0 1-.834-.833ZM16 32.833c0-.46.373-.833.833-.833h8a.833.833 0 1 1 0 1.667h-8a.833.833 0 0 1-.833-.834Zm0 4.667c0-.46.373-.833.833-.833h8a.833.833 0 1 1 0 1.666h-8A.833.833 0 0 1 16 37.5Zm-6.334 0c0-.46.374-.833.834-.833h3a.833.833 0 1 1 0 1.666h-3a.833.833 0 0 1-.834-.833Z" fill="#F5F5F5"/><path d="M17.666 31.167c0-.46.374-.834.834-.834h9.333a.833.833 0 0 1 0 1.667H18.5a.833.833 0 0 1-.834-.833Zm3-7.667c0-.644.523-1.167 1.167-1.167H27.5a1.167 1.167 0 1 1 0 2.334h-5.667a1.167 1.167 0 0 1-1.166-1.167Zm-8 1.333c0-.46.374-.833.834-.833h1.666a.833.833 0 0 1 0 1.667H13.5a.833.833 0 0 1-.834-.834Z" fill="#F5F5F5"/></svg>