<svg width="307" height="135" viewBox="0 0 307 135" fill="none" xmlns="http://www.w3.org/2000/svg"><path class="area" d="M1 55.365V16a2 2 0 0 1 2-2h301a2 2 0 0 1 2 2v16.65a2 2 0 0 1-2 2h-13.186c-.532 0-1.041.212-1.417.588l-18.276 18.327a2 2 0 0 1-1.416.588h-1.975a2 2 0 0 0-2 2v15.988a2 2 0 0 0 .584 1.412l3.637 3.647a2 2 0 0 1 .584 1.413v16.845c0 .884.717 1.601 1.602 1.601.884 0 1.601.717 1.601 1.602v2.074c0 .884-.717 1.602-1.601 1.602-.885 0-1.602.717-1.602 1.601v1.013a2 2 0 0 0 .584 1.413l24.156 24.224c1.258 1.26.365 3.412-1.416 3.412h-28.646a2 2 0 0 1-2-2v-24.222a2 2 0 0 0-2-2h-7.72c-.824 0-1.492.668-1.492 1.492a1.49 1.49 0 0 1-1.491 1.491h-35.228a1.49 1.49 0 0 1-1.491-1.491c0-.824-.668-1.492-1.492-1.492h-11.61a2 2 0 0 0-2 2V132a2 2 0 0 1-2 2h-32.151a2 2 0 0 1-2-2v-24.222a2 2 0 0 0-2-2h-11.839c-.823 0-1.491.668-1.491 1.492 0 .823-.668 1.491-1.492 1.491h-45.473a2 2 0 0 0-2 2V132a2 2 0 0 1-2 2H67.597c-1.78 0-2.673-2.152-1.416-3.412l24.156-24.224a2 2 0 0 0 .584-1.413v-25.88a2 2 0 0 1 .584-1.412l2.95-2.959a2 2 0 0 0 .585-1.412V59.365a2 2 0 0 0-2-2H3a2 2 0 0 1-2-2Z" fill="#FCFCFC" stroke="#DEDEDE"/><path d="M1 55.365V16a2 2 0 0 1 2-2h301a2 2 0 0 1 2 2v16.65a2 2 0 0 1-2 2h-13.186c-.532 0-1.041.212-1.417.588l-18.276 18.327a2 2 0 0 1-1.416.588h-2.369c-.887 0-1.606.719-1.606 1.606 0 .887-.719 1.606-1.606 1.606H3a2 2 0 0 1-2-2Z" fill="#E9DAFF" stroke="#966ECF"/><path d="m10.418 6.355-.75-.183.309-2.86h3.066v.797h-2.285l-.156 1.395c.088-.052.21-.103.367-.152a1.69 1.69 0 0 1 .535-.079c.268 0 .508.045.719.133.213.086.394.212.543.38.148.163.261.364.34.6.078.235.117.5.117.794 0 .263-.04.509-.118.738a1.72 1.72 0 0 1-.343.605 1.58 1.58 0 0 1-.582.41 2.14 2.14 0 0 1-.825.145c-.237 0-.464-.034-.683-.101a1.863 1.863 0 0 1-.582-.309 1.574 1.574 0 0 1-.414-.508 1.742 1.742 0 0 1-.18-.7h.922c.023.186.074.343.152.474a.82.82 0 0 0 .32.293c.133.067.287.101.462.101a.944.944 0 0 0 .41-.082.776.776 0 0 0 .285-.242 1.08 1.08 0 0 0 .172-.375c.039-.143.058-.302.058-.477a1.49 1.49 0 0 0-.066-.457.991.991 0 0 0-.191-.36.819.819 0 0 0-.317-.233 1.068 1.068 0 0 0-.441-.086c-.224 0-.396.032-.516.097a1.615 1.615 0 0 0-.328.242Zm48.93.618v.75h-4.102l-.031-.567 2.453-3.843h.754l-.816 1.398-1.41 2.262h3.152Zm-.711-3.66V9h-.942V3.312h.942Zm84.898 2.417h.563c.218 0 .399-.037.543-.113a.741.741 0 0 0 .324-.312.966.966 0 0 0 .105-.457c0-.18-.032-.334-.097-.461a.663.663 0 0 0-.289-.301 1.008 1.008 0 0 0-.489-.106.999.999 0 0 0-.453.102.767.767 0 0 0-.433.711h-.946c0-.302.08-.57.239-.805a1.61 1.61 0 0 1 .648-.55c.276-.136.586-.204.93-.204.367 0 .687.062.961.184.276.12.491.3.644.539.154.24.231.536.231.89 0 .162-.038.326-.114.493a1.414 1.414 0 0 1-.336.457 1.75 1.75 0 0 1-.554.332 2.182 2.182 0 0 1-.77.125h-.707V5.73Zm0 .735v-.516h.707c.334 0 .617.04.852.117.237.079.429.187.578.325.148.135.256.29.324.464a1.68 1.68 0 0 1-.039 1.266 1.45 1.45 0 0 1-.402.524 1.798 1.798 0 0 1-.614.324c-.231.073-.484.11-.757.11-.245 0-.48-.035-.704-.102a1.925 1.925 0 0 1-.601-.301 1.491 1.491 0 0 1-.422-.504 1.546 1.546 0 0 1-.152-.703h.941c0 .169.039.319.117.449a.84.84 0 0 0 .336.3c.146.074.313.11.5.11.198 0 .369-.035.512-.105a.731.731 0 0 0 .328-.313c.078-.138.117-.305.117-.5 0-.221-.043-.4-.129-.539a.757.757 0 0 0-.367-.305 1.426 1.426 0 0 0-.562-.101h-.563Zm5.761.343a7.2 7.2 0 0 1 .112-1.28c.08-.416.2-.813.36-1.192.165-.379.373-.728.624-1.048h.768c-.229.33-.421.688-.576 1.072a6.493 6.493 0 0 0-.352 1.192 6.932 6.932 0 0 0 0 2.472c.08.405.197.795.352 1.168.155.379.344.736.568 1.072h-.76a4.683 4.683 0 0 1-.624-1.032 5.61 5.61 0 0 1-.36-1.168 6.977 6.977 0 0 1-.112-1.256Zm3.319-4.08h4.656v.544h-4.656v-.544Zm-.832 2.592h6.552v.544h-6.552V5.32Zm2.936.368h.656v1.704h-.656V5.688Zm2.12-2.96h.648v.536c0 .6 0 1.328-.24 2.32l-.648-.08c.24-.968.24-1.656.24-2.24v-.536Zm-4.376 4.448h5.072v2.448h-.664V7.72h-4.408v-.544Zm12.175-4.784h.64v7.232h-.64V2.392Zm-2.632 2.592h1.384v.552h-1.384v-.552Zm1.184-2.424h.624v6.696h-.624V2.56Zm-2.576.952h.512v.92c0 1.584-.608 3.08-1.672 3.752l-.408-.496c1.008-.608 1.568-1.928 1.568-3.256v-.92Zm.136 0h.512v.92c0 1.256.544 2.512 1.536 3.088l-.408.488c-1.056-.64-1.64-2.064-1.64-3.576v-.92Zm-1.504-.28h3.304v.552h-3.304v-.552Zm10.96.864h1.824v.552h-1.824v-.552Zm-1.896-1.264h.536v.888c0 1.4-.784 2.568-1.992 3.056l-.344-.528c1.072-.4 1.8-1.424 1.8-2.528v-.888Zm.128 0h.536v.912c0 1.008.704 1.96 1.752 2.344l-.36.512a3.045 3.045 0 0 1-1.928-2.856v-.912Zm3.344-.432h.664v5.408h-.664V2.4Zm-3.984 6.52h4.824v.544h-4.824V8.92Zm0-1.712h.664v1.968h-.664V7.208Zm7.743-.4c0 .427-.037.845-.112 1.256-.075.41-.192.8-.352 1.168a4.33 4.33 0 0 1-.624 1.032h-.76a6.076 6.076 0 0 0 .912-2.24c.08-.405.12-.813.12-1.224 0-.421-.04-.837-.12-1.248a6.105 6.105 0 0 0-.344-1.192 4.907 4.907 0 0 0-.576-1.072h.768c.256.32.464.67.624 1.048.16.379.277.776.352 1.192a7.2 7.2 0 0 1 .112 1.28Zm8.994-1.078h.563c.218 0 .399-.037.543-.113a.741.741 0 0 0 .324-.312.966.966 0 0 0 .105-.457c0-.18-.032-.334-.097-.461a.663.663 0 0 0-.289-.301 1.008 1.008 0 0 0-.489-.106.999.999 0 0 0-.453.102.767.767 0 0 0-.433.711h-.946c0-.302.08-.57.239-.805a1.61 1.61 0 0 1 .648-.55c.276-.136.586-.204.93-.204.367 0 .687.062.961.184.276.12.491.3.644.539.154.24.231.536.231.89 0 .162-.038.326-.114.493a1.414 1.414 0 0 1-.336.457 1.75 1.75 0 0 1-.554.332 2.182 2.182 0 0 1-.77.125h-.707V5.73Zm0 .735v-.516h.707c.334 0 .617.04.852.117.237.079.429.187.578.325.148.135.256.29.324.464a1.68 1.68 0 0 1-.039 1.266 1.45 1.45 0 0 1-.402.524 1.798 1.798 0 0 1-.614.324c-.231.073-.484.11-.757.11-.245 0-.48-.035-.704-.102a1.925 1.925 0 0 1-.601-.301 1.491 1.491 0 0 1-.422-.504 1.546 1.546 0 0 1-.152-.703h.941c0 .169.039.319.117.449a.84.84 0 0 0 .336.3c.146.074.313.11.5.11.198 0 .369-.035.512-.105a.731.731 0 0 0 .328-.313c.078-.138.117-.305.117-.5 0-.221-.043-.4-.129-.539a.757.757 0 0 0-.367-.305 1.426 1.426 0 0 0-.562-.101h-.563Zm5.761.343a7.2 7.2 0 0 1 .112-1.28c.08-.416.2-.813.36-1.192.165-.379.373-.728.624-1.048h.768c-.229.33-.421.688-.576 1.072a6.493 6.493 0 0 0-.352 1.192 6.932 6.932 0 0 0 0 2.472c.08.405.197.795.352 1.168.155.379.344.736.568 1.072h-.76a4.683 4.683 0 0 1-.624-1.032 5.61 5.61 0 0 1-.36-1.168 6.977 6.977 0 0 1-.112-1.256Zm3.319-4.08h4.656v.544h-4.656v-.544Zm-.832 2.592h6.552v.544h-6.552V5.32Zm2.936.368h.656v1.704h-.656V5.688Zm2.12-2.96h.648v.536c0 .6 0 1.328-.24 2.32l-.648-.08c.24-.968.24-1.656.24-2.24v-.536Zm-4.376 4.448h5.072v2.448h-.664V7.72h-4.408v-.544Zm12.167-4.784h.64v7.232h-.64V2.392Zm-1.216 2.944h1.392v.544h-1.392v-.544Zm-.424-2.784h.624v6.704h-.624V2.552Zm-3.504.712h.664V7.44h-.664V3.264Zm0 3.912h.464c.744 0 1.576-.048 2.52-.232l.072.576a13.05 13.05 0 0 1-2.592.232h-.464v-.576Zm10.72-3.08h1.824v.552h-1.824v-.552Zm-1.896-1.264h.536v.888c0 1.4-.784 2.568-1.992 3.056l-.344-.528c1.072-.4 1.8-1.424 1.8-2.528v-.888Zm.128 0h.536v.912c0 1.008.704 1.96 1.752 2.344l-.36.512a3.045 3.045 0 0 1-1.928-2.856v-.912Zm3.344-.432h.664v5.408h-.664V2.4Zm-3.984 6.52h4.824v.544h-4.824V8.92Zm0-1.712h.664v1.968h-.664V7.208Zm7.743-.4c0 .427-.037.845-.112 1.256-.075.41-.192.8-.352 1.168a4.33 4.33 0 0 1-.624 1.032h-.76a6.076 6.076 0 0 0 .912-2.24c.08-.405.12-.813.12-1.224 0-.421-.04-.837-.12-1.248a6.105 6.105 0 0 0-.344-1.192 4.907 4.907 0 0 0-.576-1.072h.768c.256.32.464.67.624 1.048.16.379.277.776.352 1.192a7.2 7.2 0 0 1 .112 1.28Zm11.701 1.442V9h-3.812v-.645l1.851-2.02c.203-.228.364-.426.481-.593a1.93 1.93 0 0 0 .246-.449c.049-.135.074-.267.074-.395 0-.18-.034-.337-.102-.472a.74.74 0 0 0-.289-.324.848.848 0 0 0-.464-.122.975.975 0 0 0-.532.137.856.856 0 0 0-.324.38 1.296 1.296 0 0 0-.109.546h-.942c0-.33.076-.633.227-.906a1.66 1.66 0 0 1 .656-.657c.287-.164.632-.246 1.035-.246.38 0 .703.064.969.192.266.127.467.308.605.543.141.234.211.511.211.832 0 .177-.028.353-.085.527-.058.175-.14.35-.247.524a4.378 4.378 0 0 1-.371.52 9.17 9.17 0 0 1-.472.523l-1.231 1.355h2.625Zm3.054-1.442a7.2 7.2 0 0 1 .112-1.28c.08-.416.2-.813.36-1.192.165-.379.373-.728.624-1.048h.768c-.229.33-.421.688-.576 1.072a6.493 6.493 0 0 0-.352 1.192 6.932 6.932 0 0 0 0 2.472c.08.405.197.795.352 1.168.155.379.344.736.568 1.072h-.76a4.683 4.683 0 0 1-.624-1.032 5.61 5.61 0 0 1-.36-1.168 6.977 6.977 0 0 1-.112-1.256Zm3.319-4.08h4.656v.544h-4.656v-.544Zm-.832 2.592h6.552v.544h-6.552V5.32Zm2.936.368h.656v1.704h-.656V5.688Zm2.12-2.96h.648v.536c0 .6 0 1.328-.24 2.32l-.648-.08c.24-.968.24-1.656.24-2.24v-.536Zm-4.376 4.448h5.072v2.448h-.664V7.72h-4.408v-.544Zm12.167-4.784h.64v7.232h-.64V2.392Zm-1.216 2.944h1.392v.544h-1.392v-.544Zm-.424-2.784h.624v6.704h-.624V2.552Zm-3.504.712h.664V7.44h-.664V3.264Zm0 3.912h.464c.744 0 1.576-.048 2.52-.232l.072.576a13.05 13.05 0 0 1-2.592.232h-.464v-.576Zm10.72-3.08h1.824v.552h-1.824v-.552Zm-1.896-1.264h.536v.888c0 1.4-.784 2.568-1.992 3.056l-.344-.528c1.072-.4 1.8-1.424 1.8-2.528v-.888Zm.128 0h.536v.912c0 1.008.704 1.96 1.752 2.344l-.36.512a3.045 3.045 0 0 1-1.928-2.856v-.912Zm3.344-.432h.664v5.408h-.664V2.4Zm-3.984 6.52h4.824v.544h-4.824V8.92Zm0-1.712h.664v1.968h-.664V7.208Zm7.743-.4c0 .427-.037.845-.112 1.256-.075.41-.192.8-.352 1.168a4.33 4.33 0 0 1-.624 1.032h-.76a6.076 6.076 0 0 0 .912-2.24c.08-.405.12-.813.12-1.224 0-.421-.04-.837-.12-1.248a6.105 6.105 0 0 0-.344-1.192 4.907 4.907 0 0 0-.576-1.072h.768c.256.32.464.67.624 1.048.16.379.277.776.352 1.192a7.2 7.2 0 0 1 .112 1.28ZM275 3.293V9h-.941V4.41l-1.395.473v-.778l2.223-.812H275Zm4.296 3.515a7.2 7.2 0 0 1 .112-1.28c.08-.416.2-.813.36-1.192.165-.379.373-.728.624-1.048h.768c-.229.33-.421.688-.576 1.072a6.493 6.493 0 0 0-.352 1.192 6.932 6.932 0 0 0 0 2.472c.08.405.197.795.352 1.168.155.379.344.736.568 1.072h-.76a4.683 4.683 0 0 1-.624-1.032 5.61 5.61 0 0 1-.36-1.168 6.977 6.977 0 0 1-.112-1.256Zm3.319-4.08h4.656v.544h-4.656v-.544Zm-.832 2.592h6.552v.544h-6.552V5.32Zm2.936.368h.656v1.704h-.656V5.688Zm2.12-2.96h.648v.536c0 .6 0 1.328-.24 2.32l-.648-.08c.24-.968.24-1.656.24-2.24v-.536Zm-4.376 4.448h5.072v2.448h-.664V7.72h-4.408v-.544Zm12.167-4.784h.64v7.232h-.64V2.392Zm-1.216 2.944h1.392v.544h-1.392v-.544Zm-.424-2.784h.624v6.704h-.624V2.552Zm-3.504.712h.664V7.44h-.664V3.264Zm0 3.912h.464c.744 0 1.576-.048 2.52-.232l.072.576a13.05 13.05 0 0 1-2.592.232h-.464v-.576Zm10.72-3.08h1.824v.552h-1.824v-.552Zm-1.896-1.264h.536v.888c0 1.4-.784 2.568-1.992 3.056l-.344-.528c1.072-.4 1.8-1.424 1.8-2.528v-.888Zm.128 0h.536v.912c0 1.008.704 1.96 1.752 2.344l-.36.512a3.045 3.045 0 0 1-1.928-2.856v-.912Zm3.344-.432h.664v5.408h-.664V2.4Zm-3.984 6.52h4.824v.544h-4.824V8.92Zm0-1.712h.664v1.968h-.664V7.208Zm7.743-.4c0 .427-.037.845-.112 1.256-.075.41-.192.8-.352 1.168a4.33 4.33 0 0 1-.624 1.032h-.76a6.076 6.076 0 0 0 .912-2.24c.08-.405.12-.813.12-1.224 0-.421-.04-.837-.12-1.248a6.105 6.105 0 0 0-.344-1.192 4.907 4.907 0 0 0-.576-1.072h.768c.256.32.464.67.624 1.048.16.379.277.776.352 1.192a7.2 7.2 0 0 1 .112 1.28Z" fill="#C5C5C5"/></svg>