<svg width="298" height="105" viewBox="0 0 298 105" fill="none" xmlns="http://www.w3.org/2000/svg"><path class="area" d="M3 18.228h2.81a2 2 0 0 0 2-2V13a2 2 0 0 1 2-2h177.443a2 2 0 0 1 2 2v36.477a2 2 0 0 1-2 2h-6.702a2 2 0 0 0-2 2V71.16a2 2 0 0 0 2 2h77.966a2 2 0 0 0 2-2v-3.95a2 2 0 0 0-2-2h-1.351a2 2 0 0 1-2-2v-6.36a2 2 0 0 1 2-2H295a2 2 0 0 1 2 2V102a2 2 0 0 1-2 2H167.904a2 2 0 0 1-2-2V86.243a2 2 0 0 0-2-2h-5.729a2 2 0 0 0-2 2V102a2 2 0 0 1-2 2H42.888a2 2 0 0 1-2-2V86.243a2 2 0 0 0-2-2h-7.674a2 2 0 0 1-2-2v-5.155a2 2 0 0 0-2-2h-8.161a2 2 0 0 1-2-2V53.477a2 2 0 0 0-2-2h-1.18a1.928 1.928 0 0 1-1.928-1.928 1.927 1.927 0 0 0-1.928-1.927H3a2 2 0 0 1-2-2V20.228a2 2 0 0 1 2-2Z" fill="#FCFCFC" stroke="#DEDEDE"/><path d="M3 18.228h2.81a2 2 0 0 0 2-2V13a2 2 0 0 1 2-2h177.443a2 2 0 0 1 2 2v36.477a2 2 0 0 1-2 2h-6.702a2 2 0 0 0-2 2V73.16a1.927 1.927 0 0 1-1.927 1.927H19.053a2 2 0 0 1-2-2v-19.61a2 2 0 0 0-2-2h-1.18a1.928 1.928 0 0 1-1.928-1.928 1.927 1.927 0 0 0-1.928-1.927H3a2 2 0 0 1-2-2V20.228a2 2 0 0 1 2-2Z" fill="#E9DAFF" stroke="#966ECF"/><path d="M39.872 6h-.864V1.84a7.46 7.46 0 0 0 .008-.336l.016-.32c-.064.07-.13.139-.2.208l-.232.216-.576.504-.456-.544 1.56-1.28h.744V6Zm74.104 0h-3.648v-.656l1.384-1.496c.267-.293.488-.547.664-.76a2.77 2.77 0 0 0 .392-.624c.091-.203.136-.421.136-.656 0-.293-.077-.512-.232-.656-.149-.15-.347-.224-.592-.224-.24 0-.456.05-.648.152a3.07 3.07 0 0 0-.6.408L110.36.92c.149-.133.307-.253.472-.36a2.4 2.4 0 0 1 .568-.256 2.5 2.5 0 0 1 .72-.096c.341 0 .635.064.88.192.251.123.443.299.576.528.139.23.208.499.208.808 0 .23-.035.443-.104.64a2.38 2.38 0 0 1-.288.584 5.07 5.07 0 0 1-.448.592c-.171.197-.36.41-.568.64l-.944 1.016v.04h2.544V6Zm30 14h-3.648v-.656l1.384-1.496c.267-.293.488-.547.664-.76a2.77 2.77 0 0 0 .392-.624c.091-.203.136-.421.136-.656 0-.293-.077-.512-.232-.656-.149-.15-.347-.224-.592-.224-.24 0-.456.05-.648.152a3.07 3.07 0 0 0-.6.408l-.472-.568c.149-.133.307-.253.472-.36a2.4 2.4 0 0 1 .568-.256 2.5 2.5 0 0 1 .72-.096c.341 0 .635.064.88.192.251.123.443.299.576.528.139.23.208.499.208.808 0 .23-.035.443-.104.64a2.38 2.38 0 0 1-.288.584 5.13 5.13 0 0 1-.448.592c-.171.197-.36.41-.568.64l-.944 1.016v.04h2.544V20Zm-1.104 14h-.864v-4.16a7.93 7.93 0 0 0 .008-.336l.016-.32a7.7 7.7 0 0 1-.2.208l-.232.216-.576.504-.456-.544 1.56-1.28h.744V34Zm52.896-18.392c0 .256-.048.48-.144.672a1.22 1.22 0 0 1-.4.456 1.661 1.661 0 0 1-.592.256v.032c.437.053.763.197.976.432.219.23.328.533.328.912 0 .33-.075.627-.224.888-.149.256-.381.459-.696.608-.309.144-.707.216-1.192.216-.293 0-.563-.024-.808-.072a2.761 2.761 0 0 1-.696-.24V19a3 3 0 0 0 .72.28c.261.064.507.096.736.096.443 0 .76-.09.952-.272.192-.187.288-.445.288-.776a.838.838 0 0 0-.152-.52.866.866 0 0 0-.464-.304 2.546 2.546 0 0 0-.792-.104h-.464v-.696h.472c.299 0 .541-.04.728-.12a.859.859 0 0 0 .416-.352.964.964 0 0 0 .136-.512c0-.256-.077-.453-.232-.592-.149-.144-.365-.216-.648-.216a1.892 1.892 0 0 0-.92.232c-.123.07-.237.147-.344.232l-.408-.584c.133-.107.285-.205.456-.296a2.805 2.805 0 0 1 1.264-.288c.56 0 .984.13 1.272.392.288.256.432.592.432 1.008Zm.408 15.128h-.728V32h-.848v-1.264h-2.456v-.672l2.448-3.8h.856v3.752h.728v.72Zm-1.576-2.272v-.368l.016-.336c.005-.112.008-.213.008-.304l.016-.256h-.032a3.545 3.545 0 0 1-.152.328c-.053.112-.107.21-.16.296l-1.344 2.192h1.648v-1.552Zm-.44 11.992c.347 0 .651.067.912.2.267.133.475.325.624.576.149.25.224.557.224.92 0 .4-.08.744-.24 1.032a1.6 1.6 0 0 1-.704.664c-.304.155-.677.232-1.12.232-.283 0-.547-.027-.792-.08a2.201 2.201 0 0 1-.632-.232v-.776c.181.112.403.203.664.272.261.07.507.104.736.104.245 0 .456-.04.632-.12a.923.923 0 0 0 .416-.376 1.24 1.24 0 0 0 .152-.64c0-.347-.099-.61-.296-.792-.197-.187-.507-.28-.928-.28-.144 0-.299.013-.464.04a5.11 5.11 0 0 0-.408.08l-.384-.232.2-2.76h2.792v.752h-2.04l-.112 1.496c.085-.016.189-.032.312-.048.128-.021.28-.032.456-.032Z" fill="#C5C5C5"/></svg>