<svg width="345" height="316" viewBox="0 0 345 316" fill="none" xmlns="http://www.w3.org/2000/svg"><rect width="345" height="316" rx="6" fill="#FAF9FC"/><path d="M19 156.347c0-43.078 55.684-40.515 98.139-45.954.241-.031.47-.105.684-.219L232.5 48.847c9.333-5.167 32.2-12.4 49 0 16.8 12.4 14.333 33.833 11 43-13.333 27.5-43 86.8-55 104-12 17.2-33 21.833-42 22H55.206c-.137 0-.268-.013-.402-.042C42.74 215.242 19 205.578 19 156.347Z" fill="#E9DAFF" stroke="#966ECF"/><mask id="a" fill="#fff"><path fill-rule="evenodd" clip-rule="evenodd" d="M153 238.847a2 2 0 0 0-2-2H89a2 2 0 0 0-2 2v21a2 2 0 0 1-2 2H66a2 2 0 0 0-2 2v6a2 2 0 0 0 2 2h108a2 2 0 0 0 2-2v-6a2 2 0 0 0-2-2h-19a2 2 0 0 1-2-2v-21Z"/></mask><path fill-rule="evenodd" clip-rule="evenodd" d="M153 238.847a2 2 0 0 0-2-2H89a2 2 0 0 0-2 2v21a2 2 0 0 1-2 2H66a2 2 0 0 0-2 2v6a2 2 0 0 0 2 2h108a2 2 0 0 0 2-2v-6a2 2 0 0 0-2-2h-19a2 2 0 0 1-2-2v-21Z" fill="#E7E7E7"/><path d="M89 237.847h62v-2H89v2Zm-1 22v-21h-2v21h2Zm-22 3h19v-2H66v2Zm-1 7v-6h-2v6h2Zm109 1H66v2h108v-2Zm1-7v6h2v-6h-2Zm-20-1h19v-2h-19v2Zm-3-24v21h2v-21h-2Zm3 22a1 1 0 0 1-1-1h-2a3 3 0 0 0 3 3v-2Zm22 3a3 3 0 0 0-3-3v2a1 1 0 0 1 1 1h2Zm-3 9a3 3 0 0 0 3-3h-2a1 1 0 0 1-1 1v2Zm-111-3a3 3 0 0 0 3 3v-2a1 1 0 0 1-1-1h-2Zm3-9a3 3 0 0 0-3 3h2a1 1 0 0 1 1-1v-2Zm20-1a1 1 0 0 1-1 1v2a3 3 0 0 0 3-3h-2Zm65-22a1 1 0 0 1 1 1h2a3 3 0 0 0-3-3v2Zm-62-2a3 3 0 0 0-3 3h2a1 1 0 0 1 1-1v-2Z" fill="#E7E7E7" mask="url(#a)"/><path d="M104.848 249.439h6.984v.816h-6.984v-.816Zm-1.248 3.888h9.828v.816H103.6v-.816Zm4.404.552h.984v2.556h-.984v-2.556Zm3.18-4.44h.972v.804c0 .9 0 1.992-.36 3.48l-.972-.12c.36-1.452.36-2.484.36-3.36v-.804Zm-6.564 6.672h7.608v3.672h-.996v-2.856h-6.612v-.816Zm18.263-7.176h.96v10.848h-.96v-10.848Zm-3.948 3.888h2.076v.828h-2.076v-.828Zm1.776-3.636h.936v10.044h-.936v-10.044Zm-3.864 1.428h.768v1.38c0 2.376-.912 4.62-2.508 5.628l-.612-.744c1.512-.912 2.352-2.892 2.352-4.884v-1.38Zm.204 0h.768v1.38c0 1.884.816 3.768 2.304 4.632l-.612.732c-1.584-.96-2.46-3.096-2.46-5.364v-1.38Zm-2.256-.42h4.956v.828h-4.956v-.828Zm16.439 1.296h2.736v.828h-2.736v-.828Zm-2.844-1.896h.804v1.332c0 2.1-1.176 3.852-2.988 4.584l-.516-.792c1.608-.6 2.7-2.136 2.7-3.792v-1.332Zm.192 0h.804v1.368c0 1.512 1.056 2.94 2.628 3.516l-.54.768c-1.728-.672-2.892-2.352-2.892-4.284v-1.368Zm5.016-.648h.996v8.112h-.996v-8.112Zm-5.976 9.78h7.236v.816h-7.236v-.816Zm0-2.568h.996v2.952h-.996v-2.952Z" fill="#BDBDBD"/><path d="M318.285 140.57a2 2 0 0 0 .92 2.674l1.795.875a2.001 2.001 0 0 1 .921 2.675l-28.056 57.522a1.999 1.999 0 0 1-2.674.921l-2.803-1.367a2 2 0 0 0-2.674.921l-7.324 15.016a2 2 0 0 1-2.674.921l-3.595-1.753a2.001 2.001 0 0 1-.921-2.675l7.324-15.016a2 2 0 0 0-.921-2.674l-9.781-4.77a2 2 0 0 1-.92-2.675l28.055-57.523a2 2 0 0 1 2.675-.92l10.788 5.261a2 2 0 0 0 2.674-.92l6.057-12.419a2 2 0 0 1 2.674-.921l3.596 1.754a2 2 0 0 1 .92 2.674l-6.056 12.419Z" fill="#E7E7E7"/><path d="m284.038 179.375 3.029-6.293.735.354-3.029 6.293-.735-.354Zm2.962 2.811 4.263-8.856.735.354-4.263 8.856-.735-.354Zm2.408-3.729.426-.887 2.303 1.109-.426.887-2.303-1.109Zm-2.622-4.791.422-.876.724.349c.811.39 1.795.864 2.98 1.834l-.53.823c-1.152-.954-2.082-1.401-2.872-1.781l-.724-.349Zm3.165 8.808 3.3-6.855 3.308 1.593-.432.897-2.573-1.239-2.868 5.958-.735-.354Zm1.45-19.557.416-.865 9.775 4.705-.417.865-9.774-4.705Zm3.188 3.559.905-1.882.735.354-.905 1.881-.735-.353Zm-4.039-1.239.406-.843 9.061 4.361-.406.844-9.061-4.362Zm-1.317 5.2.432-.898 5.644 2.717-.432.897-5.644-2.716Zm5.287 2.545.302-.628c.484-1.005.96-2.161 1.326-3.556l.825.277c-.38 1.455-.868 2.605-1.372 3.654l-.302.627-.779-.374Zm2.811-16.492 1.187-2.465.746.359-1.187 2.465-.746-.359Zm-2.942 1.74.349-.724 1.2.577c1.892.911 2.961 2.731 2.834 4.681l-.937.121c.157-1.709-.754-3.359-2.246-4.077l-1.2-.578Zm.083-.173.349-.724 1.233.593c1.362.656 3.107.324 4.308-.843l.457.82c-1.355 1.265-3.373 1.585-5.114.747l-1.233-.593Zm1.592-4.801.432-.897 7.309 3.518-.432.898-7.309-3.519Zm6.22 9.627 3.139-6.52.735.354-3.138 6.52-.736-.354Zm-2.314-1.114.432-.897 2.66 1.28-.432.897-2.66-1.28Z" fill="#BDBDBD"/><rect x="137" y="143" width="18" height="18" rx="2" fill="#7685D7"/><path d="M143.137 152.654h-2.28v-.92h2.28c.441 0 .799-.07 1.072-.211.273-.14.473-.335.598-.585.129-.25.193-.536.193-.856a1.82 1.82 0 0 0-.193-.826 1.43 1.43 0 0 0-.598-.621c-.273-.16-.631-.24-1.072-.24h-2.016V156h-1.131v-8.531h3.147c.644 0 1.189.111 1.634.334a2.35 2.35 0 0 1 1.014.926c.231.39.346.837.346 1.341 0 .547-.115 1.014-.346 1.401-.23.386-.568.681-1.014.884-.445.2-.99.299-1.634.299Zm7.705-5.232V156h-1.084v-7.225l-2.186.797v-.978l3.1-1.172h.17Z" fill="#fff"/><rect x="20" y="93" width="18" height="18" rx="2" fill="#7685D7"/><path d="M26.137 102.654h-2.28v-.92h2.28c.441 0 .799-.07 1.072-.211.273-.14.473-.335.598-.585.129-.25.193-.536.193-.856a1.82 1.82 0 0 0-.193-.826 1.428 1.428 0 0 0-.598-.621c-.273-.16-.63-.24-1.072-.24H24.12V106h-1.13v-8.531h3.146c.644 0 1.19.111 1.634.334.446.222.784.531 1.014.925.23.391.346.838.346 1.342 0 .547-.115 1.014-.346 1.401-.23.386-.568.681-1.014.884-.445.2-.99.299-1.634.299Zm5.724-1.453h.774c.379 0 .691-.062.937-.187a1.29 1.29 0 0 0 .557-.522c.125-.222.187-.472.187-.75 0-.328-.054-.603-.164-.826a1.098 1.098 0 0 0-.492-.504c-.219-.113-.496-.17-.832-.17-.305 0-.574.06-.809.182a1.33 1.33 0 0 0-.544.504 1.496 1.496 0 0 0-.194.773h-1.084c0-.433.11-.828.328-1.183a2.36 2.36 0 0 1 .92-.85c.399-.211.86-.316 1.383-.316.516 0 .967.091 1.354.275.386.18.687.45.902.809.215.355.322.798.322 1.33 0 .215-.05.445-.152.691a2.049 2.049 0 0 1-.463.68 2.392 2.392 0 0 1-.809.521c-.332.133-.73.199-1.195.199h-.926v-.656Zm0 .891v-.651h.926c.543 0 .992.065 1.348.194.355.129.635.301.838.515.207.215.351.452.433.709.086.254.13.508.13.762 0 .399-.07.752-.206 1.061a2.17 2.17 0 0 1-.568.785 2.421 2.421 0 0 1-.856.486 3.382 3.382 0 0 1-1.072.164c-.371 0-.72-.053-1.049-.158a2.71 2.71 0 0 1-.861-.457 2.137 2.137 0 0 1-.586-.744 2.342 2.342 0 0 1-.211-1.014h1.084c0 .297.064.557.193.779.133.223.32.397.563.522.246.121.535.182.867.182.332 0 .617-.057.855-.17.243-.118.428-.293.557-.528.133-.234.2-.529.2-.884 0-.356-.075-.647-.223-.874a1.31 1.31 0 0 0-.633-.509 2.44 2.44 0 0 0-.955-.17h-.774Z" fill="#fff"/><rect x="167" y="143" width="18" height="18" rx="2" fill="#7685D7"/><path d="M173.137 152.654h-2.28v-.92h2.28c.441 0 .799-.07 1.072-.211.273-.14.473-.335.598-.585.129-.25.193-.536.193-.856a1.82 1.82 0 0 0-.193-.826 1.43 1.43 0 0 0-.598-.621c-.273-.16-.631-.24-1.072-.24h-2.016V156h-1.131v-8.531h3.147c.644 0 1.189.111 1.634.334a2.35 2.35 0 0 1 1.014.926c.231.39.346.837.346 1.341 0 .547-.115 1.014-.346 1.401-.23.386-.568.681-1.014.884-.445.2-.99.299-1.634.299Zm9.732 2.455V156h-5.584v-.779l2.795-3.112c.344-.382.609-.707.797-.972.191-.27.324-.51.398-.721a1.89 1.89 0 0 0 .118-.656c0-.281-.059-.535-.176-.762a1.318 1.318 0 0 0-.504-.551 1.524 1.524 0 0 0-.809-.205c-.379 0-.695.074-.949.223-.25.144-.437.347-.562.609a2.073 2.073 0 0 0-.188.903h-1.084c0-.481.106-.92.317-1.319.21-.398.523-.715.937-.949.414-.238.924-.357 1.529-.357.539 0 1 .095 1.383.287.383.187.676.453.879.797.207.339.311.738.311 1.195a2.4 2.4 0 0 1-.129.762 3.913 3.913 0 0 1-.346.761 5.882 5.882 0 0 1-.51.75 11.39 11.39 0 0 1-.615.727l-2.285 2.478h4.277Z" fill="#fff"/></svg>