<svg width="345" height="316" viewBox="0 0 345 316" fill="none" xmlns="http://www.w3.org/2000/svg"><rect width="345" height="316" rx="6" fill="#FAF9FC"/><path d="M229.371 140h-74.128c-.23 0-.413.021-.621.12-6.825 3.26-54.9 47.673-57.278 53.646-6.44 21.021 12.076 28.298 17.308 28.298h108.681c7.648 0 41.459 11.723 52.327 9.702 10.868-2.022 16.504-7.277 18.516-13.341 2.013-6.063 2.818-25.468 0-30.723C271.233 153.745 238.628 140 229.371 140Z" fill="#E9DAFF" stroke="#966ECF"/><path d="M40.535 61.901V40a2 2 0 0 1 2-2h2.508a2 2 0 0 1 2 2v20.73a2 2 0 0 0 2 2h9.015a2 2 0 0 1 2 2v51.533a2 2 0 0 1-2 2h-9.015a2 2 0 0 0-2 2v21.163a2 2 0 0 1-2 2h-2.508a2 2 0 0 1-2-2v-22.031a2 2 0 0 0-2-2h-.772a2 2 0 0 1-2-2V68.33a2 2 0 0 1 .586-1.414l3.6-3.6a2 2 0 0 0 .586-1.415Z" fill="#E7E7E7" stroke="#E7E7E7"/><path d="M44.693 103.833v-6.984h.816v6.984h-.816Zm3.888 1.248v-9.828h.816v9.828h-.816Zm.552-4.404v-.984h2.556v.984h-2.556Zm-4.44-3.18v-.972h.804c.9 0 1.992 0 3.48.36l-.12.972c-1.452-.36-2.484-.36-3.36-.36h-.804Zm6.672 6.564v-7.608h3.672v.996h-2.856v6.612h-.816ZM44.19 85.798v-.96h10.848v.96H44.19Zm3.888 3.948V87.67h.828v2.076h-.828Zm-3.636-1.776v-.936h10.044v.936H44.441Zm1.428 3.864v-.768h1.38c2.376 0 4.62.912 5.628 2.508l-.744.612c-.912-1.512-2.892-2.352-4.884-2.352h-1.38Zm0-.204v-.768h1.38c1.884 0 3.768-.816 4.632-2.304l.732.612c-.96 1.584-3.096 2.46-5.364 2.46h-1.38Zm-.42 2.256V88.93h.828v4.956h-.828Zm1.296-16.44v-2.735h.828v2.736h-.828Zm-1.896 2.845v-.804h1.332c2.1 0 3.852 1.176 4.584 2.988l-.792.516c-.6-1.608-2.136-2.7-3.792-2.7H44.85Zm0-.192v-.804h1.368c1.512 0 2.94-1.056 3.516-2.628l.768.54c-.672 1.728-2.352 2.892-4.284 2.892H44.85Zm-.648-5.016v-.996h8.112v.996h-8.112Zm9.78 5.976v-7.236h.816v7.236h-.816Zm-2.568 0v-.996h2.952v.996h-2.952Z" fill="#BDBDBD"/><path d="M175.804 263.016V254a2 2 0 0 1 2-2h51.533a2 2 0 0 1 2 2v9.016a2 2 0 0 0 2 2h26.803a2 2 0 0 1 2 2v2.507a2 2 0 0 1-2 2h-27.975a2 2 0 0 0-1.414.586l-4.035 4.035a2 2 0 0 1-1.414.586h-43.464a2 2 0 0 1-1.414-.586l-4.035-4.035a1.999 1.999 0 0 0-1.414-.586H147a2 2 0 0 1-2-2v-2.507a2 2 0 0 1 2-2h26.804a2 2 0 0 0 2-2Z" fill="#E7E7E7" stroke="#E7E7E7"/><path d="M188.101 260.232h6.984v.816h-6.984v-.816Zm-1.248 3.888h9.828v.816h-9.828v-.816Zm4.404.552h.984v2.556h-.984v-2.556Zm3.18-4.44h.972v.804c0 .9 0 1.992-.36 3.48l-.972-.12c.36-1.452.36-2.484.36-3.36v-.804Zm-6.564 6.672h7.608v3.672h-.996v-2.856h-6.612v-.816Zm18.251-7.176h.96v10.848h-.96v-10.848Zm-1.824 4.416h2.088v.816H204.3v-.816Zm-.636-4.176h.936v10.056h-.936v-10.056Zm-5.256 1.068h.996v6.264h-.996v-6.264Zm0 5.868h.696c1.116 0 2.364-.072 3.78-.348l.108.864c-1.476.288-2.724.348-3.888.348h-.696v-.864Zm16.079-4.62h2.736v.828h-2.736v-.828Zm-2.844-1.896h.804v1.332c0 2.1-1.176 3.852-2.988 4.584l-.516-.792c1.608-.6 2.7-2.136 2.7-3.792v-1.332Zm.192 0h.804v1.368c0 1.512 1.056 2.94 2.628 3.516l-.54.768c-1.728-.672-2.892-2.352-2.892-4.284v-1.368Zm5.016-.648h.996v8.112h-.996v-8.112Zm-5.976 9.78h7.236v.816h-7.236v-.816Zm0-2.568h.996v2.952h-.996v-2.952Z" fill="#BDBDBD"/><rect x="94.5" y="58.5" width="65" height="65" rx="1.5" fill="#E9DAFF" stroke="#966ECF"/><path d="M237.494 72.225c3.077.687 38.872 24.099 56.868 36.037.328.218.702.327 1.095.327h25.43a2 2 0 0 1 2 2v21.974a2 2 0 0 0 1.999 2H339a2 2 0 0 1 2 2V162c0 1.105-.89 2-1.995 2h-35.526c-3.45 0-8.625-2.597-12.507-3.896-3.881-1.299-48.734-35.498-50.459-37.229-1.725-1.732-13.369-32.9-14.663-35.498-1.294-2.598-1.294-9.091 1.294-11.689 2.587-2.597 6.469-4.329 10.35-3.463Z" fill="#E9DAFF" stroke="#966ECF"/><rect x="145" y="183" width="18" height="18" rx="2" fill="#7685D7"/><path d="M151.137 192.654h-2.28v-.92h2.28c.441 0 .799-.07 1.072-.211.273-.14.473-.335.598-.585.129-.25.193-.536.193-.856a1.82 1.82 0 0 0-.193-.826 1.43 1.43 0 0 0-.598-.621c-.273-.16-.631-.24-1.072-.24h-2.016V196h-1.131v-8.531h3.147c.644 0 1.189.111 1.634.334a2.35 2.35 0 0 1 1.014.926c.231.39.346.837.346 1.341 0 .547-.115 1.014-.346 1.401-.23.386-.568.681-1.014.884-.445.2-.99.299-1.634.299Zm7.705-5.232V196h-1.084v-7.225l-2.186.797v-.978l3.1-1.172h.17Z" fill="#fff"/><rect x="251" y="101" width="18" height="18" rx="2" fill="#7685D7"/><path d="M257.137 110.654h-2.28v-.92h2.28c.441 0 .799-.07 1.072-.211.273-.14.473-.335.598-.585.129-.25.193-.536.193-.856a1.82 1.82 0 0 0-.193-.826 1.43 1.43 0 0 0-.598-.621c-.273-.16-.631-.24-1.072-.24h-2.016V114h-1.131v-8.531h3.147c.644 0 1.189.111 1.634.334a2.35 2.35 0 0 1 1.014.926c.231.39.346.837.346 1.341 0 .547-.115 1.014-.346 1.401-.23.386-.568.681-1.014.884-.445.2-.99.299-1.634.299Zm9.732 2.455V114h-5.584v-.779l2.795-3.112c.344-.382.609-.707.797-.972.191-.27.324-.51.398-.721a1.89 1.89 0 0 0 .118-.656c0-.281-.059-.535-.176-.762a1.318 1.318 0 0 0-.504-.551 1.524 1.524 0 0 0-.809-.205c-.379 0-.695.074-.949.223-.25.144-.437.347-.562.609a2.073 2.073 0 0 0-.188.903h-1.084c0-.481.106-.92.317-1.319.21-.398.523-.715.937-.949.414-.238.924-.357 1.529-.357.539 0 1 .095 1.383.287.383.187.676.453.879.797.207.339.311.738.311 1.195a2.4 2.4 0 0 1-.129.762 3.913 3.913 0 0 1-.346.761 5.882 5.882 0 0 1-.51.75 11.39 11.39 0 0 1-.615.727l-2.285 2.478h4.277Z" fill="#fff"/><rect x="85" y="73" width="84" height="20" rx="9" fill="#7685D7"/><path d="M95.848 78.592h6.984v.816h-6.984v-.816ZM94.6 82.48h9.828v.816H94.6v-.816Zm4.404.552h.984v2.556h-.984v-2.556Zm3.18-4.44h.972v.804c0 .9 0 1.992-.36 3.48l-.972-.12c.36-1.452.36-2.484.36-3.36v-.804Zm-6.564 6.672h7.608v3.672h-.996V86.08H95.62v-.816Zm18.263-7.176h.96v10.848h-.96V78.088Zm-3.948 3.888h2.076v.828h-2.076v-.828Zm1.776-3.636h.936v10.044h-.936V78.34Zm-3.864 1.428h.768v1.38c0 2.376-.912 4.62-2.508 5.628l-.612-.744c1.512-.912 2.352-2.892 2.352-4.884v-1.38Zm.204 0h.768v1.38c0 1.884.816 3.768 2.304 4.632l-.612.732c-1.584-.96-2.46-3.096-2.46-5.364v-1.38Zm-2.256-.42h4.956v.828h-4.956v-.828Zm16.439 1.296h2.736v.828h-2.736v-.828Zm-2.844-1.896h.804v1.332c0 2.1-1.176 3.852-2.988 4.584l-.516-.792c1.608-.6 2.7-2.136 2.7-3.792v-1.332Zm.192 0h.804v1.368c0 1.512 1.056 2.94 2.628 3.516l-.54.768c-1.728-.672-2.892-2.352-2.892-4.284v-1.368Zm5.016-.648h.996v8.112h-.996V78.1Zm-5.976 9.78h7.236v.816h-7.236v-.816Zm0-2.568h.996v2.952h-.996v-2.952Zm13.439-6.156h.864v.456c0 1.944-2.064 3.372-4.248 3.744l-.384-.792c1.908-.276 3.768-1.524 3.768-2.952v-.456Zm.252 0h.852v.456c0 1.428 1.872 2.676 3.768 2.952l-.372.792c-2.196-.372-4.248-1.8-4.248-3.744v-.456Zm-.216 5.64h.984v4.14h-.984v-4.14Zm-4.38-.528h9.804v.816h-9.804v-.816Zm.912-5.508h7.944v.804h-7.944v-.804Zm12.767 1.908h.78v.924c0 2.292-1.248 4.404-2.964 5.256l-.564-.768c1.596-.768 2.748-2.616 2.748-4.488v-.924Zm.192 0h.78v.924c0 1.752 1.092 3.516 2.64 4.284l-.552.768c-1.692-.84-2.868-2.892-2.868-5.052v-.924Zm-2.64-.696h5.82v.804h-5.82v-.804Zm2.436-1.692h.984v2.136h-.984V78.28Zm4.704-.192h1.008v10.848h-1.008V78.088Zm.768 4.452h2.016v.828h-2.016v-.828Zm5.603-3.288h.816v.876c0 1.992-1.2 3.66-3.024 4.32l-.504-.792c1.632-.576 2.712-1.98 2.712-3.528v-.876Zm.18 0h.816v.864c0 1.416 1.032 2.688 2.628 3.216l-.48.78c-1.812-.6-2.964-2.148-2.964-3.996v-.864Zm-2.592-.36h5.796v.816h-5.796v-.816Zm7.164-.804h.996v6.54h-.996v-6.54Zm.72 2.748h1.884v.84h-1.884v-.84Zm-3.18 4.08c2.208 0 3.564.732 3.564 1.992 0 1.272-1.356 2.004-3.564 2.004s-3.564-.732-3.564-2.004c0-1.26 1.356-1.992 3.564-1.992Zm0 .804c-1.608 0-2.592.432-2.592 1.188 0 .768.984 1.224 2.592 1.224s2.592-.456 2.592-1.224c0-.756-.984-1.188-2.592-1.188Z" fill="#fff"/><rect x="24" y="237" width="65" height="65" rx="1.5" transform="rotate(-90 24 237)" fill="#E9DAFF" stroke="#966ECF"/><rect x="42.5" y="252.5" width="94" height="20" rx="9" transform="rotate(-90 42.5 252.5)" fill="#7685D7"/><path d="M48.092 242.652v-6.984h.816v6.984h-.816Zm3.888 1.248v-9.828h.816v9.828h-.816Zm.552-4.404v-.984h2.556v.984h-2.556Zm-4.44-3.18v-.972h.804c.9 0 1.992 0 3.48.36l-.12.972c-1.452-.36-2.484-.36-3.36-.36h-.804Zm6.672 6.564v-7.608h3.672v.996H55.58v6.612h-.816Zm-7.176-18.263v-.96h10.848v.96H47.588Zm3.888 3.948v-2.076h.828v2.076h-.828Zm-3.636-1.776v-.936h10.044v.936H47.84Zm1.428 3.864v-.768h1.38c2.376 0 4.62.912 5.628 2.508l-.744.612c-.912-1.512-2.892-2.352-4.884-2.352h-1.38Zm0-.204v-.768h1.38c1.884 0 3.768-.816 4.632-2.304l.732.612c-.96 1.584-3.096 2.46-5.364 2.46h-1.38Zm-.42 2.256v-4.956h.828v4.956h-.828Zm1.296-16.439v-2.736h.828v2.736h-.828Zm-1.896 2.844v-.804h1.332c2.1 0 3.852 1.176 4.584 2.988l-.792.516c-.6-1.608-2.136-2.7-3.792-2.7h-1.332Zm0-.192v-.804h1.368c1.512 0 2.94-1.056 3.516-2.628l.768.54c-.672 1.728-2.352 2.892-4.284 2.892h-1.368Zm-.648-5.016v-.996h8.112v.996H47.6Zm9.78 5.976v-7.236h.816v7.236h-.816Zm-2.568 0v-.996h2.952v.996h-2.952Zm-6.156-13.439v-.864h.456c1.944 0 3.372 2.064 3.744 4.248l-.792.384c-.276-1.908-1.524-3.768-2.952-3.768h-.456Zm0-.252v-.852h.456c1.428 0 2.676-1.872 2.952-3.768l.792.372c-.372 2.196-1.8 4.248-3.744 4.248h-.456Zm5.64.216v-.984h4.14v.984h-4.14Zm-.528 4.38v-9.804h.816v9.804h-.816Zm-5.508-.912v-7.944h.804v7.944h-.804Zm1.908-12.767v-.78h.924c2.292 0 4.404 1.248 5.256 2.964l-.768.564c-.768-1.596-2.616-2.748-4.488-2.748h-.924Zm0-.192v-.78h.924c1.752 0 3.516-1.092 4.284-2.64l.768.552c-.84 1.692-2.892 2.868-5.052 2.868h-.924Zm-.696 2.64v-5.82h.804v5.82h-.804Zm-1.692-2.436v-.984h2.136v.984H47.78Zm-.192-4.704v-1.008h10.848v1.008H47.588Zm4.452-.768v-2.016h.828v2.016h-.828Zm-4.452-10.823v-.996h5.652v.996h-5.652Zm6.216 6.012v-7.02h2.58v6.024h1.524v.972H55.64v-6.012h-1.044v6.036h-.792Zm3.732-.024v-7.356h.78v7.356h-.78Zm-9.516 1.332v-.972h1.572v-3.12H48.02v-.984h4.752v5.076H48.02Zm2.34-.972h1.608v-3.12H50.36v3.12Zm-2.772-17.387v-1.008h6.66v1.008h-6.66Zm4.8 7.236v-.9c0-2.34-.06-3.696-.384-5.256l.828-.12c.3 1.608.372 2.988.372 5.376v.9h-.816Zm-3.948 0v-5.1h.816v4.104h3.576v.996H48.44Zm5.832-4.632c0-2.256.768-3.648 2.076-3.648 1.32 0 2.076 1.392 2.076 3.648 0 2.244-.756 3.636-2.076 3.636-1.308 0-2.076-1.392-2.076-3.636Zm.792 0c0 1.644.48 2.64 1.284 2.64s1.296-.996 1.296-2.64c0-1.656-.492-2.652-1.296-2.652s-1.284.996-1.284 2.652Z" fill="#fff"/></svg>