<svg width="345" height="316" viewBox="0 0 345 316" fill="none" xmlns="http://www.w3.org/2000/svg"><rect width="345" height="316" rx="6" fill="#FAF9FC"/><path d="M212.043 145h-85.674c-.228 0-.403.019-.61.113-7.694 3.526-63.453 54.418-66.207 61.25-7.438 23.992 13.948 32.297 19.991 32.297H205.07c8.834 0 47.886 13.38 60.439 11.073 12.552-2.307 19.061-8.305 21.386-15.226 2.324-6.92 3.254-29.067 0-35.064-26.5-38.756-64.158-54.443-74.851-54.443Z" fill="#E9DAFF" stroke="#966ECF"/><path d="M17.5 55.672V30a2 2 0 0 1 2-2H23a2 2 0 0 1 2 2v24.5a2 2 0 0 0 2 2h11a2 2 0 0 1 2 2v60a2 2 0 0 1-2 2H27a2 2 0 0 0-2 2v25a2 2 0 0 1-2 2h-3.5a2 2 0 0 1-2-2v-26a2 2 0 0 0-2-2H14a2 2 0 0 1-2-2V62.828a2 2 0 0 1 .586-1.414l4.328-4.328a2 2 0 0 0 .586-1.414Z" fill="#E7E7E7" stroke="#E7E7E7"/><path d="M20.592 104.152v-6.984h.816v6.984h-.816Zm3.888 1.248v-9.828h.816v9.828h-.816Zm.552-4.404v-.984h2.556v.984h-2.556Zm-4.44-3.18v-.972h.804c.9 0 1.992 0 3.48.36l-.12.972c-1.452-.36-2.484-.36-3.36-.36h-.804Zm6.672 6.564v-7.608h3.672v.996H28.08v6.612h-.816Zm-7.176-18.263v-.96h10.848v.96H20.088Zm3.888 3.948v-2.076h.828v2.076h-.828Zm-3.636-1.776v-.936h10.044v.936H20.34Zm1.428 3.864v-.768h1.38c2.376 0 4.62.912 5.628 2.508l-.744.612c-.912-1.512-2.892-2.352-4.884-2.352h-1.38Zm0-.204v-.768h1.38c1.884 0 3.768-.816 4.632-2.304l.732.612c-.96 1.584-3.096 2.46-5.364 2.46h-1.38Zm-.42 2.256v-4.956h.828v4.956h-.828Zm1.296-16.44V75.03h.828v2.736h-.828Zm-1.896 2.845v-.804h1.332c2.1 0 3.852 1.176 4.584 2.988l-.792.516c-.6-1.608-2.136-2.7-3.792-2.7h-1.332Zm0-.192v-.804h1.368c1.512 0 2.94-1.056 3.516-2.628l.768.54c-.672 1.728-2.352 2.892-4.284 2.892h-1.368Zm-.648-5.016v-.996h8.112v.996H20.1Zm9.78 5.976v-7.236h.816v7.236h-.816Zm-2.568 0v-.996h2.952v.996h-2.952Z" fill="#BDBDBD"/><path d="M141.5 269.5v-11a2 2 0 0 1 2-2h60a2 2 0 0 1 2 2v11a2 2 0 0 0 2 2H239a2 2 0 0 1 2 2v3.5a2 2 0 0 1-2 2h-32.672a2 2 0 0 0-1.414.586l-4.828 4.828a2 2 0 0 1-1.414.586h-50.344a2 2 0 0 1-1.414-.586l-4.828-4.828a2 2 0 0 0-1.414-.586H108a2 2 0 0 1-2-2v-3.5a2 2 0 0 1 2-2h31.5a2 2 0 0 0 2-2Z" fill="#E7E7E7" stroke="#E7E7E7"/><path d="M158.848 266.592h6.984v.816h-6.984v-.816Zm-1.248 3.888h9.828v.816H157.6v-.816Zm4.404.552h.984v2.556h-.984v-2.556Zm3.18-4.44h.972v.804c0 .9 0 1.992-.36 3.48l-.972-.12c.36-1.452.36-2.484.36-3.36v-.804Zm-6.564 6.672h7.608v3.672h-.996v-2.856h-6.612v-.816Zm18.251-7.176h.96v10.848h-.96v-10.848Zm-1.824 4.416h2.088v.816h-2.088v-.816Zm-.636-4.176h.936v10.056h-.936v-10.056Zm-5.256 1.068h.996v6.264h-.996v-6.264Zm0 5.868h.696c1.116 0 2.364-.072 3.78-.348l.108.864c-1.476.288-2.724.348-3.888.348h-.696v-.864Zm16.079-4.62h2.736v.828h-2.736v-.828Zm-2.844-1.896h.804v1.332c0 2.1-1.176 3.852-2.988 4.584l-.516-.792c1.608-.6 2.7-2.136 2.7-3.792v-1.332Zm.192 0h.804v1.368c0 1.512 1.056 2.94 2.628 3.516l-.54.768c-1.728-.672-2.892-2.352-2.892-4.284v-1.368Zm5.016-.648h.996v8.112h-.996V266.1Zm-5.976 9.78h7.236v.816h-7.236v-.816Zm0-2.568h.996v2.952h-.996v-2.952Z" fill="#BDBDBD"/><rect x="56.5" y="50.5" width="75" height="75" rx="1.5" fill="#E9DAFF" stroke="#966ECF"/><path d="M221 67c3.572.794 45.173 27.903 66.01 41.676.327.216.699.324 1.091.324H318a2 2 0 0 1 2 2v26a2 2 0 0 0 2 2h17a2 2 0 0 1 2 2v30c0 1.105-.887 2-1.991 2H297.5c-4 0-10-3-14.5-4.5s-56.5-41-58.5-43-15.5-38-17-41S206 74 209 71s7.5-5 12-4Z" fill="#E9DAFF" stroke="#966ECF"/><rect x="135" y="189" width="18" height="18" rx="2" fill="#7685D7"/><path d="M141.137 198.654h-2.28v-.92h2.28c.441 0 .799-.07 1.072-.211.273-.14.473-.335.598-.585.129-.25.193-.536.193-.856a1.82 1.82 0 0 0-.193-.826 1.43 1.43 0 0 0-.598-.621c-.273-.16-.631-.24-1.072-.24h-2.016V202h-1.131v-8.531h3.147c.644 0 1.189.111 1.634.334a2.35 2.35 0 0 1 1.014.926c.231.39.346.837.346 1.341 0 .547-.115 1.014-.346 1.401-.23.386-.568.681-1.014.884-.445.2-.99.299-1.634.299Zm7.705-5.232V202h-1.084v-7.225l-2.186.797v-.978l3.1-1.172h.17Z" fill="#fff"/><rect x="241" y="107" width="18" height="18" rx="2" fill="#7685D7"/><path d="M247.137 116.654h-2.28v-.92h2.28c.441 0 .799-.07 1.072-.211.273-.14.473-.335.598-.585.129-.25.193-.536.193-.856a1.82 1.82 0 0 0-.193-.826 1.43 1.43 0 0 0-.598-.621c-.273-.16-.631-.24-1.072-.24h-2.016V120h-1.131v-8.531h3.147c.644 0 1.189.111 1.634.334a2.35 2.35 0 0 1 1.014.926c.231.39.346.837.346 1.341 0 .547-.115 1.014-.346 1.401-.23.386-.568.681-1.014.884-.445.2-.99.299-1.634.299Zm9.732 2.455V120h-5.584v-.779l2.795-3.112c.344-.382.609-.707.797-.972.191-.27.324-.51.398-.721a1.89 1.89 0 0 0 .118-.656c0-.281-.059-.535-.176-.762a1.318 1.318 0 0 0-.504-.551 1.524 1.524 0 0 0-.809-.205c-.379 0-.695.074-.949.223-.25.144-.437.347-.562.609a2.073 2.073 0 0 0-.188.903h-1.084c0-.481.106-.92.317-1.319.21-.398.523-.715.937-.949.414-.238.924-.357 1.529-.357.539 0 1 .095 1.383.287.383.187.676.453.879.797.207.339.311.738.311 1.195a2.4 2.4 0 0 1-.129.762 3.913 3.913 0 0 1-.346.761 5.882 5.882 0 0 1-.51.75 11.39 11.39 0 0 1-.615.727l-2.285 2.478h4.277Z" fill="#fff"/><rect x="75" y="59" width="84" height="20" rx="9" fill="#7685D7"/><path d="M85.848 63.592h6.984v.816h-6.984v-.816ZM84.6 67.48h9.828v.816H84.6v-.816Zm4.404.552h.984v2.556h-.984v-2.556Zm3.18-4.44h.972v.804c0 .9 0 1.992-.36 3.48l-.972-.12c.36-1.452.36-2.484.36-3.36v-.804Zm-6.564 6.672h7.608v3.672h-.996V71.08H85.62v-.816Zm18.263-7.176h.96v10.848h-.96V63.088Zm-3.948 3.888h2.076v.828h-2.076v-.828Zm1.776-3.636h.936v10.044h-.936V63.34Zm-3.864 1.428h.768v1.38c0 2.376-.912 4.62-2.508 5.628l-.612-.744c1.512-.912 2.352-2.892 2.352-4.884v-1.38Zm.204 0h.768v1.38c0 1.884.816 3.768 2.304 4.632l-.612.732c-1.584-.96-2.46-3.096-2.46-5.364v-1.38Zm-2.256-.42h4.956v.828h-4.956v-.828Zm16.439 1.296h2.736v.828h-2.736v-.828Zm-2.844-1.896h.804v1.332c0 2.1-1.176 3.852-2.988 4.584l-.516-.792c1.608-.6 2.7-2.136 2.7-3.792v-1.332Zm.192 0h.804v1.368c0 1.512 1.056 2.94 2.628 3.516l-.54.768c-1.728-.672-2.892-2.352-2.892-4.284v-1.368Zm5.016-.648h.996v8.112h-.996V63.1Zm-5.976 9.78h7.236v.816h-7.236v-.816Zm0-2.568h.996v2.952h-.996v-2.952Zm13.439-6.156h.864v.456c0 1.944-2.064 3.372-4.248 3.744l-.384-.792c1.908-.276 3.768-1.524 3.768-2.952v-.456Zm.252 0h.852v.456c0 1.428 1.872 2.676 3.768 2.952l-.372.792c-2.196-.372-4.248-1.8-4.248-3.744v-.456Zm-.216 5.64h.984v4.14h-.984v-4.14Zm-4.38-.528h9.804v.816h-9.804v-.816Zm.912-5.508h7.944v.804h-7.944v-.804Zm12.767 1.908h.78v.924c0 2.292-1.248 4.404-2.964 5.256l-.564-.768c1.596-.768 2.748-2.616 2.748-4.488v-.924Zm.192 0h.78v.924c0 1.752 1.092 3.516 2.64 4.284l-.552.768c-1.692-.84-2.868-2.892-2.868-5.052v-.924Zm-2.64-.696h5.82v.804h-5.82v-.804Zm2.436-1.692h.984v2.136h-.984V63.28Zm4.704-.192h1.008v10.848h-1.008V63.088Zm.768 4.452h2.016v.828h-2.016v-.828Zm5.603-3.288h.816v.876c0 1.992-1.2 3.66-3.024 4.32l-.504-.792c1.632-.576 2.712-1.98 2.712-3.528v-.876Zm.18 0h.816v.864c0 1.416 1.032 2.688 2.628 3.216l-.48.78c-1.812-.6-2.964-2.148-2.964-3.996v-.864Zm-2.592-.36h5.796v.816h-5.796v-.816Zm7.164-.804h.996v6.54h-.996v-6.54Zm.72 2.748h1.884v.84h-1.884v-.84Zm-3.18 4.08c2.208 0 3.564.732 3.564 1.992 0 1.272-1.356 2.004-3.564 2.004s-3.564-.732-3.564-2.004c0-1.26 1.356-1.992 3.564-1.992Zm0 .804c-1.608 0-2.592.432-2.592 1.188 0 .768.984 1.224 2.592 1.224s2.592-.456 2.592-1.224c0-.756-.984-1.188-2.592-1.188Z" fill="#fff"/></svg>