<svg width="315" height="129" viewBox="0 0 315 129" fill="none" xmlns="http://www.w3.org/2000/svg"><path class="area" d="M3 49.05h113.294c.484 0 .951-.176 1.315-.494L136.232 32.3c.436-.38.685-.93.685-1.507V16a2 2 0 0 1 2-2h65.911a2 2 0 0 1 2 2v14.872a2 2 0 0 0 .587 1.416l16.216 16.178a2 2 0 0 0 1.413.584H312a2 2 0 0 1 2 2v12.285a2 2 0 0 1-2 2h-76.557a2 2 0 0 0-2 2V126a2 2 0 0 1-2 2h-53.072a2 2 0 0 1-1.856-1.256l-1.832-4.569a2.002 2.002 0 0 0-1.857-1.256h-5.036a2 2 0 0 0-1.887 1.338l-1.546 4.405A2 2 0 0 1 162.47 128H42.391a2 2 0 0 1-2-2V97.429a2 2 0 0 1 2-2h63.072a2 2 0 0 0 2-2V67.335a2 2 0 0 0-2-2H3a2 2 0 0 1-2-2V51.05a2 2 0 0 1 2-2Z" fill="#FCFCFC" stroke="#DEDEDE"/><path d="M3 49.05h113.294c.484 0 .951-.176 1.315-.494L136.232 32.3c.436-.38.685-.93.685-1.507V16a2 2 0 0 1 2-2h65.911a2 2 0 0 1 2 2v14.872a2 2 0 0 0 .587 1.416l16.216 16.178a2 2 0 0 0 1.413.584H312a2 2 0 0 1 2 2v12.285a2 2 0 0 1-2 2H3a2 2 0 0 1-2-2V51.05a2 2 0 0 1 2-2Z" fill="#E9DAFF" stroke="#966ECF"/><path d="M8 38.293V44h-.941v-4.59l-1.395.473v-.778l2.223-.812H8Zm7.535 2.437h.563c.218 0 .4-.037.543-.113a.738.738 0 0 0 .324-.312.961.961 0 0 0 .105-.457c0-.18-.032-.334-.097-.461a.66.66 0 0 0-.29-.301 1.005 1.005 0 0 0-.488-.105.999.999 0 0 0-.453.101.77.77 0 0 0-.434.711h-.945c0-.302.08-.57.239-.805a1.62 1.62 0 0 1 .648-.55c.276-.136.586-.204.93-.204.367 0 .687.062.96.184.277.12.491.3.645.539.154.24.23.536.23.89 0 .162-.037.326-.113.493a1.43 1.43 0 0 1-.336.457 1.754 1.754 0 0 1-.554.332 2.178 2.178 0 0 1-.77.125h-.707v-.523Zm0 .735v-.516h.707c.334 0 .617.04.852.117.237.078.43.187.578.325.148.135.256.29.324.465a1.679 1.679 0 0 1-.039 1.265c-.094.206-.228.38-.402.523a1.796 1.796 0 0 1-.614.325c-.231.073-.484.11-.757.11-.245 0-.48-.035-.704-.102a1.918 1.918 0 0 1-.601-.301 1.492 1.492 0 0 1-.422-.504 1.553 1.553 0 0 1-.152-.703h.941c0 .169.04.319.117.449a.83.83 0 0 0 .336.3c.146.074.313.11.5.11.198 0 .369-.035.512-.105a.734.734 0 0 0 .328-.313 1 1 0 0 0 .117-.5c0-.221-.043-.4-.129-.539a.758.758 0 0 0-.367-.305 1.428 1.428 0 0 0-.562-.101h-.563Zm24.813.508v.75h-4.102l-.031-.567 2.453-3.843h.754l-.816 1.398-1.41 2.262h3.152Zm-.711-3.66V44h-.942v-5.688h.942Zm-7.219 36.043-.75-.184.309-2.86h3.066v.797h-2.285l-.156 1.395a1.83 1.83 0 0 1 .367-.152c.156-.053.334-.079.535-.079.268 0 .508.045.719.133.213.086.394.212.543.38.148.163.261.364.34.6.078.235.117.5.117.794 0 .263-.04.509-.117.738a1.72 1.72 0 0 1-.344.605 1.58 1.58 0 0 1-.582.41 2.14 2.14 0 0 1-.825.145c-.236 0-.464-.034-.683-.101a1.865 1.865 0 0 1-.582-.309 1.574 1.574 0 0 1-.414-.508 1.742 1.742 0 0 1-.18-.7h.922c.023.186.074.343.152.474a.82.82 0 0 0 .32.293c.133.067.287.101.462.101a.944.944 0 0 0 .41-.082.776.776 0 0 0 .285-.242 1.08 1.08 0 0 0 .172-.375c.039-.143.058-.302.058-.477a1.49 1.49 0 0 0-.066-.457.992.992 0 0 0-.191-.36.818.818 0 0 0-.317-.233 1.068 1.068 0 0 0-.441-.086c-.224 0-.396.032-.516.097a1.613 1.613 0 0 0-.328.243Zm25.789-3.043v.515L55.934 77h-.993l2.27-4.938h-2.945v-.75h3.941ZM75.148 42.45c0 .353-.082.652-.246.894a1.541 1.541 0 0 1-.671.55 2.366 2.366 0 0 1-.954.184c-.354 0-.673-.061-.957-.184a1.542 1.542 0 0 1-.672-.55c-.164-.242-.246-.54-.246-.895a1.432 1.432 0 0 1 .523-1.133c.17-.14.368-.248.594-.324.23-.075.48-.113.75-.113.36 0 .681.066.965.2.284.132.507.316.668.55.164.234.246.508.246.82Zm-.945-.048c0-.19-.039-.356-.117-.5a.822.822 0 0 0-.328-.332.99.99 0 0 0-.489-.117c-.187 0-.35.04-.488.117a.83.83 0 0 0-.324.332c-.075.144-.113.31-.113.5 0 .193.038.36.113.5a.761.761 0 0 0 .324.317c.14.073.306.11.496.11s.355-.037.492-.11a.765.765 0 0 0 .32-.317c.076-.14.114-.307.114-.5Zm.816-2.593c0 .283-.075.536-.226.757a1.526 1.526 0 0 1-.617.524 2.069 2.069 0 0 1-.899.187c-.338 0-.64-.062-.906-.187a1.554 1.554 0 0 1-.621-.524 1.33 1.33 0 0 1-.223-.757c0-.339.075-.624.223-.856.151-.234.358-.413.621-.535.263-.122.564-.184.902-.184.339 0 .64.062.903.184s.468.3.617.535c.151.232.226.517.226.856Zm-.94.03a.937.937 0 0 0-.102-.444.732.732 0 0 0-.278-.305.803.803 0 0 0-.426-.11.826.826 0 0 0-.425.106.71.71 0 0 0-.278.297.995.995 0 0 0-.097.457c0 .174.032.327.097.457a.737.737 0 0 0 .278.3c.122.074.265.11.43.11a.803.803 0 0 0 .425-.11.737.737 0 0 0 .278-.3 1.01 1.01 0 0 0 .097-.457Zm18.109 36.419h.078c.359 0 .658-.047.898-.14.242-.097.435-.23.578-.4.143-.169.246-.368.309-.597.062-.23.093-.478.093-.746v-.98a2.23 2.23 0 0 0-.074-.61 1.26 1.26 0 0 0-.203-.441.865.865 0 0 0-.3-.27.758.758 0 0 0-.364-.09.769.769 0 0 0-.387.098.853.853 0 0 0-.285.262c-.075.11-.134.238-.175.387a1.859 1.859 0 0 0-.004.922c.039.143.096.27.171.382a.8.8 0 0 0 .688.363.967.967 0 0 0 .722-.312 1.09 1.09 0 0 0 .301-.692l.36.11c0 .198-.042.393-.125.586a1.83 1.83 0 0 1-.34.523 1.667 1.667 0 0 1-.504.375 1.38 1.38 0 0 1-.621.14c-.27 0-.51-.05-.719-.151a1.509 1.509 0 0 1-.516-.422 1.862 1.862 0 0 1-.304-.61 2.537 2.537 0 0 1 .023-1.492c.084-.24.205-.45.364-.633.158-.185.351-.328.578-.43a1.86 1.86 0 0 1 .777-.156c.307 0 .577.06.809.18.231.12.427.285.586.496.158.211.278.456.359.734.08.28.121.579.121.899v.332c0 .336-.03.66-.09.973a3.23 3.23 0 0 1-.293.863 2.408 2.408 0 0 1-.527.695 2.307 2.307 0 0 1-.797.465c-.313.11-.68.164-1.102.164h-.085v-.777ZM99 38.293V44h-.941v-4.59l-1.395.473v-.778l2.223-.812H99Zm5.684 2.387v.93c0 .445-.045.825-.133 1.14a1.989 1.989 0 0 1-.375.762 1.473 1.473 0 0 1-.59.43 2.028 2.028 0 0 1-.762.136c-.224 0-.432-.029-.625-.086a1.519 1.519 0 0 1-.91-.742 2.643 2.643 0 0 1-.25-.7 4.607 4.607 0 0 1-.086-.94v-.93c0-.448.044-.826.133-1.133.088-.31.215-.561.379-.754a1.44 1.44 0 0 1 .586-.426c.229-.088.484-.133.765-.133.227 0 .435.029.625.086a1.462 1.462 0 0 1 .907.73c.109.19.192.421.25.692.057.268.086.58.086.938Zm-.942 1.062V40.54a4.04 4.04 0 0 0-.039-.598 1.773 1.773 0 0 0-.117-.441.881.881 0 0 0-.188-.297.656.656 0 0 0-.257-.168.916.916 0 0 0-.325-.054.86.86 0 0 0-.39.085.699.699 0 0 0-.289.266 1.46 1.46 0 0 0-.18.484 3.802 3.802 0 0 0-.059.723v1.203c0 .23.013.431.04.606.026.174.065.324.117.449.052.122.114.224.187.305a.708.708 0 0 0 .258.171.93.93 0 0 0 .324.055c.149 0 .28-.029.395-.086a.727.727 0 0 0 .289-.273c.078-.128.137-.293.176-.496.039-.203.058-.447.058-.73ZM143 3.293V9h-.941V4.41l-1.395.473v-.778l2.223-.812H143Zm4.547 0V9h-.942V4.41l-1.394.473v-.778l2.223-.812h.113Zm49.453 0V9h-.941V4.41l-1.395.473v-.778l2.223-.812H197Zm5.895 3.68v.75h-4.102l-.031-.567 2.453-3.843h.754l-.817 1.398-1.41 2.262h3.153Zm-.711-3.66V9h-.942V3.312h.942ZM250 38.293V44h-.941v-4.59l-1.395.473v-.778l2.223-.812H250Zm4.82-.016h.118v.77h-.067c-.336 0-.626.052-.871.156a1.62 1.62 0 0 0-.598.43 1.825 1.825 0 0 0-.351.64c-.076.243-.113.5-.113.774v.894c0 .227.024.427.074.602.049.172.118.316.207.434a.954.954 0 0 0 .312.261.82.82 0 0 0 .379.09.845.845 0 0 0 .383-.086.885.885 0 0 0 .293-.246c.081-.104.142-.228.184-.371a1.7 1.7 0 0 0 .062-.469c0-.161-.021-.312-.062-.453a1.155 1.155 0 0 0-.176-.375.822.822 0 0 0-.692-.348c-.187 0-.358.045-.511.133a1.097 1.097 0 0 0-.368.348.898.898 0 0 0-.148.45l-.359-.118c.02-.242.074-.46.16-.652.088-.193.204-.357.347-.493a1.47 1.47 0 0 1 .497-.308c.19-.073.398-.11.625-.11.276 0 .515.053.718.157.203.104.371.246.504.425.136.178.236.38.301.61a2.46 2.46 0 0 1-.023 1.476 1.81 1.81 0 0 1-.368.618 1.651 1.651 0 0 1-.582.414 1.912 1.912 0 0 1-.773.148 1.84 1.84 0 0 1-.817-.176 1.794 1.794 0 0 1-.605-.484 2.212 2.212 0 0 1-.375-.711 2.772 2.772 0 0 1-.129-.852v-.39c0-.432.055-.84.164-1.223.11-.385.278-.725.504-1.02a2.35 2.35 0 0 1 .879-.69c.357-.17.783-.255 1.277-.255Zm22.18.016V44h-.941v-4.59l-1.395.473v-.778l2.223-.812H277Zm5.754.02v.515L280.48 44h-.992l2.27-4.938h-2.946v-.75h3.942Zm11.246-.02V44h-.941v-4.59l-1.395.473v-.778l2.223-.812H294Zm5.695 4.156c0 .354-.082.653-.246.895a1.54 1.54 0 0 1-.672.55 2.365 2.365 0 0 1-.953.184c-.354 0-.673-.061-.957-.184a1.54 1.54 0 0 1-.672-.55c-.164-.242-.246-.54-.246-.895a1.428 1.428 0 0 1 .524-1.133c.169-.14.367-.248.593-.324.23-.075.48-.113.75-.113.36 0 .681.066.965.2.284.132.507.316.668.55.164.234.246.508.246.82Zm-.945-.047c0-.19-.039-.356-.117-.5a.825.825 0 0 0-.328-.332.993.993 0 0 0-.489-.117c-.187 0-.35.04-.488.117a.828.828 0 0 0-.324.332c-.076.144-.113.31-.113.5 0 .193.037.36.113.5a.76.76 0 0 0 .324.317c.141.073.306.11.496.11s.354-.037.492-.11a.77.77 0 0 0 .321-.317c.075-.14.113-.307.113-.5Zm.816-2.593c0 .283-.075.536-.226.757a1.528 1.528 0 0 1-.617.524 2.07 2.07 0 0 1-.899.187c-.338 0-.64-.062-.906-.187a1.554 1.554 0 0 1-.621-.524 1.325 1.325 0 0 1-.223-.757c0-.339.074-.624.223-.856.151-.234.358-.413.621-.535.263-.122.564-.184.902-.184.339 0 .64.062.903.184s.468.3.617.535c.151.232.226.517.226.856Zm-.941.03a.933.933 0 0 0-.102-.444.729.729 0 0 0-.277-.305.805.805 0 0 0-.426-.11.822.822 0 0 0-.425.106.71.71 0 0 0-.278.297.996.996 0 0 0-.097.457c0 .174.032.327.097.457a.737.737 0 0 0 .278.3.82.82 0 0 0 .429.11.805.805 0 0 0 .426-.11.734.734 0 0 0 .277-.3c.065-.13.098-.283.098-.457Zm10.617 3.411V44h-3.812v-.645l1.851-2.02a7 7 0 0 0 .481-.593 1.93 1.93 0 0 0 .246-.449c.049-.135.074-.267.074-.395 0-.18-.034-.337-.102-.472a.74.74 0 0 0-.289-.324.848.848 0 0 0-.464-.121.974.974 0 0 0-.532.136.856.856 0 0 0-.324.38 1.296 1.296 0 0 0-.109.546h-.942c0-.33.076-.633.227-.906.151-.276.37-.495.656-.657.287-.164.632-.246 1.035-.246.38 0 .703.064.969.192.266.127.467.308.605.543.141.234.211.511.211.832 0 .177-.028.353-.085.527-.058.175-.14.35-.247.524a4.386 4.386 0 0 1-.371.52 9.17 9.17 0 0 1-.472.523l-1.231 1.355h2.625Zm4.442-2.57v.93c0 .445-.045.825-.133 1.14a1.989 1.989 0 0 1-.375.762 1.473 1.473 0 0 1-.59.43 2.028 2.028 0 0 1-.762.136c-.224 0-.432-.029-.625-.086a1.519 1.519 0 0 1-.91-.742 2.643 2.643 0 0 1-.25-.7 4.607 4.607 0 0 1-.086-.94v-.93c0-.448.044-.826.133-1.133.088-.31.215-.561.379-.754a1.44 1.44 0 0 1 .586-.426c.229-.088.484-.133.765-.133.227 0 .435.029.625.086a1.462 1.462 0 0 1 .907.73c.109.19.192.421.25.692.057.268.086.58.086.938Zm-.942 1.062V40.54a4.04 4.04 0 0 0-.039-.598 1.773 1.773 0 0 0-.117-.441.881.881 0 0 0-.188-.297.656.656 0 0 0-.257-.168.916.916 0 0 0-.325-.054.86.86 0 0 0-.39.085.699.699 0 0 0-.289.266 1.46 1.46 0 0 0-.18.484 3.802 3.802 0 0 0-.059.723v1.203c0 .23.013.431.04.606.026.174.065.324.117.449.052.122.114.224.187.305a.708.708 0 0 0 .258.171.93.93 0 0 0 .324.055c.149 0 .28-.029.395-.086a.727.727 0 0 0 .289-.273c.078-.128.137-.293.176-.496.039-.203.058-.447.058-.73ZM302 70.293V76h-.941v-4.59l-1.395.473v-.777l2.223-.813H302Zm2.734 4.965h.078c.36 0 .659-.047.899-.14.242-.097.435-.23.578-.4.143-.169.246-.368.309-.597a2.85 2.85 0 0 0 .093-.746v-.98a2.23 2.23 0 0 0-.074-.61 1.252 1.252 0 0 0-.203-.441.862.862 0 0 0-.301-.27.758.758 0 0 0-.363-.09.772.772 0 0 0-.387.098.85.85 0 0 0-.285.262c-.075.11-.134.238-.176.387a1.809 1.809 0 0 0-.058.468c0 .157.018.308.054.453.04.144.097.271.172.383.076.112.171.2.285.266a.803.803 0 0 0 .403.097c.146 0 .28-.027.402-.082a1.098 1.098 0 0 0 .621-.922l.36.11c0 .198-.042.393-.125.586a1.83 1.83 0 0 1-.34.523 1.661 1.661 0 0 1-.504.375 1.38 1.38 0 0 1-.621.14c-.271 0-.511-.05-.719-.151a1.507 1.507 0 0 1-.516-.422 1.853 1.853 0 0 1-.304-.61 2.527 2.527 0 0 1 .023-1.492c.083-.24.205-.45.363-.633.159-.185.352-.328.579-.43.229-.103.488-.156.777-.156.307 0 .577.06.808.18.232.12.428.285.586.496.159.211.279.456.36.734.081.28.121.579.121.899v.332c0 .336-.03.66-.09.973a3.23 3.23 0 0 1-.293.863 2.406 2.406 0 0 1-.527.695 2.306 2.306 0 0 1-.797.465 3.34 3.34 0 0 1-1.102.164h-.086v-.777ZM154 22.293V28h-.941v-4.59l-1.395.473v-.777l2.223-.813H154Zm5.789 4.957V28h-3.812v-.645l1.851-2.02a6.98 6.98 0 0 0 .481-.593 1.93 1.93 0 0 0 .246-.449c.049-.135.074-.267.074-.395 0-.18-.034-.337-.102-.472a.74.74 0 0 0-.289-.324.849.849 0 0 0-.465-.122.969.969 0 0 0-.531.137.856.856 0 0 0-.324.38 1.296 1.296 0 0 0-.109.546h-.942c0-.33.076-.633.227-.906.151-.276.37-.495.656-.657.286-.164.632-.246 1.035-.246.38 0 .703.064.969.192.266.127.467.308.605.543.141.234.211.511.211.832 0 .177-.028.353-.086.527a2.471 2.471 0 0 1-.246.524 4.505 4.505 0 0 1-.371.52 9.562 9.562 0 0 1-.472.523l-1.231 1.355h2.625ZM186 22.293V28h-.941v-4.59l-1.395.473v-.777l2.223-.813H186Zm3.082 2.438h.563c.218 0 .399-.038.543-.114a.746.746 0 0 0 .324-.312.966.966 0 0 0 .105-.457c0-.18-.032-.334-.097-.461a.66.66 0 0 0-.29-.301 1.002 1.002 0 0 0-.488-.105 1 1 0 0 0-.453.101.767.767 0 0 0-.434.711h-.945c0-.302.08-.57.238-.805.159-.234.375-.418.649-.55.276-.136.586-.204.93-.204.367 0 .687.062.961.184.276.12.49.3.644.539.154.24.23.537.23.89 0 .162-.037.326-.113.493a1.42 1.42 0 0 1-.336.457 1.75 1.75 0 0 1-.554.332 2.182 2.182 0 0 1-.77.125h-.707v-.524Zm0 .734v-.516h.707c.333 0 .617.04.852.117.237.079.429.187.578.325.148.135.256.29.324.465.07.174.105.359.105.554 0 .266-.048.503-.144.711a1.45 1.45 0 0 1-.402.524 1.798 1.798 0 0 1-.614.324 2.51 2.51 0 0 1-.758.11 2.42 2.42 0 0 1-.703-.102 1.914 1.914 0 0 1-.601-.301 1.491 1.491 0 0 1-.422-.504 1.546 1.546 0 0 1-.152-.703h.941c0 .169.039.319.117.449a.842.842 0 0 0 .336.3c.146.074.313.11.5.11.198 0 .369-.035.512-.105a.737.737 0 0 0 .328-.313c.078-.138.117-.305.117-.5 0-.221-.043-.4-.129-.539a.757.757 0 0 0-.367-.305 1.426 1.426 0 0 0-.562-.101h-.563ZM9.242 76.25V77H5.43v-.644l1.851-2.02a6.86 6.86 0 0 0 .48-.594c.118-.166.2-.316.247-.449a1.133 1.133 0 0 0-.028-.867.743.743 0 0 0-.289-.324.851.851 0 0 0-.464-.121.97.97 0 0 0-.532.136.854.854 0 0 0-.324.38c-.073.158-.11.34-.11.546h-.94c0-.33.075-.633.226-.906.15-.276.37-.495.656-.656.287-.165.632-.247 1.035-.247.38 0 .703.064.969.192.266.127.467.308.605.543.141.234.211.512.211.832 0 .177-.028.353-.085.527-.058.175-.14.35-.247.524a4.499 4.499 0 0 1-.37.52 9.89 9.89 0 0 1-.473.522l-1.23 1.356h2.624Z" fill="#C5C5C5"/></svg>