<svg width="345" height="316" viewBox="0 0 345 316" fill="none" xmlns="http://www.w3.org/2000/svg"><path d="M0 6a6 6 0 0 1 6-6h333a6 6 0 0 1 6 6v304a6 6 0 0 1-6 6H6a6 6 0 0 1-6-6V6Z" fill="#FAF9FC"/><path d="M119.376 41.092c.564 1.08-.009 2.374-1.176 2.723-22.992 6.877-67.436 20.978-77.667 39.58-6.006 12.012 7.207 15.015 12.612 10.21C59.99 87.903 66.833 82.74 73.677 79.15a1.962 1.962 0 0 1 2.075.168l9.041 6.662c.796.587 1.893.504 2.623-.162 22.29-20.337 75.969-21.633 89.786-21.633 13.836 0 63.794 2.15 86.196 22.905.689.638 1.719.75 2.51.244l12.485-7.99a2.008 2.008 0 0 1 2.288.087c6.14 4.6 17.198 12.518 19.908 14.776 3.582 2.986 17.255 2.41 13.875-9.399a1.8 1.8 0 0 0-.163-.392c-10.424-18.521-55.215-33.672-78.167-40.597-1.166-.352-1.739-1.646-1.175-2.726 1.113-2.128 2.345-4.442 2.593-6.621.137-1.21.609-5.356-4.83-7.531-4.673-1.87-7.831.655-8.922 2.268a1.653 1.653 0 0 0-.149.282l-4.095 9.727a2.016 2.016 0 0 1-2.277 1.184c-12.338-2.61-26.207-4.19-40.077-4.48-13.918-.29-27.838.72-40.213 3.296a2.02 2.02 0 0 1-2.243-1.111l-4.124-8.764c-1.001-1.601-4.205-4.324-9.009-2.402-5.439 2.175-4.968 6.32-4.83 7.53.248 2.18 1.48 4.494 2.593 6.622Z" fill="#E7E7E7"/><path d="M41.118 226.236H160.84a3.5 3.5 0 0 1 3.5 3.5v28.035a3.5 3.5 0 0 1-3.5 3.5H41.118c-9.675 0-17.517-7.843-17.517-17.517 0-9.675 7.843-17.518 17.517-17.518Zm262.264 0H183.66a3.5 3.5 0 0 0-3.5 3.5v28.035a3.5 3.5 0 0 0 3.5 3.5h119.722c9.674 0 17.517-7.843 17.517-17.517 0-9.675-7.843-17.518-17.517-17.518Zm-139.24-19.311v-49.464a8 8 0 0 0-8-8H95.874a8.02 8.02 0 0 0-2.718.475l-18.011 6.504a8.006 8.006 0 0 0-3.734 2.794l-5.165 7.043-12.614 15.641a8 8 0 0 1-6.227 2.978h-8.077a8 8 0 0 0-6.684 3.603l-9.062 13.774a8 8 0 0 0 1.027 10.054l.255.255a8 8 0 0 0 5.657 2.343h125.621a8 8 0 0 0 8-8Z" fill="#E9DAFF" stroke="#966ECF"/><rect x="75.5" y="167" width="18" height="18" rx="2" fill="#7685D7"/><path d="M81.637 176.654h-2.28v-.92h2.28c.441 0 .799-.07 1.072-.211.273-.14.473-.335.598-.585.129-.25.193-.536.193-.856a1.82 1.82 0 0 0-.193-.826 1.426 1.426 0 0 0-.598-.621c-.273-.16-.63-.24-1.072-.24H79.62V180h-1.13v-8.531h3.146c.644 0 1.19.111 1.635.334.445.222.783.531 1.013.926.23.39.346.837.346 1.341 0 .547-.115 1.014-.346 1.401-.23.386-.568.681-1.013.884-.446.2-.99.299-1.635.299Zm9.732 2.455V180h-5.584v-.779l2.795-3.112c.344-.382.61-.707.797-.972.191-.27.324-.51.398-.721a1.91 1.91 0 0 0 .118-.656c0-.281-.059-.535-.176-.762a1.323 1.323 0 0 0-.504-.551 1.523 1.523 0 0 0-.809-.205c-.379 0-.695.074-.949.223-.25.144-.437.347-.562.609a2.073 2.073 0 0 0-.188.903h-1.084c0-.481.106-.92.317-1.319.21-.398.523-.715.937-.949.414-.238.924-.357 1.53-.357.538 0 1 .095 1.382.287.383.187.676.453.879.797.207.339.31.738.31 1.195 0 .25-.042.504-.128.762a3.893 3.893 0 0 1-.346.761 5.911 5.911 0 0 1-.51.75 11.39 11.39 0 0 1-.615.727l-2.285 2.478h4.277Z" fill="#fff"/><path d="M100.764 172.252h.816v.876c0 1.992-1.2 3.66-3.024 4.32l-.504-.792c1.632-.576 2.712-1.98 2.712-3.528v-.876Zm.18 0h.816v.864c0 1.416 1.032 2.688 2.628 3.216l-.48.78c-1.812-.6-2.964-2.148-2.964-3.996v-.864Zm-2.592-.36h5.796v.816h-5.796v-.816Zm7.164-.804h.996v6.54h-.996v-6.54Zm.72 2.748h1.884v.84h-1.884v-.84Zm-3.18 4.08c2.208 0 3.564.732 3.564 1.992 0 1.272-1.356 2.004-3.564 2.004s-3.564-.732-3.564-2.004c0-1.26 1.356-1.992 3.564-1.992Zm0 .804c-1.608 0-2.592.432-2.592 1.188 0 .768.984 1.224 2.592 1.224s2.592-.456 2.592-1.224c0-.756-.984-1.188-2.592-1.188Zm13.979-7.632h.996v10.848h-.996v-10.848Zm-3.18 1.164h.984c0 3.144-1.416 5.892-5.04 7.668l-.528-.804c3.132-1.512 4.584-3.816 4.584-6.696v-.168Zm-4.092 0h4.524v.816h-4.524v-.816Zm14.759-.096h.864v.456c0 1.944-2.064 3.372-4.248 3.744l-.384-.792c1.908-.276 3.768-1.524 3.768-2.952v-.456Zm.252 0h.852v.456c0 1.428 1.872 2.676 3.768 2.952l-.372.792c-2.196-.372-4.248-1.8-4.248-3.744v-.456Zm-.216 5.64h.984v4.14h-.984v-4.14Zm-4.38-.528h9.804v.816h-9.804v-.816Zm.912-5.508h7.944v.804h-7.944v-.804Zm12.767 1.908h.78v.924c0 2.292-1.248 4.404-2.964 5.256l-.564-.768c1.596-.768 2.748-2.616 2.748-4.488v-.924Zm.192 0h.78v.924c0 1.752 1.092 3.516 2.64 4.284l-.552.768c-1.692-.84-2.868-2.892-2.868-5.052v-.924Zm-2.64-.696h5.82v.804h-5.82v-.804Zm2.436-1.692h.984v2.136h-.984v-2.136Zm4.704-.192h1.008v10.848h-1.008v-10.848Zm.768 4.452h2.016v.828h-2.016v-.828Zm5.603-3.288h.816v.876c0 1.992-1.2 3.66-3.024 4.32l-.504-.792c1.632-.576 2.712-1.98 2.712-3.528v-.876Zm.18 0h.816v.864c0 1.416 1.032 2.688 2.628 3.216l-.48.78c-1.812-.6-2.964-2.148-2.964-3.996v-.864Zm-2.592-.36h5.796v.816h-5.796v-.816Zm7.164-.804h.996v6.54h-.996v-6.54Zm.72 2.748h1.884v.84h-1.884v-.84Zm-3.18 4.08c2.208 0 3.564.732 3.564 1.992 0 1.272-1.356 2.004-3.564 2.004s-3.564-.732-3.564-2.004c0-1.26 1.356-1.992 3.564-1.992Zm0 .804c-1.608 0-2.592.432-2.592 1.188 0 .768.984 1.224 2.592 1.224s2.592-.456 2.592-1.224c0-.756-.984-1.188-2.592-1.188Z" fill="#7C7C7C"/><path d="M180.358 206.925v-49.464a8 8 0 0 1 8-8h60.268a8.02 8.02 0 0 1 2.718.475l18.011 6.504a8 8 0 0 1 3.734 2.794l5.165 7.043 12.614 15.641a8 8 0 0 0 6.227 2.978h8.077a8.002 8.002 0 0 1 6.684 3.603l9.062 13.774a8 8 0 0 1-1.027 10.054l-.255.255a8 8 0 0 1-5.657 2.343H188.358a8 8 0 0 1-8-8Z" fill="#E9DAFF" stroke="#966ECF"/><rect x="192.5" y="167" width="18" height="18" rx="2" fill="#7685D7"/><path d="M198.637 176.654h-2.28v-.92h2.28c.441 0 .799-.07 1.072-.211.273-.14.473-.335.598-.585.129-.25.193-.536.193-.856a1.82 1.82 0 0 0-.193-.826 1.43 1.43 0 0 0-.598-.621c-.273-.16-.631-.24-1.072-.24h-2.016V180h-1.131v-8.531h3.147c.644 0 1.189.111 1.634.334a2.35 2.35 0 0 1 1.014.926c.231.39.346.837.346 1.341 0 .547-.115 1.014-.346 1.401-.23.386-.568.681-1.014.884-.445.2-.99.299-1.634.299Zm7.705-5.232V180h-1.084v-7.225l-2.186.797v-.978l3.1-1.172h.17Z" fill="#fff"/><path d="M217.764 172.252h.816v.876c0 1.992-1.2 3.66-3.024 4.32l-.504-.792c1.632-.576 2.712-1.98 2.712-3.528v-.876Zm.18 0h.816v.864c0 1.416 1.032 2.688 2.628 3.216l-.48.78c-1.812-.6-2.964-2.148-2.964-3.996v-.864Zm-2.592-.36h5.796v.816h-5.796v-.816Zm7.164-.804h.996v6.54h-.996v-6.54Zm.72 2.748h1.884v.84h-1.884v-.84Zm-3.18 4.08c2.208 0 3.564.732 3.564 1.992 0 1.272-1.356 2.004-3.564 2.004s-3.564-.732-3.564-2.004c0-1.26 1.356-1.992 3.564-1.992Zm0 .804c-1.608 0-2.592.432-2.592 1.188 0 .768.984 1.224 2.592 1.224s2.592-.456 2.592-1.224c0-.756-.984-1.188-2.592-1.188Zm13.979-7.632h.996v10.848h-.996v-10.848Zm-3.18 1.164h.984c0 3.144-1.416 5.892-5.04 7.668l-.528-.804c3.132-1.512 4.584-3.816 4.584-6.696v-.168Zm-4.092 0h4.524v.816h-4.524v-.816Zm14.759-.096h.864v.456c0 1.944-2.064 3.372-4.248 3.744l-.384-.792c1.908-.276 3.768-1.524 3.768-2.952v-.456Zm.252 0h.852v.456c0 1.428 1.872 2.676 3.768 2.952l-.372.792c-2.196-.372-4.248-1.8-4.248-3.744v-.456Zm-.216 5.64h.984v4.14h-.984v-4.14Zm-4.38-.528h9.804v.816h-9.804v-.816Zm.912-5.508h7.944v.804h-7.944v-.804Zm12.767 1.908h.78v.924c0 2.292-1.248 4.404-2.964 5.256l-.564-.768c1.596-.768 2.748-2.616 2.748-4.488v-.924Zm.192 0h.78v.924c0 1.752 1.092 3.516 2.64 4.284l-.552.768c-1.692-.84-2.868-2.892-2.868-5.052v-.924Zm-2.64-.696h5.82v.804h-5.82v-.804Zm2.436-1.692h.984v2.136h-.984v-2.136Zm4.704-.192h1.008v10.848h-1.008v-10.848Zm.768 4.452h2.016v.828h-2.016v-.828Zm5.603-3.288h.816v.876c0 1.992-1.2 3.66-3.024 4.32l-.504-.792c1.632-.576 2.712-1.98 2.712-3.528v-.876Zm.18 0h.816v.864c0 1.416 1.032 2.688 2.628 3.216l-.48.78c-1.812-.6-2.964-2.148-2.964-3.996v-.864Zm-2.592-.36h5.796v.816h-5.796v-.816Zm7.164-.804h.996v6.54h-.996v-6.54Zm.72 2.748h1.884v.84h-1.884v-.84Zm-3.18 4.08c2.208 0 3.564.732 3.564 1.992 0 1.272-1.356 2.004-3.564 2.004s-3.564-.732-3.564-2.004c0-1.26 1.356-1.992 3.564-1.992Zm0 .804c-1.608 0-2.592.432-2.592 1.188 0 .768.984 1.224 2.592 1.224s2.592-.456 2.592-1.224c0-.756-.984-1.188-2.592-1.188Z" fill="#7C7C7C"/><path d="m101.621 134.298-10.778-27.714c-.521-1.34-.29-2.839.722-3.861 6.113-6.176 30.575-27.135 81.016-27.135 50.269 0 74.735 20.815 80.953 27.071 1.046 1.052 1.265 2.611.684 3.976l-11.833 27.781a4 4 0 0 1-3.68 2.432H105.349a3.999 3.999 0 0 1-3.728-2.55Z" fill="#E9DAFF" stroke="#966ECF"/><rect x="132.033" y="99" width="18" height="18" rx="2" fill="#7685D7"/><path d="M141.169 108.654h-2.279v-.92h2.279c.442 0 .799-.07 1.073-.211.273-.14.472-.335.597-.585.129-.25.194-.536.194-.856 0-.293-.065-.568-.194-.826a1.427 1.427 0 0 0-.597-.621c-.274-.16-.631-.24-1.073-.24h-2.015V112h-1.131v-8.531h3.146c.645 0 1.19.111 1.635.334a2.36 2.36 0 0 1 1.014.926c.23.39.345.837.345 1.341 0 .547-.115 1.014-.345 1.401a2.217 2.217 0 0 1-1.014.884c-.445.2-.99.299-1.635.299Z" fill="#fff"/><path d="M162.049 102.076h.996v7.86h-.996v-7.86Zm.696 3.228h1.908v.828h-1.908v-.828Zm-7.62 1.896h.84c2.232 0 3.492-.06 4.944-.36l.108.804c-1.488.312-2.772.384-5.052.384h-.84v-.828Zm0-4.188h4.788v.828h-3.804v3.804h-.984v-4.632Zm1.164 8.868h7.248v.816h-7.248v-.816Zm0-2.724h.996v3.096h-.996v-3.096Zm17.279-7.068h.996v10.848h-.996v-10.848Zm-3.18 1.164h.984c0 3.144-1.416 5.892-5.04 7.668l-.528-.804c3.132-1.512 4.584-3.816 4.584-6.696v-.168Zm-4.092 0h4.524v.816h-4.524v-.816Zm14.759-.096h.864v.456c0 1.944-2.064 3.372-4.248 3.744l-.384-.792c1.908-.276 3.768-1.524 3.768-2.952v-.456Zm.252 0h.852v.456c0 1.428 1.872 2.676 3.768 2.952l-.372.792c-2.196-.372-4.248-1.8-4.248-3.744v-.456Zm-.216 5.64h.984v4.14h-.984v-4.14Zm-4.38-.528h9.804v.816h-9.804v-.816Zm.912-5.508h7.944v.804h-7.944v-.804Zm12.767 1.908h.78v.924c0 2.292-1.248 4.404-2.964 5.256l-.564-.768c1.596-.768 2.748-2.616 2.748-4.488v-.924Zm.192 0h.78v.924c0 1.752 1.092 3.516 2.64 4.284l-.552.768c-1.692-.84-2.868-2.892-2.868-5.052v-.924Zm-2.64-.696h5.82v.804h-5.82v-.804Zm2.436-1.692h.984v2.136h-.984v-2.136Zm4.704-.192h1.008v10.848h-1.008v-10.848Zm.768 4.452h2.016v.828h-2.016v-.828Zm5.603-3.288h.816v.876c0 1.992-1.2 3.66-3.024 4.32l-.504-.792c1.632-.576 2.712-1.98 2.712-3.528v-.876Zm.18 0h.816v.864c0 1.416 1.032 2.688 2.628 3.216l-.48.78c-1.812-.6-2.964-2.148-2.964-3.996v-.864Zm-2.592-.36h5.796v.816h-5.796v-.816Zm7.164-.804h.996v6.54h-.996v-6.54Zm.72 2.748h1.884v.84h-1.884v-.84Zm-3.18 4.08c2.208 0 3.564.732 3.564 1.992 0 1.272-1.356 2.004-3.564 2.004s-3.564-.732-3.564-2.004c0-1.26 1.356-1.992 3.564-1.992Zm0 .804c-1.608 0-2.592.432-2.592 1.188 0 .768.984 1.224 2.592 1.224s2.592-.456 2.592-1.224c0-.756-.984-1.188-2.592-1.188Z" fill="#7C7C7C"/><rect x="190" y="234" width="18" height="18" rx="2" fill="#7685D7"/><path d="M196.137 243.654h-2.28v-.92h2.28c.441 0 .799-.07 1.072-.211.273-.14.473-.335.598-.585.129-.25.193-.536.193-.856a1.82 1.82 0 0 0-.193-.826 1.43 1.43 0 0 0-.598-.621c-.273-.16-.631-.24-1.072-.24h-2.016V247h-1.131v-8.531h3.147c.644 0 1.189.111 1.634.334a2.35 2.35 0 0 1 1.014.926c.231.39.346.837.346 1.341 0 .547-.115 1.014-.346 1.401-.23.386-.568.681-1.014.884-.445.2-.99.299-1.634.299Zm5.724-1.453h.774c.379 0 .691-.062.937-.187a1.29 1.29 0 0 0 .557-.522c.125-.222.187-.472.187-.75 0-.328-.054-.603-.164-.826a1.092 1.092 0 0 0-.492-.504c-.219-.113-.496-.17-.832-.17-.305 0-.574.061-.808.182a1.32 1.32 0 0 0-.545.504 1.491 1.491 0 0 0-.194.773h-1.084c0-.433.11-.828.328-1.183.219-.356.526-.639.92-.85.399-.211.86-.316 1.383-.316.516 0 .967.091 1.354.275.386.18.687.449.902.809.215.355.322.798.322 1.33 0 .214-.051.445-.152.691a2.053 2.053 0 0 1-.463.68 2.394 2.394 0 0 1-.809.521c-.332.133-.73.199-1.195.199h-.926v-.656Zm0 .891v-.651h.926c.543 0 .992.065 1.348.194.355.129.635.301.838.515.207.215.351.452.433.709.086.254.129.508.129.762 0 .399-.068.752-.205 1.061a2.17 2.17 0 0 1-.568.785 2.423 2.423 0 0 1-.856.486 3.38 3.38 0 0 1-1.072.164c-.371 0-.721-.053-1.049-.158a2.712 2.712 0 0 1-.861-.457 2.142 2.142 0 0 1-.586-.744 2.337 2.337 0 0 1-.211-1.014h1.084c0 .297.064.557.193.779.133.223.321.397.563.522.246.121.535.182.867.182.332 0 .617-.057.855-.17.243-.118.428-.293.557-.528.133-.234.199-.529.199-.884 0-.356-.074-.647-.222-.874a1.31 1.31 0 0 0-.633-.509 2.443 2.443 0 0 0-.955-.17h-.774Z" fill="#fff"/><path d="M215.264 239.252h.816v.876c0 1.992-1.2 3.66-3.024 4.32l-.504-.792c1.632-.576 2.712-1.98 2.712-3.528v-.876Zm.18 0h.816v.864c0 1.416 1.032 2.688 2.628 3.216l-.48.78c-1.812-.6-2.964-2.148-2.964-3.996v-.864Zm-2.592-.36h5.796v.816h-5.796v-.816Zm7.164-.804h.996v6.54h-.996v-6.54Zm.72 2.748h1.884v.84h-1.884v-.84Zm-3.18 4.08c2.208 0 3.564.732 3.564 1.992 0 1.272-1.356 2.004-3.564 2.004s-3.564-.732-3.564-2.004c0-1.26 1.356-1.992 3.564-1.992Zm0 .804c-1.608 0-2.592.432-2.592 1.188 0 .768.984 1.224 2.592 1.224s2.592-.456 2.592-1.224c0-.756-.984-1.188-2.592-1.188Zm13.979-7.632h.996v10.848h-.996v-10.848Zm-3.18 1.164h.984c0 3.144-1.416 5.892-5.04 7.668l-.528-.804c3.132-1.512 4.584-3.816 4.584-6.696v-.168Zm-4.092 0h4.524v.816h-4.524v-.816Zm14.759-.096h.864v.456c0 1.944-2.064 3.372-4.248 3.744l-.384-.792c1.908-.276 3.768-1.524 3.768-2.952v-.456Zm.252 0h.852v.456c0 1.428 1.872 2.676 3.768 2.952l-.372.792c-2.196-.372-4.248-1.8-4.248-3.744v-.456Zm-.216 5.64h.984v4.14h-.984v-4.14Zm-4.38-.528h9.804v.816h-9.804v-.816Zm.912-5.508h7.944v.804h-7.944v-.804Zm12.767 1.908h.78v.924c0 2.292-1.248 4.404-2.964 5.256l-.564-.768c1.596-.768 2.748-2.616 2.748-4.488v-.924Zm.192 0h.78v.924c0 1.752 1.092 3.516 2.64 4.284l-.552.768c-1.692-.84-2.868-2.892-2.868-5.052v-.924Zm-2.64-.696h5.82v.804h-5.82v-.804Zm2.436-1.692h.984v2.136h-.984v-2.136Zm4.704-.192h1.008v10.848h-1.008v-10.848Zm.768 4.452h2.016v.828h-2.016v-.828Zm5.603-3.288h.816v.876c0 1.992-1.2 3.66-3.024 4.32l-.504-.792c1.632-.576 2.712-1.98 2.712-3.528v-.876Zm.18 0h.816v.864c0 1.416 1.032 2.688 2.628 3.216l-.48.78c-1.812-.6-2.964-2.148-2.964-3.996v-.864Zm-2.592-.36h5.796v.816h-5.796v-.816Zm7.164-.804h.996v6.54h-.996v-6.54Zm.72 2.748h1.884v.84h-1.884v-.84Zm-3.18 4.08c2.208 0 3.564.732 3.564 1.992 0 1.272-1.356 2.004-3.564 2.004s-3.564-.732-3.564-2.004c0-1.26 1.356-1.992 3.564-1.992Zm0 .804c-1.608 0-2.592.432-2.592 1.188 0 .768.984 1.224 2.592 1.224s2.592-.456 2.592-1.224c0-.756-.984-1.188-2.592-1.188Z" fill="#7C7C7C"/><rect x="78" y="234" width="18" height="18" rx="2" fill="#7685D7"/><path d="M84.137 243.654h-2.28v-.92h2.28c.441 0 .799-.07 1.072-.211.273-.14.473-.335.598-.585.129-.25.193-.536.193-.856a1.82 1.82 0 0 0-.193-.826 1.426 1.426 0 0 0-.598-.621c-.273-.16-.63-.24-1.072-.24H82.12V247h-1.13v-8.531h3.146c.644 0 1.19.111 1.635.334.445.222.783.531 1.013.926.23.39.346.837.346 1.341 0 .547-.115 1.014-.346 1.401-.23.386-.568.681-1.013.884-.446.2-.99.299-1.635.299Zm9.908.475v.891H87.88v-.639l3.82-5.912h.885l-.95 1.711-2.525 3.949h4.934Zm-1.19-5.66V247h-1.084v-8.531h1.085Z" fill="#fff"/><path d="M103.264 239.252h.816v.876c0 1.992-1.2 3.66-3.024 4.32l-.504-.792c1.632-.576 2.712-1.98 2.712-3.528v-.876Zm.18 0h.816v.864c0 1.416 1.032 2.688 2.628 3.216l-.48.78c-1.812-.6-2.964-2.148-2.964-3.996v-.864Zm-2.592-.36h5.796v.816h-5.796v-.816Zm7.164-.804h.996v6.54h-.996v-6.54Zm.72 2.748h1.884v.84h-1.884v-.84Zm-3.18 4.08c2.208 0 3.564.732 3.564 1.992 0 1.272-1.356 2.004-3.564 2.004s-3.564-.732-3.564-2.004c0-1.26 1.356-1.992 3.564-1.992Zm0 .804c-1.608 0-2.592.432-2.592 1.188 0 .768.984 1.224 2.592 1.224s2.592-.456 2.592-1.224c0-.756-.984-1.188-2.592-1.188Zm13.979-7.632h.996v10.848h-.996v-10.848Zm-3.18 1.164h.984c0 3.144-1.416 5.892-5.04 7.668l-.528-.804c3.132-1.512 4.584-3.816 4.584-6.696v-.168Zm-4.092 0h4.524v.816h-4.524v-.816Zm14.759-.096h.864v.456c0 1.944-2.064 3.372-4.248 3.744l-.384-.792c1.908-.276 3.768-1.524 3.768-2.952v-.456Zm.252 0h.852v.456c0 1.428 1.872 2.676 3.768 2.952l-.372.792c-2.196-.372-4.248-1.8-4.248-3.744v-.456Zm-.216 5.64h.984v4.14h-.984v-4.14Zm-4.38-.528h9.804v.816h-9.804v-.816Zm.912-5.508h7.944v.804h-7.944v-.804Zm12.767 1.908h.78v.924c0 2.292-1.248 4.404-2.964 5.256l-.564-.768c1.596-.768 2.748-2.616 2.748-4.488v-.924Zm.192 0h.78v.924c0 1.752 1.092 3.516 2.64 4.284l-.552.768c-1.692-.84-2.868-2.892-2.868-5.052v-.924Zm-2.64-.696h5.82v.804h-5.82v-.804Zm2.436-1.692h.984v2.136h-.984v-2.136Zm4.704-.192h1.008v10.848h-1.008v-10.848Zm.768 4.452h2.016v.828h-2.016v-.828Zm5.603-3.288h.816v.876c0 1.992-1.2 3.66-3.024 4.32l-.504-.792c1.632-.576 2.712-1.98 2.712-3.528v-.876Zm.18 0h.816v.864c0 1.416 1.032 2.688 2.628 3.216l-.48.78c-1.812-.6-2.964-2.148-2.964-3.996v-.864Zm-2.592-.36h5.796v.816h-5.796v-.816Zm7.164-.804h.996v6.54h-.996v-6.54Zm.72 2.748h1.884v.84h-1.884v-.84Zm-3.18 4.08c2.208 0 3.564.732 3.564 1.992 0 1.272-1.356 2.004-3.564 2.004s-3.564-.732-3.564-2.004c0-1.26 1.356-1.992 3.564-1.992Zm0 .804c-1.608 0-2.592.432-2.592 1.188 0 .768.984 1.224 2.592 1.224s2.592-.456 2.592-1.224c0-.756-.984-1.188-2.592-1.188Z" fill="#7C7C7C"/><path d="M143.844 46.088h.96v10.848h-.96V46.088Zm-3.948 3.888h2.076v.828h-2.076v-.828Zm1.776-3.636h.936v10.044h-.936V46.34Zm-3.864 1.428h.768v1.38c0 2.376-.912 4.62-2.508 5.628l-.612-.744c1.512-.912 2.352-2.892 2.352-4.884v-1.38Zm.204 0h.768v1.38c0 1.884.816 3.768 2.304 4.632l-.612.732c-1.584-.96-2.46-3.096-2.46-5.364v-1.38Zm-2.256-.42h4.956v.828h-4.956v-.828Zm17.531.074V56h-1.084v-7.225l-2.185.797v-.978l3.099-1.172h.17Zm7.963 1.078h3.276v.828h-3.276V48.5Zm0 3.432h3.276v.828h-3.276v-.828Zm-1.992-5.016c1.572 0 2.7 1.476 2.7 3.78 0 2.316-1.128 3.792-2.7 3.792-1.584 0-2.7-1.476-2.7-3.792 0-2.304 1.116-3.78 2.7-3.78Zm0 .9c-1.044 0-1.764 1.128-1.764 2.88 0 1.764.72 2.916 1.764 2.916s1.764-1.152 1.764-2.916c0-1.752-.72-2.88-1.764-2.88Zm5.052-1.74h.984v10.872h-.984V46.076Zm11.279.012h.948v6.396h-.948v-6.396Zm-1.728 2.724h2.052v.828h-2.052v-.828Zm-.636-2.52h.936v6.132h-.936v-6.132ZM169.253 53h7.284v3.936h-.984v-3.12h-6.3V53Zm1.86-6.108h1.008c0 2.592-1.44 4.548-4.176 5.7l-.492-.732c2.412-.984 3.66-2.604 3.66-4.632v-.336Zm-3.228 0h3.588v.816h-3.588v-.816Zm18.503-.816h.984v10.872h-.984V46.076Zm-2.256 4.092h2.4v.828h-2.4v-.828Zm-5.196 3.348h.828c2.04 0 3.324-.036 4.848-.324l.096.816c-1.56.276-2.88.336-4.944.336h-.828v-.828Zm0-6.444h5.016v.828h-4.032v5.904h-.984v-6.732Zm.732 3.048h3.816v.804h-3.816v-.804Zm10.427-2.976h4.992v7.068h-4.992v-7.068Zm4.02.804h-3.048v5.46h3.048v-5.46Zm3.24-1.872h.996v10.872h-.996V46.076Zm3.791.528h.996v4.344h-.996v-4.344Zm0 3.804h.84c1.728 0 3.18-.096 4.8-.42l.132.828c-1.68.336-3.168.42-4.932.42h-.84v-.828Zm4.224-2.52h3.312v.816h-3.312v-.816Zm3.072-1.8h.996v5.604h-.996v-5.604Zm-5.988 6.108h6.984v2.616h-5.964v1.608h-.984v-2.364h5.964v-1.044h-6v-.816Zm.036 3.792h7.332v.804h-7.332v-.804Z" fill="#BDBDBD"/></svg>