<svg width="345" height="316" viewBox="0 0 345 316" fill="none" xmlns="http://www.w3.org/2000/svg"><path d="M0 6a6 6 0 0 1 6-6h333a6 6 0 0 1 6 6v304a6 6 0 0 1-6 6H6a6 6 0 0 1-6-6V6Z" fill="#FAF9FC"/><path d="m140.593 31.31-4.003-9.597a6 6 0 0 0-6.653-3.586l-16.471 3.117c-1.437.273-2.969.054-4.04-.942-.552-.513-1.069-1.124-1.28-1.746-.14-.411-.168-.892-.132-1.38.138-1.897 1.833-3.168 3.694-3.556C120.199 11.847 145.79 7 171.794 7c25.985 0 52.843 5.763 60.727 7.596 1.486.345 2.858 1.242 3.287 2.706.184.63.272 1.296.098 1.846-.301.952-1.43 1.705-2.39 2.192-.935.474-2.012.51-3.038.294l-16.341-3.435a6 6 0 0 0-6.666 3.323l-4.705 10.027A6 6 0 0 1 197.334 35h-51.203a6.002 6.002 0 0 1-5.538-3.69Z" fill="#E7E7E7"/><path d="M122.229 80.936c-6.031 1.108-10.185-12.292-12.221-22.723-.675-3.458 1.547-6.683 4.994-7.418 12.412-2.645 38.977-7.925 38.977-6.579 2.165 25.2 7.216 25.92 8.419 26.88 1.202.96 14.913.48 21.166 0 3.984-.306 6.3-11.587 7.362-20.614.418-3.555 3.293-6.393 6.863-6.123 10.975.829 24.492 4.363 33.292 7.115 2.939.92 4.863 3.74 4.581 6.806-1.763 19.145-8.362 23.172-11.689 22.656-13.241-.24-32.498-4.842-50.751-4.98-24.299-.181-46.817 4.212-50.993 4.98Zm0 40.998c-6.072 1.146-10.243-12.815-12.263-23.558-.646-3.436 1.552-6.634 4.968-7.382 12.382-2.712 39.045-8.157 39.045-6.772 2.165 25.881 7.216 26.62 8.419 27.606 1.202.986 14.913.493 21.166 0 4.007-.316 6.328-12.037 7.381-21.335.403-3.558 3.276-6.402 6.847-6.124 11.001.854 24.555 4.498 33.352 7.328 2.908.935 4.801 3.736 4.535 6.779-1.737 19.825-8.368 23.99-11.706 23.458-13.241-.247-32.498-4.973-50.751-5.113-24.299-.188-46.817 4.325-50.993 5.113Zm0 39.003c-5.987 1.071-10.124-11.769-12.176-21.884-.706-3.481 1.541-6.735 5.019-7.456 12.442-2.578 38.907-7.694 38.907-6.387 2.165 24.519 7.216 25.219 8.419 26.153 1.202.934 14.913.467 21.166 0 3.959-.295 6.271-11.137 7.342-19.892.435-3.552 3.311-6.385 6.879-6.122 10.95.804 24.43 4.228 33.233 6.904 2.97.903 4.925 3.742 4.625 6.832-1.789 18.463-8.354 22.353-11.67 21.852-13.241-.234-32.498-4.711-50.751-4.844-24.299-.177-46.817 4.097-50.993 4.844Zm0 40.997c-6.072 1.146-10.243-12.815-12.263-23.558-.646-3.436 1.552-6.634 4.968-7.382 12.382-2.712 39.045-8.157 39.045-6.772 2.165 25.881 7.216 26.62 8.419 27.606 1.202.986 14.913.493 21.166 0 4.007-.316 6.328-12.037 7.381-21.335.403-3.558 3.276-6.402 6.847-6.124 11.001.854 24.555 4.498 33.352 7.328 2.908.935 4.801 3.736 4.535 6.779-1.737 19.825-8.368 23.99-11.706 23.458-13.241-.247-32.498-4.973-50.751-5.113-24.299-.188-46.817 4.325-50.993 5.113Zm-.489 39.959c-7.467 1.444-10.964-12.035-12.225-22.558-.416-3.475 2.051-6.556 5.492-7.191l31.743-5.859a7 7 0 0 1 8.168 5.691l2.873 16.614c.665 3.846-1.944 7.493-5.797 8.119-9.69 1.572-23.189 3.818-30.254 5.184Zm101.52 0c7.467 1.444 10.964-12.035 12.225-22.558.416-3.475-2.051-6.556-5.492-7.191l-31.743-5.859a7 7 0 0 0-8.168 5.691l-2.873 16.614c-.665 3.846 1.944 7.493 5.797 8.119 9.69 1.572 23.189 3.818 30.254 5.184ZM159 243.5h26a5.5 5.5 0 0 1 5.5 5.5v36c0 10.217-8.283 18.5-18.5 18.5s-18.5-8.283-18.5-18.5v-36a5.5 5.5 0 0 1 5.5-5.5Z" fill="#E9DAFF" stroke="#966ECF"/><path d="M149.484 18.5h3.276v.828h-3.276V18.5Zm0 3.432h3.276v.828h-3.276v-.828Zm-1.992-5.016c1.572 0 2.7 1.476 2.7 3.78 0 2.316-1.128 3.792-2.7 3.792-1.584 0-2.7-1.476-2.7-3.792 0-2.304 1.116-3.78 2.7-3.78Zm0 .9c-1.044 0-1.764 1.128-1.764 2.88 0 1.764.72 2.916 1.764 2.916s1.764-1.152 1.764-2.916c0-1.752-.72-2.88-1.764-2.88Zm5.052-1.74h.984v10.872h-.984V16.076Zm11.279.012h.948v6.396h-.948v-6.396Zm-1.728 2.724h2.052v.828h-2.052v-.828Zm-.636-2.52h.936v6.132h-.936v-6.132ZM157.487 23h7.284v3.936h-.984v-3.12h-6.3V23Zm1.86-6.108h1.008c0 2.592-1.44 4.548-4.176 5.7l-.492-.732c2.412-.984 3.66-2.604 3.66-4.632v-.336Zm-3.228 0h3.588v.816h-3.588v-.816Zm18.503-.816h.984v10.872h-.984V16.076Zm-2.256 4.092h2.4v.828h-2.4v-.828Zm-5.196 3.348h.828c2.04 0 3.324-.036 4.848-.324l.096.816c-1.56.276-2.88.336-4.944.336h-.828v-.828Zm0-6.444h5.016v.828h-4.032v5.904h-.984v-6.732Zm.732 3.048h3.816v.804h-3.816v-.804Zm10.427-2.976h4.992v7.068h-4.992v-7.068Zm4.02.804h-3.048v5.46h3.048v-5.46Zm3.24-1.872h.996v10.872h-.996V16.076Zm3.791.528h.996v4.344h-.996v-4.344Zm0 3.804h.84c1.728 0 3.18-.096 4.8-.42l.132.828c-1.68.336-3.168.42-4.932.42h-.84v-.828Zm4.224-2.52h3.312v.816h-3.312v-.816Zm3.072-1.8h.996v5.604h-.996v-5.604Zm-5.988 6.108h6.984v2.616h-5.964v1.608h-.984v-2.364h5.964v-1.044h-6v-.816Zm.036 3.792h7.332v.804h-7.332v-.804Z" fill="#BDBDBD"/><rect x="79" y="51" width="59" height="20" rx="9" fill="#7685D7"/><path d="M90.468 56.636h.804V58.4c0 2.292-1.38 4.596-3.108 5.448l-.576-.792c1.572-.744 2.88-2.784 2.88-4.656v-1.764Zm.192 0h.804V58.4c0 1.836 1.308 3.708 2.904 4.392l-.564.792c-1.752-.816-3.144-2.928-3.144-5.184v-1.764Zm-2.712-.444h6.06v.84h-6.06v-.84Zm7.524-1.104h.996v10.848h-.996V55.088Zm5.795.564h.828v1.104c0 2.088-1.176 3.816-2.988 4.524l-.528-.804c1.632-.6 2.688-2.064 2.688-3.72v-1.104Zm.18 0h.816v1.176c0 1.464 1.08 2.82 2.64 3.36l-.528.78c-1.74-.648-2.928-2.256-2.928-4.14v-1.176Zm4.608-.564h.996v6.576h-.996v-6.576Zm.72 2.796h1.884v.84h-1.884v-.84Zm-3.18 4.08c2.22 0 3.564.732 3.564 1.98s-1.344 1.968-3.564 1.968c-2.22 0-3.564-.72-3.564-1.968s1.344-1.98 3.564-1.98Zm0 .792c-1.608 0-2.592.432-2.592 1.188s.984 1.188 2.592 1.188 2.592-.432 2.592-1.188-.984-1.188-2.592-1.188Zm14.934-.627v.89h-6.164v-.638l3.821-5.912h.884l-.949 1.71-2.525 3.95h4.933Zm-1.189-5.66V65h-1.084v-8.531h1.084Zm2.053 4.127h9.804v.804h-9.804v-.804Zm4.416-5.544h.984v1.512h-.984v-1.512Zm-.048 1.608h.876v.18c0 1.776-1.992 2.808-4.368 3.048l-.3-.768c2.1-.18 3.792-1.044 3.792-2.28v-.18Zm.204 0h.876v.18c0 1.236 1.692 2.1 3.792 2.28l-.3.768c-2.376-.24-4.368-1.272-4.368-3.048v-.18Zm-3.564-.516h7.8v.792h-7.8v-.792Zm3.888 6.18c2.34 0 3.72.636 3.72 1.8 0 1.164-1.38 1.788-3.72 1.788-2.34 0-3.72-.624-3.72-1.788 0-1.164 1.38-1.8 3.72-1.8Zm0 .756c-1.716 0-2.712.36-2.712 1.044 0 .66.996 1.032 2.712 1.032 1.716 0 2.712-.372 2.712-1.032 0-.684-.996-1.044-2.712-1.044Z" fill="#fff"/><rect x="79" y="89" width="59" height="20" rx="9" fill="#7685D7"/><path d="M90.468 94.636h.804V96.4c0 2.292-1.38 4.596-3.108 5.448l-.576-.792c1.572-.744 2.88-2.784 2.88-4.656v-1.764Zm.192 0h.804V96.4c0 1.836 1.308 3.708 2.904 4.392l-.564.792c-1.752-.816-3.144-2.928-3.144-5.184v-1.764Zm-2.712-.444h6.06v.84h-6.06v-.84Zm7.524-1.104h.996v10.848h-.996V93.088Zm5.795.564h.828v1.104c0 2.088-1.176 3.816-2.988 4.524l-.528-.804c1.632-.6 2.688-2.064 2.688-3.72v-1.104Zm.18 0h.816v1.176c0 1.464 1.08 2.82 2.64 3.36l-.528.78c-1.74-.648-2.928-2.256-2.928-4.14v-1.176Zm4.608-.564h.996v6.576h-.996v-6.576Zm.72 2.796h1.884v.84h-1.884v-.84Zm-3.18 4.08c2.22 0 3.564.732 3.564 1.98s-1.344 1.968-3.564 1.968c-2.22 0-3.564-.72-3.564-1.968s1.344-1.98 3.564-1.98Zm0 .792c-1.608 0-2.592.432-2.592 1.188s.984 1.188 2.592 1.188 2.592-.432 2.592-1.188-.984-1.188-2.592-1.188Zm10.751-2.555h.773c.379 0 .692-.062.938-.187.25-.13.435-.303.556-.522.125-.223.188-.473.188-.75 0-.328-.055-.603-.164-.826a1.105 1.105 0 0 0-.492-.504c-.219-.113-.497-.17-.833-.17-.304 0-.574.06-.808.182a1.328 1.328 0 0 0-.545.504 1.495 1.495 0 0 0-.193.773h-1.084c0-.433.109-.828.328-1.183.219-.356.525-.64.92-.85.398-.211.859-.316 1.382-.316.516 0 .967.091 1.354.275.387.18.688.45.902.809.215.355.323.798.323 1.33 0 .215-.051.445-.153.691a2.034 2.034 0 0 1-.463.68 2.386 2.386 0 0 1-.808.521c-.332.133-.731.2-1.196.2h-.925V98.2Zm0 .89v-.65h.925c.543 0 .993.065 1.348.194.356.129.635.3.838.515.207.215.352.452.434.71.086.253.129.507.129.761 0 .399-.069.752-.206 1.061-.132.308-.322.57-.568.785a2.419 2.419 0 0 1-.855.486 3.39 3.39 0 0 1-1.073.164c-.371 0-.72-.053-1.048-.158a2.706 2.706 0 0 1-.862-.457 2.142 2.142 0 0 1-.586-.744 2.351 2.351 0 0 1-.211-1.014h1.084c0 .297.065.557.194.779.132.223.32.397.562.522.246.121.535.182.867.182.332 0 .618-.057.856-.17a1.23 1.23 0 0 0 .556-.528c.133-.234.2-.529.2-.884 0-.356-.075-.647-.223-.873a1.303 1.303 0 0 0-.633-.51 2.452 2.452 0 0 0-.955-.17h-.773Zm5.047-.495h9.804v.804h-9.804v-.804Zm4.416-5.544h.984v1.512h-.984v-1.512Zm-.048 1.608h.876v.18c0 1.776-1.992 2.808-4.368 3.048l-.3-.768c2.1-.18 3.792-1.044 3.792-2.28v-.18Zm.204 0h.876v.18c0 1.236 1.692 2.1 3.792 2.28l-.3.768c-2.376-.24-4.368-1.272-4.368-3.048v-.18Zm-3.564-.516h7.8v.792h-7.8v-.792Zm3.888 6.18c2.34 0 3.72.636 3.72 1.8 0 1.164-1.38 1.788-3.72 1.788-2.34 0-3.72-.624-3.72-1.788 0-1.164 1.38-1.8 3.72-1.8Zm0 .756c-1.716 0-2.712.36-2.712 1.044 0 .66.996 1.032 2.712 1.032 1.716 0 2.712-.372 2.712-1.032 0-.684-.996-1.044-2.712-1.044Z" fill="#fff"/><rect x="79" y="133" width="59" height="20" rx="9" fill="#7685D7"/><path d="M90.468 138.636h.804v1.764c0 2.292-1.38 4.596-3.108 5.448l-.576-.792c1.572-.744 2.88-2.784 2.88-4.656v-1.764Zm.192 0h.804v1.764c0 1.836 1.308 3.708 2.904 4.392l-.564.792c-1.752-.816-3.144-2.928-3.144-5.184v-1.764Zm-2.712-.444h6.06v.84h-6.06v-.84Zm7.524-1.104h.996v10.848h-.996v-10.848Zm5.795.564h.828v1.104c0 2.088-1.176 3.816-2.988 4.524l-.528-.804c1.632-.6 2.688-2.064 2.688-3.72v-1.104Zm.18 0h.816v1.176c0 1.464 1.08 2.82 2.64 3.36l-.528.78c-1.74-.648-2.928-2.256-2.928-4.14v-1.176Zm4.608-.564h.996v6.576h-.996v-6.576Zm.72 2.796h1.884v.84h-1.884v-.84Zm-3.18 4.08c2.22 0 3.564.732 3.564 1.98s-1.344 1.968-3.564 1.968c-2.22 0-3.564-.72-3.564-1.968s1.344-1.98 3.564-1.98Zm0 .792c-1.608 0-2.592.432-2.592 1.188s.984 1.188 2.592 1.188 2.592-.432 2.592-1.188-.984-1.188-2.592-1.188Zm14.759 1.353V147h-5.584v-.779l2.794-3.112c.344-.382.61-.707.797-.972.192-.27.325-.51.399-.721.078-.215.117-.434.117-.656 0-.281-.059-.535-.176-.762a1.318 1.318 0 0 0-.504-.551 1.52 1.52 0 0 0-.808-.205c-.379 0-.696.074-.95.223-.25.144-.437.347-.562.609a2.073 2.073 0 0 0-.188.903h-1.084c0-.481.106-.92.317-1.319.211-.398.523-.715.937-.949.414-.238.924-.357 1.53-.357.539 0 1 .095 1.382.287.383.187.676.453.879.797.207.339.311.738.311 1.195a2.4 2.4 0 0 1-.129.762 3.854 3.854 0 0 1-.346.761 5.872 5.872 0 0 1-.509.75c-.192.246-.397.489-.616.727l-2.285 2.478h4.278Zm1.039-3.513h9.804v.804h-9.804v-.804Zm4.416-5.544h.984v1.512h-.984v-1.512Zm-.048 1.608h.876v.18c0 1.776-1.992 2.808-4.368 3.048l-.3-.768c2.1-.18 3.792-1.044 3.792-2.28v-.18Zm.204 0h.876v.18c0 1.236 1.692 2.1 3.792 2.28l-.3.768c-2.376-.24-4.368-1.272-4.368-3.048v-.18Zm-3.564-.516h7.8v.792h-7.8v-.792Zm3.888 6.18c2.34 0 3.72.636 3.72 1.8 0 1.164-1.38 1.788-3.72 1.788-2.34 0-3.72-.624-3.72-1.788 0-1.164 1.38-1.8 3.72-1.8Zm0 .756c-1.716 0-2.712.36-2.712 1.044 0 .66.996 1.032 2.712 1.032 1.716 0 2.712-.372 2.712-1.032 0-.684-.996-1.044-2.712-1.044Z" fill="#fff"/><rect x="79" y="169" width="59" height="20" rx="9" fill="#7685D7"/><path d="M90.468 174.636h.804v1.764c0 2.292-1.38 4.596-3.108 5.448l-.576-.792c1.572-.744 2.88-2.784 2.88-4.656v-1.764Zm.192 0h.804v1.764c0 1.836 1.308 3.708 2.904 4.392l-.564.792c-1.752-.816-3.144-2.928-3.144-5.184v-1.764Zm-2.712-.444h6.06v.84h-6.06v-.84Zm7.524-1.104h.996v10.848h-.996v-10.848Zm5.795.564h.828v1.104c0 2.088-1.176 3.816-2.988 4.524l-.528-.804c1.632-.6 2.688-2.064 2.688-3.72v-1.104Zm.18 0h.816v1.176c0 1.464 1.08 2.82 2.64 3.36l-.528.78c-1.74-.648-2.928-2.256-2.928-4.14v-1.176Zm4.608-.564h.996v6.576h-.996v-6.576Zm.72 2.796h1.884v.84h-1.884v-.84Zm-3.18 4.08c2.22 0 3.564.732 3.564 1.98s-1.344 1.968-3.564 1.968c-2.22 0-3.564-.72-3.564-1.968s1.344-1.98 3.564-1.98Zm0 .792c-1.608 0-2.592.432-2.592 1.188s.984 1.188 2.592 1.188 2.592-.432 2.592-1.188-.984-1.188-2.592-1.188Zm12.731-6.334V183h-1.084v-7.225l-2.185.797v-.978l3.099-1.172h.17Zm3.067 4.174h9.804v.804h-9.804v-.804Zm4.416-5.544h.984v1.512h-.984v-1.512Zm-.048 1.608h.876v.18c0 1.776-1.992 2.808-4.368 3.048l-.3-.768c2.1-.18 3.792-1.044 3.792-2.28v-.18Zm.204 0h.876v.18c0 1.236 1.692 2.1 3.792 2.28l-.3.768c-2.376-.24-4.368-1.272-4.368-3.048v-.18Zm-3.564-.516h7.8v.792h-7.8v-.792Zm3.888 6.18c2.34 0 3.72.636 3.72 1.8 0 1.164-1.38 1.788-3.72 1.788-2.34 0-3.72-.624-3.72-1.788 0-1.164 1.38-1.8 3.72-1.8Zm0 .756c-1.716 0-2.712.36-2.712 1.044 0 .66.996 1.032 2.712 1.032 1.716 0 2.712-.372 2.712-1.032 0-.684-.996-1.044-2.712-1.044Z" fill="#fff"/><rect x="79" y="216" width="63" height="20" rx="9" fill="#7685D7"/><path d="M90.468 221.636h.804v1.764c0 2.292-1.38 4.596-3.108 5.448l-.576-.792c1.572-.744 2.88-2.784 2.88-4.656v-1.764Zm.192 0h.804v1.764c0 1.836 1.308 3.708 2.904 4.392l-.564.792c-1.752-.816-3.144-2.928-3.144-5.184v-1.764Zm-2.712-.444h6.06v.84h-6.06v-.84Zm7.524-1.104h.996v10.848h-.996v-10.848Zm10.511 0h.996v10.848h-.996v-10.848Zm.756 4.452h2.016v.84h-2.016v-.84Zm-8.16-2.724h6.396v.816h-6.396v-.816Zm3.24 1.716c1.536 0 2.64 1.032 2.64 2.496s-1.104 2.496-2.64 2.496c-1.524 0-2.64-1.032-2.64-2.496s1.116-2.496 2.64-2.496Zm0 .828c-.984 0-1.692.684-1.692 1.668 0 .972.708 1.668 1.692 1.668s1.692-.696 1.692-1.668c0-.984-.708-1.668-1.692-1.668Zm-.516-4.14h.996v1.968h-.996v-1.968Zm12.099 1.249h1.096l2.795 6.955 2.789-6.955h1.102L117.715 230h-.856l-3.457-8.531Zm-.357 0h.967l.158 5.203V230h-1.125v-8.531Zm7.523 0h.967V230h-1.125v-3.328l.158-5.203Zm2.551 4.127h9.804v.804h-9.804v-.804Zm4.416-5.544h.984v1.512h-.984v-1.512Zm-.048 1.608h.876v.18c0 1.776-1.992 2.808-4.368 3.048l-.3-.768c2.1-.18 3.792-1.044 3.792-2.28v-.18Zm.204 0h.876v.18c0 1.236 1.692 2.1 3.792 2.28l-.3.768c-2.376-.24-4.368-1.272-4.368-3.048v-.18Zm-3.564-.516h7.8v.792h-7.8v-.792Zm3.888 6.18c2.34 0 3.72.636 3.72 1.8 0 1.164-1.38 1.788-3.72 1.788-2.34 0-3.72-.624-3.72-1.788 0-1.164 1.38-1.8 3.72-1.8Zm0 .756c-1.716 0-2.712.36-2.712 1.044 0 .66.996 1.032 2.712 1.032 1.716 0 2.712-.372 2.712-1.032 0-.684-.996-1.044-2.712-1.044Z" fill="#fff"/><rect x="138" y="264" width="72" height="20" rx="9" fill="#7685D7"/><path d="M149.666 269.252h.816v.876c0 1.992-1.2 3.66-3.024 4.32l-.504-.792c1.632-.576 2.712-1.98 2.712-3.528v-.876Zm.18 0h.816v.864c0 1.416 1.032 2.688 2.628 3.216l-.48.78c-1.812-.6-2.964-2.148-2.964-3.996v-.864Zm-2.592-.36h5.796v.816h-5.796v-.816Zm7.164-.804h.996v6.54h-.996v-6.54Zm.72 2.748h1.884v.84h-1.884v-.84Zm-3.18 4.08c2.208 0 3.564.732 3.564 1.992 0 1.272-1.356 2.004-3.564 2.004s-3.564-.732-3.564-2.004c0-1.26 1.356-1.992 3.564-1.992Zm0 .804c-1.608 0-2.592.432-2.592 1.188 0 .768.984 1.224 2.592 1.224s2.592-.456 2.592-1.224c0-.756-.984-1.188-2.592-1.188Zm13.979-7.632h.996v10.848h-.996v-10.848Zm-3.18 1.164h.984c0 3.144-1.416 5.892-5.04 7.668l-.528-.804c3.132-1.512 4.584-3.816 4.584-6.696v-.168Zm-4.092 0h4.524v.816h-4.524v-.816Zm14.759-.096h.864v.456c0 1.944-2.064 3.372-4.248 3.744l-.384-.792c1.908-.276 3.768-1.524 3.768-2.952v-.456Zm.252 0h.852v.456c0 1.428 1.872 2.676 3.768 2.952l-.372.792c-2.196-.372-4.248-1.8-4.248-3.744v-.456Zm-.216 5.64h.984v4.14h-.984v-4.14Zm-4.38-.528h9.804v.816h-9.804v-.816Zm.912-5.508h7.944v.804h-7.944v-.804Zm12.768 1.908h.78v.924c0 2.292-1.248 4.404-2.964 5.256l-.564-.768c1.596-.768 2.748-2.616 2.748-4.488v-.924Zm.192 0h.78v.924c0 1.752 1.092 3.516 2.64 4.284l-.552.768c-1.692-.84-2.868-2.892-2.868-5.052v-.924Zm-2.64-.696h5.82v.804h-5.82v-.804Zm2.436-1.692h.984v2.136h-.984v-2.136Zm4.704-.192h1.008v10.848h-1.008v-10.848Zm.768 4.452h2.016v.828h-2.016v-.828Zm5.603-3.288h.816v.876c0 1.992-1.2 3.66-3.024 4.32l-.504-.792c1.632-.576 2.712-1.98 2.712-3.528v-.876Zm.18 0h.816v.864c0 1.416 1.032 2.688 2.628 3.216l-.48.78c-1.812-.6-2.964-2.148-2.964-3.996v-.864Zm-2.592-.36h5.796v.816h-5.796v-.816Zm7.164-.804h.996v6.54h-.996v-6.54Zm.72 2.748h1.884v.84h-1.884v-.84Zm-3.18 4.08c2.208 0 3.564.732 3.564 1.992 0 1.272-1.356 2.004-3.564 2.004s-3.564-.732-3.564-2.004c0-1.26 1.356-1.992 3.564-1.992Zm0 .804c-1.608 0-2.592.432-2.592 1.188 0 .768.984 1.224 2.592 1.224s2.592-.456 2.592-1.224c0-.756-.984-1.188-2.592-1.188Z" fill="#fff"/></svg>