<svg width="332" height="202" viewBox="0 0 332 202" fill="none" xmlns="http://www.w3.org/2000/svg"><mask id="a" fill="#fff"><path d="M26.652 1.785a2.128 2.128 0 1 1 4.198.695l-1.984 12.021a2.15 2.15 0 0 1-.046.215c1.1.286 2.156.642 3.14 1.053a3.07 3.07 0 0 1 .204-.33l6.695-9.433a3.036 3.036 0 0 1 4.24-.716 3.05 3.05 0 0 1 .715 4.247l-6.695 9.433-.056.076c.285.304.53.612.73.922l10.57-4.007a2.43 2.43 0 0 1 3.135 1.417 2.438 2.438 0 0 1-1.414 3.142l-11.1 4.207c.068 1.555-.048 3.216-.25 4.769l10.115 4.062a2.438 2.438 0 0 1 1.353 3.168 2.43 2.43 0 0 1-3.162 1.356l-9.285-3.729a1.392 1.392 0 0 1-.037.07c-1.793 3.195-4.69 11.82-2.791 22.32l10.944-2.685a2.437 2.437 0 0 1 1.156 4.734L35.8 61.546c1.593 9.189 4.555 26.254 12.21 41.436l10.869-6.255a2.43 2.43 0 0 1 3.32.9 2.44 2.44 0 0 1-.898 3.327l-10.97 6.312c8.45 14.506 21.756 26.284 43.094 26.018l.249.001.234.001.463-10.969a2.434 2.434 0 0 1 2.532-2.332 2.435 2.435 0 0 1 2.327 2.537l-.46 10.933c6.248.366 12.888 1.243 17.64 1.871 3.031.401 5.295.7 6.198.7.301 0 1.298-.059 2.864-.158l-1.106-11.256a2.437 2.437 0 0 1 2.182-2.664 2.434 2.434 0 0 1 2.659 2.187l1.122 11.426c5.113-.318 12.333-.744 20.443-1.09l-.416-11.984a2.434 2.434 0 0 1 2.346-2.52 2.434 2.434 0 0 1 2.515 2.35l.415 11.961c6.875-.251 14.184-.425 21.262-.418l-.395-11.373a2.434 2.434 0 0 1 2.346-2.52 2.434 2.434 0 0 1 2.515 2.35l.402 11.578c7.27.1 14.117.424 19.774 1.091l.299-10.22a2.434 2.434 0 0 1 2.502-2.364 2.435 2.435 0 0 1 2.36 2.507l-.316 10.789c.5.091.985.187 1.454.286.134.029.247.035.383.02 1.239-.138 3.268-.212 5.862-.305 4.775-.173 11.466-.415 18.667-1.257l-.834-11.785a2.436 2.436 0 0 1 2.254-2.603 2.434 2.434 0 0 1 2.598 2.259l.812 11.479c11.506-1.769 23.502-5.29 30.615-12.586l-6.947-8.54a2.44 2.44 0 0 1 .348-3.428 2.429 2.429 0 0 1 3.422.349l6.429 7.903c9.895-11.738 11.949-16.946 14.17-22.583.538-1.364 1.086-2.754 1.757-4.267.756-1.704 1.603-4.245 2.471-7.235l-12.009-3.83a2.438 2.438 0 0 1-1.58-3.061 2.43 2.43 0 0 1 3.055-1.583l11.825 3.77c2.907-11.13 5.662-25.134 5.662-27.659v-.024l-11.15.351a2.434 2.434 0 0 1-2.507-2.359 2.435 2.435 0 0 1 2.354-2.512l10.799-.34c-.494-3.46-1.289-7.916-2.096-11.5l-9.912 3.481a2.43 2.43 0 0 1-3.099-1.493 2.438 2.438 0 0 1 1.49-3.106l10.257-3.603c-.252-.724-.488-1.227-.696-1.436-.63-.631-.947-2.52-.625-4.71l-10.419-5.492a2.44 2.44 0 0 1-1.021-3.29 2.43 2.43 0 0 1 3.285-1.023l9.827 5.179a9.9 9.9 0 0 1 1.199-1.553l-5.502-6.407a2.44 2.44 0 0 1 .258-3.436 2.428 2.428 0 0 1 3.429.257l6.022 7.013a19.11 19.11 0 0 1 1.675-.481l-.407-10.183a3.044 3.044 0 0 1 2.916-3.166 3.042 3.042 0 0 1 3.159 2.922l.39 9.763a22.12 22.12 0 0 1 2.978.242l3.813-9.726a2.43 2.43 0 0 1 3.153-1.377 2.438 2.438 0 0 1 1.374 3.16l-3.667 9.352c.871.43 1.672.952 2.376 1.575a3.08 3.08 0 0 1 .546-.336l10.419-4.999a3.038 3.038 0 0 1 4.055 1.432 3.049 3.049 0 0 1-1.429 4.063l-10.42 4.998a3.03 3.03 0 0 1-.332.137c-.036 1.602-.341 3.788-.798 6.237l11.647 2.808a2.437 2.437 0 0 1-1.137 4.739l-11.509-2.775c-1.517 6.661-3.552 13.725-4.28 16.095-.026.087-.059.197-.097.33l10.584 3.375a2.437 2.437 0 0 1-1.475 4.644l-10.405-3.318-1.05 3.878-.001.003c-1.656 6.12-3.937 14.55-6.261 22.872l11.289 3.6a2.437 2.437 0 0 1 1.579 3.06 2.43 2.43 0 0 1-3.054 1.584l-11.134-3.55c-2.757 9.742-5.421 18.687-7.011 22.774l9.191 6.399a2.44 2.44 0 0 1 .609 3.392 2.43 2.43 0 0 1-3.385.611l-8.791-6.121c-.573.874-1.132 1.712-1.664 2.507-1.788 2.677-3.262 4.883-3.851 6.455-.494 1.322-2.509 12.5-3.862 23.28l11.611.679a2.435 2.435 0 0 1 2.286 2.574 2.433 2.433 0 0 1-2.569 2.291l-11.891-.695c-.761 7.211-1.047 13.486-.135 15.429.137.41.276.765.41 1.069.326.734.12 1.761-.576 2.159l-4.153 2.378a1.232 1.232 0 0 1-1.51-.23c-6.068-6.427-20.128-17.748-33.679-17.589a1.177 1.177 0 0 0-1.125.932l-10.478 46.66a1.207 1.207 0 0 1-1.418.936c-6.514-1.319-39.308-7.682-65.875-7.682-19.223 0-30.696 2.03-43.527 4.301-6.671 1.181-13.708 2.426-22.392 3.485a1.223 1.223 0 0 1-1.342-.953l-9.883-46.604a1.188 1.188 0 0 0-1.28-.948c-9.027.937-26.457 5.327-33.278 16.476-.36.587-1.117.81-1.713.469l-4.675-2.677a1.206 1.206 0 0 1-.614-1.057c.026-4.649-.03-10.841-.236-17.147l-10.553 1.037a2.434 2.434 0 0 1-2.658-2.187 2.435 2.435 0 0 1 2.183-2.663l10.837-1.065c-.486-10.524-1.45-20.331-3.225-22.658-1.079-1.413-2.588-4.21-4.36-8.113l-9.367 5.391a2.43 2.43 0 0 1-3.32-.9 2.439 2.439 0 0 1 .898-3.326l9.837-5.662c-2.522-6.048-5.392-13.806-8.24-22.658l-10.2 2.502a2.437 2.437 0 0 1-1.157-4.734l9.891-2.426a378.039 378.039 0 0 1-4.701-16.643L12.13 67.926a2.437 2.437 0 0 1-1.157-4.734l10.057-2.466c-.824-3.172-1.624-6.185-2.382-9.04l-.01-.034-.004-.017v-.001c-2.006-7.553-3.715-13.986-4.775-19.266L3.011 35.03a2.437 2.437 0 0 1-1.157-4.734l11.185-2.743c-.216-1.638-.332-3.123-.33-4.453L1.694 18.012a2.439 2.439 0 0 1-1.19-3.233 2.43 2.43 0 0 1 3.226-1.193l9.845 4.547c.567-1.237 1.43-2.149 2.637-2.73.086-.04.173-.082.26-.121L12.688 4.807a3.048 3.048 0 0 1 1.823-3.9 3.038 3.038 0 0 1 3.893 1.826l3.934 10.883c.043.119.078.239.105.359a20.734 20.734 0 0 1 2.201.046c.005-.072.013-.144.025-.216l1.984-12.02Z"/></mask><path d="M26.652 1.785a2.128 2.128 0 1 1 4.198.695l-1.984 12.021a2.15 2.15 0 0 1-.046.215c1.1.286 2.156.642 3.14 1.053a3.07 3.07 0 0 1 .204-.33l6.695-9.433a3.036 3.036 0 0 1 4.24-.716 3.05 3.05 0 0 1 .715 4.247l-6.695 9.433-.056.076c.285.304.53.612.73.922l10.57-4.007a2.43 2.43 0 0 1 3.135 1.417 2.438 2.438 0 0 1-1.414 3.142l-11.1 4.207c.068 1.555-.048 3.216-.25 4.769l10.115 4.062a2.438 2.438 0 0 1 1.353 3.168 2.43 2.43 0 0 1-3.162 1.356l-9.285-3.729a1.392 1.392 0 0 1-.037.07c-1.793 3.195-4.69 11.82-2.791 22.32l10.944-2.685a2.437 2.437 0 0 1 1.156 4.734L35.8 61.546c1.593 9.189 4.555 26.254 12.21 41.436l10.869-6.255a2.43 2.43 0 0 1 3.32.9 2.44 2.44 0 0 1-.898 3.327l-10.97 6.312c8.45 14.506 21.756 26.284 43.094 26.018l.249.001.234.001.463-10.969a2.434 2.434 0 0 1 2.532-2.332 2.435 2.435 0 0 1 2.327 2.537l-.46 10.933c6.248.366 12.888 1.243 17.64 1.871 3.031.401 5.295.7 6.198.7.301 0 1.298-.059 2.864-.158l-1.106-11.256a2.437 2.437 0 0 1 2.182-2.664 2.434 2.434 0 0 1 2.659 2.187l1.122 11.426c5.113-.318 12.333-.744 20.443-1.09l-.416-11.984a2.434 2.434 0 0 1 2.346-2.52 2.434 2.434 0 0 1 2.515 2.35l.415 11.961c6.875-.251 14.184-.425 21.262-.418l-.395-11.373a2.434 2.434 0 0 1 2.346-2.52 2.434 2.434 0 0 1 2.515 2.35l.402 11.578c7.27.1 14.117.424 19.774 1.091l.299-10.22a2.434 2.434 0 0 1 2.502-2.364 2.435 2.435 0 0 1 2.36 2.507l-.316 10.789c.5.091.985.187 1.454.286.134.029.247.035.383.02 1.239-.138 3.268-.212 5.862-.305 4.775-.173 11.466-.415 18.667-1.257l-.834-11.785a2.436 2.436 0 0 1 2.254-2.603 2.434 2.434 0 0 1 2.598 2.259l.812 11.479c11.506-1.769 23.502-5.29 30.615-12.586l-6.947-8.54a2.44 2.44 0 0 1 .348-3.428 2.429 2.429 0 0 1 3.422.349l6.429 7.903c9.895-11.738 11.949-16.946 14.17-22.583.538-1.364 1.086-2.754 1.757-4.267.756-1.704 1.603-4.245 2.471-7.235l-12.009-3.83a2.438 2.438 0 0 1-1.58-3.061 2.43 2.43 0 0 1 3.055-1.583l11.825 3.77c2.907-11.13 5.662-25.134 5.662-27.659v-.024l-11.15.351a2.434 2.434 0 0 1-2.507-2.359 2.435 2.435 0 0 1 2.354-2.512l10.799-.34c-.494-3.46-1.289-7.916-2.096-11.5l-9.912 3.481a2.43 2.43 0 0 1-3.099-1.493 2.438 2.438 0 0 1 1.49-3.106l10.257-3.603c-.252-.724-.488-1.227-.696-1.436-.63-.631-.947-2.52-.625-4.71l-10.419-5.492a2.44 2.44 0 0 1-1.021-3.29 2.43 2.43 0 0 1 3.285-1.023l9.827 5.179a9.9 9.9 0 0 1 1.199-1.553l-5.502-6.407a2.44 2.44 0 0 1 .258-3.436 2.428 2.428 0 0 1 3.429.257l6.022 7.013a19.11 19.11 0 0 1 1.675-.481l-.407-10.183a3.044 3.044 0 0 1 2.916-3.166 3.042 3.042 0 0 1 3.159 2.922l.39 9.763a22.12 22.12 0 0 1 2.978.242l3.813-9.726a2.43 2.43 0 0 1 3.153-1.377 2.438 2.438 0 0 1 1.374 3.16l-3.667 9.352c.871.43 1.672.952 2.376 1.575a3.08 3.08 0 0 1 .546-.336l10.419-4.999a3.038 3.038 0 0 1 4.055 1.432 3.049 3.049 0 0 1-1.429 4.063l-10.42 4.998a3.03 3.03 0 0 1-.332.137c-.036 1.602-.341 3.788-.798 6.237l11.647 2.808a2.437 2.437 0 0 1-1.137 4.739l-11.509-2.775c-1.517 6.661-3.552 13.725-4.28 16.095-.026.087-.059.197-.097.33l10.584 3.375a2.437 2.437 0 0 1-1.475 4.644l-10.405-3.318-1.05 3.878-.001.003c-1.656 6.12-3.937 14.55-6.261 22.872l11.289 3.6a2.437 2.437 0 0 1 1.579 3.06 2.43 2.43 0 0 1-3.054 1.584l-11.134-3.55c-2.757 9.742-5.421 18.687-7.011 22.774l9.191 6.399a2.44 2.44 0 0 1 .609 3.392 2.43 2.43 0 0 1-3.385.611l-8.791-6.121c-.573.874-1.132 1.712-1.664 2.507-1.788 2.677-3.262 4.883-3.851 6.455-.494 1.322-2.509 12.5-3.862 23.28l11.611.679a2.435 2.435 0 0 1 2.286 2.574 2.433 2.433 0 0 1-2.569 2.291l-11.891-.695c-.761 7.211-1.047 13.486-.135 15.429.137.41.276.765.41 1.069.326.734.12 1.761-.576 2.159l-4.153 2.378a1.232 1.232 0 0 1-1.51-.23c-6.068-6.427-20.128-17.748-33.679-17.589a1.177 1.177 0 0 0-1.125.932l-10.478 46.66a1.207 1.207 0 0 1-1.418.936c-6.514-1.319-39.308-7.682-65.875-7.682-19.223 0-30.696 2.03-43.527 4.301-6.671 1.181-13.708 2.426-22.392 3.485a1.223 1.223 0 0 1-1.342-.953l-9.883-46.604a1.188 1.188 0 0 0-1.28-.948c-9.027.937-26.457 5.327-33.278 16.476-.36.587-1.117.81-1.713.469l-4.675-2.677a1.206 1.206 0 0 1-.614-1.057c.026-4.649-.03-10.841-.236-17.147l-10.553 1.037a2.434 2.434 0 0 1-2.658-2.187 2.435 2.435 0 0 1 2.183-2.663l10.837-1.065c-.486-10.524-1.45-20.331-3.225-22.658-1.079-1.413-2.588-4.21-4.36-8.113l-9.367 5.391a2.43 2.43 0 0 1-3.32-.9 2.439 2.439 0 0 1 .898-3.326l9.837-5.662c-2.522-6.048-5.392-13.806-8.24-22.658l-10.2 2.502a2.437 2.437 0 0 1-1.157-4.734l9.891-2.426a378.039 378.039 0 0 1-4.701-16.643L12.13 67.926a2.437 2.437 0 0 1-1.157-4.734l10.057-2.466c-.824-3.172-1.624-6.185-2.382-9.04l-.01-.034-.004-.017v-.001c-2.006-7.553-3.715-13.986-4.775-19.266L3.011 35.03a2.437 2.437 0 0 1-1.157-4.734l11.185-2.743c-.216-1.638-.332-3.123-.33-4.453L1.694 18.012a2.439 2.439 0 0 1-1.19-3.233 2.43 2.43 0 0 1 3.226-1.193l9.845 4.547c.567-1.237 1.43-2.149 2.637-2.73.086-.04.173-.082.26-.121L12.688 4.807a3.048 3.048 0 0 1 1.823-3.9 3.038 3.038 0 0 1 3.893 1.826l3.934 10.883c.043.119.078.239.105.359a20.734 20.734 0 0 1 2.201.046c.005-.072.013-.144.025-.216l1.984-12.02Z" fill="#FCFCFC" stroke="#DEDEDE" stroke-width="2" mask="url(#a)"/><path class="gate1" d="m242.034 153.556.777.108a1.734 1.734 0 0 0-.209.517l-10.478 46.661a.707.707 0 0 1-.831.555c-6.473-1.311-38.941-7.612-65.472-7.691l.232-46.783c15.352.025 34.743 1.738 50.371 3.456a947.971 947.971 0 0 1 19.783 2.389c2.478.326 4.462.597 5.827.788Z" fill="#AAE8A9" stroke="#DEDEDE"/><path class="gate2" d="M164.821 193.705c-18.968.035-30.387 2.056-43.115 4.309h-.002c-6.67 1.18-13.695 2.423-22.364 3.481a.723.723 0 0 1-.792-.561l-9.884-46.604a1.719 1.719 0 0 0-.21-.533l.611-.075c1.364-.165 3.346-.4 5.823-.684 4.952-.566 11.878-1.321 19.772-2.077 15.62-1.496 35.011-2.994 50.393-3.038l-.232 45.782Z" fill="#F57575" stroke="#DEDEDE"/><mask id="b" fill="#fff"><path d="M26.652 1.781a2.128 2.128 0 1 1 4.198.695l-1.984 11.996a2.15 2.15 0 0 1-.046.215c1.1.285 2.156.641 3.14 1.05a3.136 3.136 0 0 1 .204-.329l6.695-9.413a3.04 3.04 0 1 1 4.955 3.523l-6.695 9.414-.056.076c.285.303.53.611.73.92l10.57-3.998a2.432 2.432 0 0 1 1.721 4.549l-11.1 4.2c.068 1.551-.048 3.208-.25 4.759l10.115 4.053a2.432 2.432 0 0 1-1.81 4.515l-9.284-3.72a1.433 1.433 0 0 1-.037.07c-1.793 3.187-4.69 11.796-2.791 22.274l10.944-2.679a2.432 2.432 0 0 1 1.156 4.724L35.8 61.425c1.593 9.17 4.555 26.201 12.21 41.353l10.869-6.242a2.432 2.432 0 0 1 2.422 4.217l-10.97 6.301c8.45 14.477 21.756 26.231 43.094 25.966l.249.001.234.001.463-10.948a2.432 2.432 0 1 1 4.86.205l-.462 10.911c6.249.366 12.888 1.241 17.64 1.868h.001c3.031.4 5.295.698 6.198.698.301 0 1.298-.059 2.864-.157l-1.106-11.234a2.433 2.433 0 0 1 4.841-.476l1.122 11.403c5.113-.317 12.333-.743 20.443-1.088l-.416-11.96a2.431 2.431 0 1 1 4.861-.169l.415 11.937c6.875-.251 14.184-.424 21.262-.417l-.395-11.351a2.431 2.431 0 1 1 4.861-.169l.402 11.554c7.27.1 14.117.424 19.774 1.089l.299-10.199a2.433 2.433 0 0 1 4.862.142l-.316 10.768c.5.091.985.186 1.454.286.134.028.247.034.383.019 1.239-.138 3.267-.211 5.86-.305h.002c4.776-.172 11.467-.414 18.667-1.253l-.834-11.762a2.432 2.432 0 1 1 4.852-.344l.812 11.457c11.506-1.766 23.502-5.28 30.615-12.562l-6.947-8.522a2.432 2.432 0 1 1 3.77-3.074l6.429 7.888c9.895-11.714 11.949-16.913 14.171-22.538.537-1.362 1.085-2.748 1.756-4.258.756-1.701 1.603-4.237 2.471-7.222l-12.009-3.822a2.432 2.432 0 0 1 1.475-4.635l11.825 3.764c2.907-11.11 5.662-25.086 5.662-27.605v-.024l-11.15.35a2.432 2.432 0 0 1-.153-4.861l10.799-.34c-.494-3.452-1.289-7.9-2.096-11.477l-9.912 3.475a2.431 2.431 0 1 1-1.609-4.59l10.257-3.596c-.252-.723-.488-1.225-.696-1.433-.63-.63-.947-2.516-.625-4.702l-10.419-5.48a2.432 2.432 0 1 1 2.264-4.305l9.827 5.169a9.882 9.882 0 0 1 1.199-1.55l-5.502-6.394a2.431 2.431 0 1 1 3.687-3.173l6.022 6.999a19.113 19.113 0 0 1 1.675-.48l-.407-10.163a3.04 3.04 0 0 1 6.075-.243l.39 9.743c.999.016 1.999.094 2.978.242l3.813-9.707a2.432 2.432 0 0 1 4.527 1.779l-3.667 9.334c.871.43 1.672.95 2.376 1.572.167-.128.349-.241.546-.336l10.419-4.988a3.04 3.04 0 0 1 2.626 5.484l-10.42 4.988a2.86 2.86 0 0 1-.332.136c-.036 1.6-.341 3.781-.798 6.226l11.647 2.802a2.432 2.432 0 0 1-1.137 4.73l-11.509-2.77c-1.517 6.648-3.552 13.697-4.28 16.063l-.097.329 10.584 3.369a2.431 2.431 0 1 1-1.475 4.634l-10.405-3.311-1.05 3.87-.001.003a2959.77 2959.77 0 0 1-6.261 22.826l11.289 3.593a2.432 2.432 0 0 1-1.475 4.635l-11.134-3.543c-2.757 9.723-5.421 18.651-7.011 22.729l9.191 6.387a2.432 2.432 0 0 1-2.776 3.994l-8.791-6.109c-.567.865-1.121 1.693-1.649 2.48l-.015.023c-1.788 2.671-3.262 4.873-3.851 6.442-.494 1.319-2.509 12.475-3.862 23.234l11.611.677a2.432 2.432 0 0 1-.283 4.856l-11.891-.694c-.761 7.197-1.047 13.46-.135 15.399.137.408.276.763.41 1.066.326.733.12 1.758-.576 2.156l-4.152 2.373a1.236 1.236 0 0 1-1.511-.23c-6.068-6.415-20.128-17.713-33.679-17.554a1.176 1.176 0 0 0-1.125.93c-35.425-4.418-118.037-1.746-154.915.143a1.188 1.188 0 0 0-1.28-.947c-9.027.936-26.457 5.317-33.278 16.444-.36.586-1.117.809-1.713.468l-4.675-2.672a1.202 1.202 0 0 1-.614-1.055 463.88 463.88 0 0 0-.236-17.113l-10.553 1.035a2.431 2.431 0 1 1-.475-4.84l10.837-1.063c-.486-10.503-1.45-20.29-3.225-22.613-1.079-1.41-2.588-4.202-4.36-8.097l-9.367 5.38a2.432 2.432 0 1 1-2.422-4.218l9.837-5.65c-2.522-6.036-5.392-13.778-8.24-22.613l-10.2 2.497a2.432 2.432 0 0 1-1.157-4.724l9.891-2.422a376.726 376.726 0 0 1-4.701-16.61L12.13 67.793a2.432 2.432 0 1 1-1.156-4.725l10.056-2.462a1692.84 1692.84 0 0 0-2.382-9.02l-.01-.035-.004-.017v-.002c-2.006-7.537-3.715-13.958-4.775-19.227L3.011 34.96a2.432 2.432 0 1 1-1.157-4.725l11.185-2.738c-.216-1.634-.332-3.116-.33-4.444L1.694 17.976a2.432 2.432 0 1 1 2.036-4.417l9.845 4.538c.567-1.235 1.43-2.144 2.637-2.724l.26-.122-3.785-10.453a3.04 3.04 0 0 1 5.716-2.07l3.934 10.861c.043.119.078.238.105.358a20.76 20.76 0 0 1 2.201.046c.005-.071.013-.143.025-.215l1.984-11.997Z"/></mask><path d="M26.652 1.781a2.128 2.128 0 1 1 4.198.695l-1.984 11.996a2.15 2.15 0 0 1-.046.215c1.1.285 2.156.641 3.14 1.05a3.136 3.136 0 0 1 .204-.329l6.695-9.413a3.04 3.04 0 1 1 4.955 3.523l-6.695 9.414-.056.076c.285.303.53.611.73.92l10.57-3.998a2.432 2.432 0 0 1 1.721 4.549l-11.1 4.2c.068 1.551-.048 3.208-.25 4.759l10.115 4.053a2.432 2.432 0 0 1-1.81 4.515l-9.284-3.72a1.433 1.433 0 0 1-.037.07c-1.793 3.187-4.69 11.796-2.791 22.274l10.944-2.679a2.432 2.432 0 0 1 1.156 4.724L35.8 61.425c1.593 9.17 4.555 26.201 12.21 41.353l10.869-6.242a2.432 2.432 0 0 1 2.422 4.217l-10.97 6.301c8.45 14.477 21.756 26.231 43.094 25.966l.249.001.234.001.463-10.948a2.432 2.432 0 1 1 4.86.205l-.462 10.911c6.249.366 12.888 1.241 17.64 1.868h.001c3.031.4 5.295.698 6.198.698.301 0 1.298-.059 2.864-.157l-1.106-11.234a2.433 2.433 0 0 1 4.841-.476l1.122 11.403c5.113-.317 12.333-.743 20.443-1.088l-.416-11.96a2.431 2.431 0 1 1 4.861-.169l.415 11.937c6.875-.251 14.184-.424 21.262-.417l-.395-11.351a2.431 2.431 0 1 1 4.861-.169l.402 11.554c7.27.1 14.117.424 19.774 1.089l.299-10.199a2.433 2.433 0 0 1 4.862.142l-.316 10.768c.5.091.985.186 1.454.286.134.028.247.034.383.019 1.239-.138 3.267-.211 5.86-.305h.002c4.776-.172 11.467-.414 18.667-1.253l-.834-11.762a2.432 2.432 0 1 1 4.852-.344l.812 11.457c11.506-1.766 23.502-5.28 30.615-12.562l-6.947-8.522a2.432 2.432 0 1 1 3.77-3.074l6.429 7.888c9.895-11.714 11.949-16.913 14.171-22.538.537-1.362 1.085-2.748 1.756-4.258.756-1.701 1.603-4.237 2.471-7.222l-12.009-3.822a2.432 2.432 0 0 1 1.475-4.635l11.825 3.764c2.907-11.11 5.662-25.086 5.662-27.605v-.024l-11.15.35a2.432 2.432 0 0 1-.153-4.861l10.799-.34c-.494-3.452-1.289-7.9-2.096-11.477l-9.912 3.475a2.431 2.431 0 1 1-1.609-4.59l10.257-3.596c-.252-.723-.488-1.225-.696-1.433-.63-.63-.947-2.516-.625-4.702l-10.419-5.48a2.432 2.432 0 1 1 2.264-4.305l9.827 5.169a9.882 9.882 0 0 1 1.199-1.55l-5.502-6.394a2.431 2.431 0 1 1 3.687-3.173l6.022 6.999a19.113 19.113 0 0 1 1.675-.48l-.407-10.163a3.04 3.04 0 0 1 6.075-.243l.39 9.743c.999.016 1.999.094 2.978.242l3.813-9.707a2.432 2.432 0 0 1 4.527 1.779l-3.667 9.334c.871.43 1.672.95 2.376 1.572.167-.128.349-.241.546-.336l10.419-4.988a3.04 3.04 0 0 1 2.626 5.484l-10.42 4.988a2.86 2.86 0 0 1-.332.136c-.036 1.6-.341 3.781-.798 6.226l11.647 2.802a2.432 2.432 0 0 1-1.137 4.73l-11.509-2.77c-1.517 6.648-3.552 13.697-4.28 16.063l-.097.329 10.584 3.369a2.431 2.431 0 1 1-1.475 4.634l-10.405-3.311-1.05 3.87-.001.003a2959.77 2959.77 0 0 1-6.261 22.826l11.289 3.593a2.432 2.432 0 0 1-1.475 4.635l-11.134-3.543c-2.757 9.723-5.421 18.651-7.011 22.729l9.191 6.387a2.432 2.432 0 0 1-2.776 3.994l-8.791-6.109c-.567.865-1.121 1.693-1.649 2.48l-.015.023c-1.788 2.671-3.262 4.873-3.851 6.442-.494 1.319-2.509 12.475-3.862 23.234l11.611.677a2.432 2.432 0 0 1-.283 4.856l-11.891-.694c-.761 7.197-1.047 13.46-.135 15.399.137.408.276.763.41 1.066.326.733.12 1.758-.576 2.156l-4.152 2.373a1.236 1.236 0 0 1-1.511-.23c-6.068-6.415-20.128-17.713-33.679-17.554a1.176 1.176 0 0 0-1.125.93c-35.425-4.418-118.037-1.746-154.915.143a1.188 1.188 0 0 0-1.28-.947c-9.027.936-26.457 5.317-33.278 16.444-.36.586-1.117.809-1.713.468l-4.675-2.672a1.202 1.202 0 0 1-.614-1.055 463.88 463.88 0 0 0-.236-17.113l-10.553 1.035a2.431 2.431 0 1 1-.475-4.84l10.837-1.063c-.486-10.503-1.45-20.29-3.225-22.613-1.079-1.41-2.588-4.202-4.36-8.097l-9.367 5.38a2.432 2.432 0 1 1-2.422-4.218l9.837-5.65c-2.522-6.036-5.392-13.778-8.24-22.613l-10.2 2.497a2.432 2.432 0 0 1-1.157-4.724l9.891-2.422a376.726 376.726 0 0 1-4.701-16.61L12.13 67.793a2.432 2.432 0 1 1-1.156-4.725l10.056-2.462a1692.84 1692.84 0 0 0-2.382-9.02l-.01-.035-.004-.017v-.002c-2.006-7.537-3.715-13.958-4.775-19.227L3.011 34.96a2.432 2.432 0 1 1-1.157-4.725l11.185-2.738c-.216-1.634-.332-3.116-.33-4.444L1.694 17.976a2.432 2.432 0 1 1 2.036-4.417l9.845 4.538c.567-1.235 1.43-2.144 2.637-2.724l.26-.122-3.785-10.453a3.04 3.04 0 0 1 5.716-2.07l3.934 10.861c.043.119.078.238.105.358a20.76 20.76 0 0 1 2.201.046c.005-.071.013-.143.025-.215l1.984-11.997Z" fill="#E9DAFF" stroke="#966ECF" stroke-width="2" mask="url(#b)"/><path d="M107.42 173.859v.972h-3.774v-.972h3.774Zm-3.472-2.968V178h-1.225v-7.109h1.225Zm4.414 0V178h-1.22v-7.109h1.22Zm18.82.476v2.715c-.101.133-.259.28-.474.439-.212.157-.493.292-.845.406-.351.114-.789.171-1.313.171-.446 0-.855-.075-1.226-.225a2.684 2.684 0 0 1-.962-.669 3.067 3.067 0 0 1-.62-1.069 4.42 4.42 0 0 1-.22-1.446v-.493c0-.537.067-1.015.201-1.435.136-.423.332-.782.586-1.074a2.44 2.44 0 0 1 .918-.665 3.111 3.111 0 0 1 1.225-.229c.583 0 1.065.098 1.445.293.385.192.681.459.889.801.208.342.34.732.396 1.172h-1.202a1.88 1.88 0 0 0-.229-.664 1.154 1.154 0 0 0-.479-.459c-.205-.114-.472-.171-.8-.171-.284 0-.533.053-.747.161a1.406 1.406 0 0 0-.537.473c-.14.209-.246.463-.318.762-.071.3-.107.641-.107 1.026v.502c0 .391.04.738.122 1.04.084.303.205.559.361.767.16.208.353.366.581.474.228.104.485.156.772.156.28 0 .509-.023.688-.068.179-.049.321-.106.425-.171.107-.069.19-.134.249-.196v-1.411h-1.48v-.913h2.701Zm13.766-5.476V173h-1.225v-7.109h1.225Zm2.901 3.11v.972h-3.213v-.972h3.213Zm.405-3.11v.976h-3.618v-.976h3.618Zm17.122 6.137V173h-3.774v-.972h3.774Zm-3.428-6.137V173h-1.225v-7.109h1.225Zm2.935 2.968v.957h-3.281v-.957h3.281Zm.469-2.968v.976h-3.75v-.976h3.75ZM174.788 173h-1.518l.009-.972h1.509c.44 0 .807-.096 1.104-.288.299-.192.524-.467.673-.825.153-.358.23-.784.23-1.279v-.386c0-.384-.044-.724-.132-1.021a2.013 2.013 0 0 0-.381-.747 1.611 1.611 0 0 0-.615-.459 2.09 2.09 0 0 0-.835-.156h-1.592v-.976h1.592c.472 0 .903.079 1.294.239.391.156.728.382 1.011.679.286.296.506.651.659 1.064.153.413.229.876.229 1.387v.376c0 .511-.076.973-.229 1.386a3.016 3.016 0 0 1-.659 1.065 2.972 2.972 0 0 1-1.026.679 3.567 3.567 0 0 1-1.323.234Zm-.84-7.109V173h-1.225v-7.109h1.225Zm18.974 4.795h1.221c-.039.465-.17.88-.391 1.245a2.318 2.318 0 0 1-.933.854c-.4.208-.887.313-1.46.313-.439 0-.835-.078-1.186-.235a2.58 2.58 0 0 1-.903-.674 3.054 3.054 0 0 1-.577-1.059 4.616 4.616 0 0 1-.195-1.387v-.591c0-.511.067-.973.2-1.386.137-.414.332-.767.586-1.06.254-.296.558-.522.913-.679a2.99 2.99 0 0 1 1.206-.234c.567 0 1.045.104 1.436.312.39.209.693.497.908.865.218.368.352.789.4 1.264h-1.22a2.259 2.259 0 0 0-.215-.786 1.11 1.11 0 0 0-.479-.498c-.211-.117-.488-.176-.83-.176-.28 0-.524.052-.732.157a1.384 1.384 0 0 0-.523.459c-.14.201-.245.45-.317.747a4.47 4.47 0 0 0-.102 1.006v.6c0 .358.03.684.092.977.065.289.163.538.293.747.134.208.303.369.508.483.205.114.451.171.737.171.349 0 .63-.055.845-.166.218-.111.383-.272.493-.483a2.22 2.22 0 0 0 .225-.786Zm15.467-.899h-1.812l-.01-.893h1.582c.267 0 .494-.04.679-.118a.942.942 0 0 0 .43-.346 1.01 1.01 0 0 0 .146-.552c0-.238-.045-.431-.136-.581a.786.786 0 0 0-.42-.327 2.08 2.08 0 0 0-.713-.103h-1.187V173h-1.225v-7.109h2.412c.39 0 .739.037 1.045.112.309.075.571.192.786.351.218.157.382.355.493.596.114.241.171.528.171.86 0 .293-.07.561-.21.805a1.6 1.6 0 0 1-.62.591c-.274.153-.614.244-1.021.273l-.39.308Zm-.054 3.213h-2.144l.552-.972h1.592c.277 0 .508-.045.693-.136a.956.956 0 0 0 .415-.386 1.15 1.15 0 0 0 .142-.581 1.38 1.38 0 0 0-.122-.601.84.84 0 0 0-.386-.395c-.176-.095-.405-.142-.688-.142h-1.377l.009-.893h1.792l.279.336c.39.013.711.1.962.259.254.16.442.366.566.62.124.254.186.528.186.821 0 .452-.1.831-.298 1.137a1.845 1.845 0 0 1-.845.699c-.368.156-.81.234-1.328.234Zm17.156-6.162L223.367 173h-1.284l2.676-7.109h.82l-.088.947Zm1.778 6.162-2.129-6.162-.093-.947h.825l2.686 7.109h-1.289Zm-.103-2.637v.972h-3.867v-.972h3.867Z" fill="#757575"/><rect x="113.091" y="164.262" width="4" height="18" rx="2" transform="rotate(-1.674 113.091 164.262)" fill="#E2E0E6"/><rect x="131" y="163.117" width="4" height="18" rx="2" transform="rotate(-1.674 131 163.117)" fill="#E2E0E6"/><rect x="148.331" y="162.04" width="4" height="18" rx="2" transform="rotate(.438 148.331 162.04)" fill="#E2E0E6"/><rect x="214.137" y="162.04" width="4" height="18" rx="2" transform="rotate(.438 214.137 162.04)" fill="#E2E0E6"/><rect x="198.137" y="162.04" width="4" height="18" rx="2" transform="rotate(.438 198.137 162.04)" fill="#E2E0E6"/><rect x="181.137" y="162.04" width="4" height="18" rx="2" transform="rotate(.438 181.137 162.04)" fill="#E2E0E6"/><rect x="165.137" y="162.04" width="4" height="18" rx="2" transform="rotate(.438 165.137 162.04)" fill="#E2E0E6"/><rect x="196" y="143" width="14" height="14" rx="2" fill="#7C7C7C"/><path d="M204.6 145.445V154h-1.553v-6.744l-2.057.68v-1.254l3.434-1.237h.176Z" fill="#fff"/><rect x="125" y="143" width="14" height="14" rx="2" fill="#7C7C7C"/><path d="M135.393 152.781V154h-5.778v-1.043l2.772-2.994c.289-.328.517-.613.685-.856.168-.242.287-.461.358-.656a1.633 1.633 0 0 0-.03-1.254 1.05 1.05 0 0 0-.41-.463 1.21 1.21 0 0 0-.65-.164c-.285 0-.529.067-.733.2a1.236 1.236 0 0 0-.457.539c-.101.23-.152.494-.152.791h-1.553c0-.504.117-.963.352-1.377a2.61 2.61 0 0 1 1.008-1.002c.437-.25.957-.375 1.558-.375.586 0 1.082.097 1.489.293.406.191.714.465.925.82.211.355.317.779.317 1.271 0 .274-.045.543-.135.809-.09.266-.217.529-.381.791-.16.258-.351.52-.574.785a14.07 14.07 0 0 1-.744.815l-1.664 1.851h3.797Z" fill="#fff"/></svg>