<svg width="333" height="180" viewBox="0 0 333 180" fill="none" xmlns="http://www.w3.org/2000/svg"><path d="M60.067 174.764 30.38 143.64c-.762-.799-.75-2.039.068-2.779C40.218 132.03 98.223 82.329 166 82.329s125.782 49.701 135.553 58.532c.819.74.83 1.98.068 2.779l-29.688 31.124a2.062 2.062 0 0 1-2.961.029c-7.713-7.792-45.369-42.576-102.972-42.576-57.603 0-95.26 34.784-102.971 42.576a2.062 2.062 0 0 1-2.962-.029Z" fill="#FCFCFC"/><path d="M60.067 174.764 30.38 143.64c-.762-.799-.75-2.039.068-2.779C40.218 132.03 98.223 82.329 166 82.329s125.782 49.701 135.553 58.532c.819.74.83 1.98.068 2.779l-29.688 31.124a2.062 2.062 0 0 1-2.961.029c-7.713-7.792-45.369-42.576-102.972-42.576-57.603 0-95.26 34.784-102.971 42.576a2.062 2.062 0 0 1-2.962-.029Z" stroke="#DEDEDE"/><path class="gate1" d="m301.575 143.689-29.642 31.075c-.805.844-2.163.834-2.984.006-3.298-3.33-11.993-11.515-25.318-19.827a2.02 2.02 0 0 1-.71-2.682l20.068-36.573a1.991 1.991 0 0 1 2.8-.734c18.162 11.35 31.308 22.178 35.654 25.889.859.734.911 2.028.132 2.846Z" fill="#F57575"/><path class="gate2" d="M222.51 93.003c15.07 5.514 28.745 12.544 40.372 19.551a1.988 1.988 0 0 1 .717 2.65l-20.095 37.184a2.021 2.021 0 0 1-2.811.767c-8.723-5.181-19.226-10.279-31.324-14.147a2.022 2.022 0 0 1-1.338-2.468l11.89-42.205a1.984 1.984 0 0 1 2.589-1.332Z" fill="#AAE8A9"/><path class="gate3" d="M168 82.343c17.672.254 34.649 3.845 50.245 9.154a1.985 1.985 0 0 1 1.271 2.4l-11.478 42.532a2.02 2.02 0 0 1-2.518 1.406 141.685 141.685 0 0 0-37.519-5.604 2.023 2.023 0 0 1-2.001-2.014V84.329c0-1.105.896-2.002 2-1.986Z" fill="#D9D9D9" stroke="#DEDEDE"/><path class="gate4" d="M104.725 94.814c17.979-7.086 38.13-12.167 59.275-12.471 1.104-.016 2 .881 2 1.986v45.888a2.023 2.023 0 0 1-2.001 2.014c-16.63.233-31.56 3.351-44.545 7.833a2.021 2.021 0 0 1-2.587-1.285l-13.3-41.508a1.985 1.985 0 0 1 1.158-2.457Z" fill="#EEB764" stroke="#DEDEDE"/><path class="gate5" d="M115.669 141.428c-9.887 3.716-18.56 8.179-25.9 12.652a2.02 2.02 0 0 1-2.805-.71l-21.007-36.615a1.988 1.988 0 0 1 .674-2.683c9.856-6.087 21.297-12.275 33.895-17.551a1.985 1.985 0 0 1 2.648 1.21l13.71 41.172a2.021 2.021 0 0 1-1.215 2.525Z" fill="#AAE8A9" stroke="#DEDEDE"/><path class="gate6" d="M60.067 174.764 30.38 143.64a1.944 1.944 0 0 1 .085-2.795c3.92-3.54 15.501-13.568 32.309-24.345a1.991 1.991 0 0 1 2.78.655l21.714 36.16a2.02 2.02 0 0 1-.65 2.737c-12.34 7.924-20.419 15.54-23.569 18.721-.82.828-2.176.835-2.98-.009Z" fill="#9AAFE4" stroke="#DEDEDE"/><path d="m52.375 147.909 4.569 5.446-.94.788-5.715-1.853 3.273 3.902-.939.788-4.569-5.447.939-.788 5.73 1.854-3.28-3.909.932-.781Zm10.668-8.501.9-.62 4.805 3.348-1.423-5.679.9-.62 1.8 7.394-.716.493-6.266-4.316Zm-.41.283.856-.59 2.843 3.805 1.34 1.946-1.004.693-4.035-5.854Zm5.146-3.547.86-.593 4.035 5.854-1.009.695-1.341-1.945-2.545-4.011Zm19.639-5.281.442.865-3.18 1.623-.441-.865 3.179-1.623Zm-5.666-3.999 3.233 6.332-1.092.557-3.232-6.332 1.091-.557Zm16.634-7.485 2.532 6.643-1.145.436-2.532-6.643 1.145-.436Zm3.992-1.522-1.473 4.224-.913 2.209-.634-1.06.58-1.768 1.044-3.073 1.396-.532Zm1.301 7.113-3.386-2.316.492-1.081 4.253 2.878-1.359.519Zm16.394-8.067-.63-4.935 1.211-.155.63 4.936c.06.468.011.88-.147 1.234a2.008 2.008 0 0 1-.722.861 2.607 2.607 0 0 1-1.144.411 2.969 2.969 0 0 1-1.225-.075 1.797 1.797 0 0 1-.903-.593c-.237-.288-.386-.673-.448-1.154l1.221-.156c.035.278.108.497.217.657a.838.838 0 0 0 .424.32c.175.053.371.065.591.037.21-.026.39-.097.539-.211.152-.118.264-.275.334-.471.07-.199.087-.434.052-.706Zm19.64-5.857.123.964-3.744.478-.123-.964 3.744-.478Zm-3.82-2.505.901 7.052-1.216.155-.9-7.052 1.215-.155Zm4.379-.559.9 7.052-1.211.155-.9-7.052 1.211-.155Zm38.562 2.012-.138 2.712a2.354 2.354 0 0 1-.495.414c-.22.146-.508.266-.864.362-.357.096-.798.131-1.321.104a3.245 3.245 0 0 1-1.213-.286 2.699 2.699 0 0 1-.926-.717 3.058 3.058 0 0 1-.565-1.1 4.384 4.384 0 0 1-.146-1.454l.025-.493a4.71 4.71 0 0 1 .273-1.423c.158-.416.371-.764.639-1.043a2.45 2.45 0 0 1 .951-.617c.368-.135.78-.19 1.235-.167.582.03 1.059.152 1.429.366.374.211.656.493.847.845.191.352.302.749.335 1.19l-1.199-.061a1.9 1.9 0 0 0-.196-.675c-.1-.2-.252-.361-.454-.482-.199-.124-.463-.195-.791-.212a1.662 1.662 0 0 0-.755.123c-.22.097-.406.245-.56.446-.15.201-.269.449-.356.745-.086.295-.14.635-.159 1.018l-.026.503c-.019.39.004.738.069 1.045.07.306.177.568.322.784.149.216.335.383.557.502.222.116.476.181.762.195.28.014.51.003.691-.033.182-.04.326-.089.433-.149.111-.063.197-.124.259-.183l.071-1.409-1.477-.075.046-.912 2.697.137Zm14.296-1.967-.361 7.1-1.224-.062.361-7.101 1.224.063Zm2.739 3.253-.049.971-3.209-.163.049-.971 3.209.163Zm.563-3.085-.05.975-3.613-.184.049-.975 3.614.184Zm18.532 10.495-.254.938-3.643-.984.253-.938 3.644.984Zm-1.708-6.819-1.855 6.863-1.183-.319 1.854-6.864 1.184.32Zm2.058 3.631-.249.924-3.168-.855.25-.924 3.167.855Zm1.227-2.743-.255.943-3.62-.979.255-.942 3.62.978Zm12.286 12.445-1.417-.546.359-.903 1.408.543c.41.158.788.2 1.133.128a1.76 1.76 0 0 0 .926-.528c.271-.279.496-.649.674-1.111l.139-.36c.138-.358.219-.692.244-1a2.015 2.015 0 0 0-.087-.834 1.593 1.593 0 0 0-.409-.649 2.071 2.071 0 0 0-.723-.446l-1.485-.573.351-.911 1.485.572c.441.17.814.4 1.122.689.308.286.541.619.699.997.16.379.238.789.232 1.23-.006.441-.101.9-.285 1.377l-.135.35a3.97 3.97 0 0 1-.713 1.212 3 3 0 0 1-.998.756c-.372.17-.773.258-1.201.264a3.54 3.54 0 0 1-1.319-.257Zm1.774-6.935-2.557 6.633-1.144-.441 2.557-6.633 1.144.441Zm18.81 13.648 1.139.439a2.83 2.83 0 0 1-.812 1.021 2.319 2.319 0 0 1-1.178.462c-.449.05-.94-.027-1.475-.234a2.896 2.896 0 0 1-1.023-.645 2.608 2.608 0 0 1-.6-.954 3.038 3.038 0 0 1-.157-1.195c.028-.433.133-.888.317-1.365l.212-.551c.184-.477.413-.884.686-1.222.276-.336.585-.596.928-.778a2.527 2.527 0 0 1 1.096-.305 2.99 2.99 0 0 1 1.209.215c.529.204.938.473 1.227.808.29.335.469.713.537 1.133.071.422.044.863-.081 1.324l-1.139-.439c.08-.297.107-.567.082-.811a1.108 1.108 0 0 0-.267-.636c-.156-.186-.393-.34-.712-.463a1.615 1.615 0 0 0-.739-.118c-.232.023-.45.103-.653.241a2.22 2.22 0 0 0-.565.583 4.475 4.475 0 0 0-.457.901l-.216.561a4.754 4.754 0 0 0-.265.944 2.39 2.39 0 0 0 .005.803c.05.242.15.454.3.634s.359.321.627.424c.325.126.607.175.847.149.244-.025.455-.116.634-.274.184-.159.348-.377.493-.652Zm15.127 7.607-1.553-.933.452-.771 1.356.815c.229.137.443.221.642.249a.935.935 0 0 0 .547-.076.998.998 0 0 0 .41-.397c.123-.204.183-.393.182-.568a.78.78 0 0 0-.191-.497 2.097 2.097 0 0 0-.558-.455l-1.017-.612-3.16 5.257-1.05-.632 3.663-6.093 2.067 1.243a4.4 4.4 0 0 1 .838.634c.226.224.39.459.492.707.107.246.145.501.116.764-.026.265-.125.54-.296.825a1.589 1.589 0 0 1-.595.582 1.6 1.6 0 0 1-.836.187c-.313-.01-.652-.107-1.016-.291l-.493.062Zm-1.701 2.726L261 141.146l.973-.549 1.364.82c.238.143.459.223.665.24a.96.96 0 0 0 .555-.116 1.16 1.16 0 0 0 .42-.426c.119-.198.188-.39.205-.577a.841.841 0 0 0-.127-.538c-.102-.171-.274-.33-.517-.476l-1.18-.709.469-.761 1.536.923.065.432c.328.213.558.452.691.718.135.267.19.542.166.823a1.857 1.857 0 0 1-.264.799c-.233.387-.514.661-.841.821a1.834 1.834 0 0 1-1.084.163c-.396-.055-.816-.216-1.259-.483Zm18.98 6.728-5.679 3.198-.96-.853 6.72-3.54.614.545-.695.65Zm-2.762 5.788 2.499-6.022.56-.77.617.548-2.712 7.1-.964-.856Zm1.674-2.04-.645.727-2.892-2.568.645-.726 2.892 2.567Z" fill="#757575"/><rect x="52.489" y="138.597" width="4" height="18" rx="2" transform="rotate(-40 52.49 138.597)" fill="#E2E0E6"/><rect x="68.468" y="127.133" width="4" height="18" rx="2" transform="rotate(-31.516 68.468 127.133)" fill="#E2E0E6"/><rect x="86.39" y="118.352" width="4" height="18" rx="2" transform="rotate(-24 86.39 118.352)" fill="#E2E0E6"/><rect x="104.468" y="111.278" width="4" height="18" rx="2" transform="rotate(-18 104.468 111.278)" fill="#E2E0E6"/><rect x="124.763" y="105.745" width="4" height="18" rx="2" transform="rotate(-10 124.763 105.745)" fill="#E2E0E6"/><rect x="144.378" y="102.414" width="4" height="18" rx="2" transform="rotate(-4 144.378 102.414)" fill="#E2E0E6"/><rect x="183.043" y="102" width="4" height="18" rx="2" transform="rotate(6 183.043 102)" fill="#E2E0E6"/><rect x="202.313" y="104.983" width="4" height="18" rx="2" transform="rotate(12 202.313 104.983)" fill="#E2E0E6"/><rect x="222.175" y="110.084" width="4" height="18" rx="2" transform="rotate(18 222.175 110.084)" fill="#E2E0E6"/><rect x="240.985" y="117.184" width="4" height="18" rx="2" transform="rotate(24 240.985 117.184)" fill="#E2E0E6"/><rect x="258.029" y="126.385" width="4" height="18" rx="2" transform="rotate(32 258.029 126.385)" fill="#E2E0E6"/><rect x="274.898" y="136.411" width="4" height="18" rx="2" transform="rotate(38 274.898 136.411)" fill="#E2E0E6"/><path fill="#E2E0E5" d="m63.468 170.381 3.722-3.34 2.003 2.234-3.722 3.339zm14-11.468 4.096-2.868 1.72 2.458-4.095 2.867zm12.53-8.444 4.33-2.5 1.5 2.598-4.33 2.5zm15.491-8.183 4.568-2.034 1.22 2.741-4.568 2.034zm17.067-6.553 4.806-1.378.827 2.884-4.806 1.378zm15.833-3.981 4.924-.868.521 2.954-4.924.868zm15.172-2.369 4.997-.174.105 2.998-4.997.174zm20.064-.341 4.993.262-.157 2.996-4.993-.262zm16.217 1.718 4.924.868-.52 2.955-4.925-.869zm16.301 3.945 4.806 1.378-.827 2.884-4.806-1.378zm15.431 5.274 4.636 1.873-1.124 2.782-4.636-1.873zm15.342 7.779 4.33 2.5-1.5 2.598-4.33-2.5zm14.326 8.15 4.045 2.939-1.763 2.427-4.045-2.939zm13.276 10.03 3.716 3.346-2.008 2.23-3.715-3.347z"/><mask id="a" fill="#fff"><path d="M262.958.2a2 2 0 0 0-2.672.928l-1.779 3.674a7.968 7.968 0 0 0-2.996.28l-1.726-3.018a2.001 2.001 0 0 0-3.472 1.987l1.755 3.067a7.955 7.955 0 0 0-1.538 2.172l-3.849-2.029a2 2 0 1 0-1.865 3.539l4.301 2.266-1.752 4.827-3.933-1.751a2 2 0 0 0-1.627 3.654l4.192 1.867-3.076 8.477-4.489-1.998a2 2 0 0 0-1.627 3.654l4.748 2.114-3.699 10.193-4.404-1.961a2 2 0 0 0-1.627 3.654l4.663 2.076-10.899 30.036a7.826 7.826 0 0 0-.181.56 238.077 238.077 0 0 0-21.584-5.133l.597-5.683a2 2 0 1 0-3.978-.418l-.566 5.39a212.061 212.061 0 0 0-16.128-2.136l.265-5.05a2 2 0 1 0-3.994-.21l-.259 4.935c-5.265-.37-9.947-.463-13.901-.343a115.28 115.28 0 0 0-4.619-.043v-5.588a2 2 0 1 0-4 0v5.685c-12.016.46-27.935 2.493-45.544 7.113l-6.26-17.25 4.358-1.94a2 2 0 0 0-1.627-3.655l-4.099 1.825-2.937-8.095 4.663-2.076a2 2 0 0 0-1.627-3.654l-4.404 1.96-3.699-10.192 4.748-2.114a2 2 0 1 0-1.627-3.654l-4.489 1.998-3.076-8.477 4.192-1.867a2 2 0 1 0-1.627-3.654l-3.933 1.751-1.752-4.827L92.8 10.8a2 2 0 0 0-1.865-3.539l-3.85 2.029a7.948 7.948 0 0 0-1.537-2.172l1.755-3.067a2 2 0 0 0-3.472-1.987l-1.726 3.017a7.967 7.967 0 0 0-2.996-.28l-1.78-3.673a2 2 0 1 0-3.6 1.745l1.604 3.309a7.955 7.955 0 0 0-1.73 1.622l-3.814-.979a2 2 0 0 0-.994 3.875l3.182.816a7.964 7.964 0 0 0 .383 3.98l.105.289-4.588.482a2 2 0 1 0 .418 3.978l5.576-.586 1.673 4.61-4.86 2.163a2 2 0 0 0 1.628 3.654l4.6-2.048 3.076 8.478-4.303 1.916a2 2 0 0 0 1.627 3.654l4.044-1.8 3.699 10.192-4.388 1.954a2 2 0 0 0 1.627 3.654l4.129-1.838 9.915 27.324c-12.321 4.135-25.119 9.56-37.727 16.582l-2.774-4.416a2 2 0 1 0-3.387 2.127l2.682 4.271c-10.565 6.151-20.953 13.451-30.768 22.079l-3.222-3.429a2 2 0 0 0-2.915 2.739l3.16 3.363a182.61 182.61 0 0 0-8.62 8.454 33.571 33.571 0 0 0-.73.806L8.946 131.6a2 2 0 0 0-2.543 3.088l3.18 2.619c-1.172 1.701-2.245 3.599-2.936 5.503l-4.498-.334a2 2 0 0 0-.296 3.989l4.006.297c-.011 1.782.537 3.44 1.913 4.797a51.797 51.797 0 0 0 .125.12l.037.036.037.034.039.035.024.022.027.024-2.97 3.803a2 2 0 1 0 3.151 2.462l3.487-4.463c2.223.409 4.62-.124 6.79-1.135l.86 4.446a2 2 0 0 0 3.926-.76l-1.14-5.891a2.34 2.34 0 0 0-.017-.081 14.362 14.362 0 0 0 2.107-2.098c7.072-8.829 61.751-56.255 129.604-61.556v8.772a2 2 0 0 0 2 2h17a2 2 0 0 0 2-2V86.35c69.235 4.105 125.428 52.803 132.603 61.762.201.251.421.503.657.753l-3.937 4.461a2 2 0 1 0 2.999 2.647l3.97-4.499.062-.073.074.047.072.045.138.085.196.119a2.29 2.29 0 0 0-.134.279l-2.179 5.59a2 2 0 0 0 3.727 1.453l2.179-5.59.029-.08.016-.047c.279.081.56.153.842.214-.001.072.002.144.009.217l.581 5.972a2 2 0 1 0 3.981-.387l-.557-5.727c.3-.063.596-.143.888-.243l3.594 4.777a2 2 0 1 0 3.196-2.405l-3.485-4.632c.169-.202.322-.41.46-.623l.013.001 5.983.451a2 2 0 1 0 .3-3.989l-5.282-.398c-.036-1.094-.277-2.23-.661-3.369l4.268-3.055a2 2 0 0 0-2.329-3.253l-3.64 2.606c-1.362-2.384-3.087-4.564-4.542-6.118a181.459 181.459 0 0 0-6.732-6.695l3.19-3.044a1.999 1.999 0 1 0-2.761-2.894l-3.373 3.218c-11.017-9.958-22.8-18.201-34.777-24.99l2.489-5.045a2 2 0 1 0-3.587-1.77l-2.404 4.872c-10.143-5.497-20.384-9.977-30.379-13.595l.012-.033 5.88-16.204 4.659 2.075a2 2 0 0 0 1.627-3.655l-4.918-2.19 3.318-9.144 4.129 1.838a2 2 0 1 0 1.627-3.654l-4.388-1.954 3.699-10.193 4.044 1.801a2 2 0 0 0 1.627-3.654l-4.303-1.916 3.077-8.478 4.599 2.048a2 2 0 0 0 1.627-3.654l-4.859-2.163 1.673-4.61 5.575.586a2 2 0 0 0 .419-3.978l-4.588-.482.105-.29a7.966 7.966 0 0 0 .383-3.98l3.182-.815a2 2 0 1 0-.994-3.875l-3.815.979a7.964 7.964 0 0 0-1.729-1.622l1.603-3.31A2 2 0 0 0 262.959.2Z"/></mask><path d="M262.958.2a2 2 0 0 0-2.672.928l-1.779 3.674a7.968 7.968 0 0 0-2.996.28l-1.726-3.018a2.001 2.001 0 0 0-3.472 1.987l1.755 3.067a7.955 7.955 0 0 0-1.538 2.172l-3.849-2.029a2 2 0 1 0-1.865 3.539l4.301 2.266-1.752 4.827-3.933-1.751a2 2 0 0 0-1.627 3.654l4.192 1.867-3.076 8.477-4.489-1.998a2 2 0 0 0-1.627 3.654l4.748 2.114-3.699 10.193-4.404-1.961a2 2 0 0 0-1.627 3.654l4.663 2.076-10.899 30.036a7.826 7.826 0 0 0-.181.56 238.077 238.077 0 0 0-21.584-5.133l.597-5.683a2 2 0 1 0-3.978-.418l-.566 5.39a212.061 212.061 0 0 0-16.128-2.136l.265-5.05a2 2 0 1 0-3.994-.21l-.259 4.935c-5.265-.37-9.947-.463-13.901-.343a115.28 115.28 0 0 0-4.619-.043v-5.588a2 2 0 1 0-4 0v5.685c-12.016.46-27.935 2.493-45.544 7.113l-6.26-17.25 4.358-1.94a2 2 0 0 0-1.627-3.655l-4.099 1.825-2.937-8.095 4.663-2.076a2 2 0 0 0-1.627-3.654l-4.404 1.96-3.699-10.192 4.748-2.114a2 2 0 1 0-1.627-3.654l-4.489 1.998-3.076-8.477 4.192-1.867a2 2 0 1 0-1.627-3.654l-3.933 1.751-1.752-4.827L92.8 10.8a2 2 0 0 0-1.865-3.539l-3.85 2.029a7.948 7.948 0 0 0-1.537-2.172l1.755-3.067a2 2 0 0 0-3.472-1.987l-1.726 3.017a7.967 7.967 0 0 0-2.996-.28l-1.78-3.673a2 2 0 1 0-3.6 1.745l1.604 3.309a7.955 7.955 0 0 0-1.73 1.622l-3.814-.979a2 2 0 0 0-.994 3.875l3.182.816a7.964 7.964 0 0 0 .383 3.98l.105.289-4.588.482a2 2 0 1 0 .418 3.978l5.576-.586 1.673 4.61-4.86 2.163a2 2 0 0 0 1.628 3.654l4.6-2.048 3.076 8.478-4.303 1.916a2 2 0 0 0 1.627 3.654l4.044-1.8 3.699 10.192-4.388 1.954a2 2 0 0 0 1.627 3.654l4.129-1.838 9.915 27.324c-12.321 4.135-25.119 9.56-37.727 16.582l-2.774-4.416a2 2 0 1 0-3.387 2.127l2.682 4.271c-10.565 6.151-20.953 13.451-30.768 22.079l-3.222-3.429a2 2 0 0 0-2.915 2.739l3.16 3.363a182.61 182.61 0 0 0-8.62 8.454 33.571 33.571 0 0 0-.73.806L8.946 131.6a2 2 0 0 0-2.543 3.088l3.18 2.619c-1.172 1.701-2.245 3.599-2.936 5.503l-4.498-.334a2 2 0 0 0-.296 3.989l4.006.297c-.011 1.782.537 3.44 1.913 4.797a51.797 51.797 0 0 0 .125.12l.037.036.037.034.039.035.024.022.027.024-2.97 3.803a2 2 0 1 0 3.151 2.462l3.487-4.463c2.223.409 4.62-.124 6.79-1.135l.86 4.446a2 2 0 0 0 3.926-.76l-1.14-5.891a2.34 2.34 0 0 0-.017-.081 14.362 14.362 0 0 0 2.107-2.098c7.072-8.829 61.751-56.255 129.604-61.556v8.772a2 2 0 0 0 2 2h17a2 2 0 0 0 2-2V86.35c69.235 4.105 125.428 52.803 132.603 61.762.201.251.421.503.657.753l-3.937 4.461a2 2 0 1 0 2.999 2.647l3.97-4.499.062-.073.074.047.072.045.138.085.196.119a2.29 2.29 0 0 0-.134.279l-2.179 5.59a2 2 0 0 0 3.727 1.453l2.179-5.59.029-.08.016-.047c.279.081.56.153.842.214-.001.072.002.144.009.217l.581 5.972a2 2 0 1 0 3.981-.387l-.557-5.727c.3-.063.596-.143.888-.243l3.594 4.777a2 2 0 1 0 3.196-2.405l-3.485-4.632c.169-.202.322-.41.46-.623l.013.001 5.983.451a2 2 0 1 0 .3-3.989l-5.282-.398c-.036-1.094-.277-2.23-.661-3.369l4.268-3.055a2 2 0 0 0-2.329-3.253l-3.64 2.606c-1.362-2.384-3.087-4.564-4.542-6.118a181.459 181.459 0 0 0-6.732-6.695l3.19-3.044a1.999 1.999 0 1 0-2.761-2.894l-3.373 3.218c-11.017-9.958-22.8-18.201-34.777-24.99l2.489-5.045a2 2 0 1 0-3.587-1.77l-2.404 4.872c-10.143-5.497-20.384-9.977-30.379-13.595l.012-.033 5.88-16.204 4.659 2.075a2 2 0 0 0 1.627-3.655l-4.918-2.19 3.318-9.144 4.129 1.838a2 2 0 1 0 1.627-3.654l-4.388-1.954 3.699-10.193 4.044 1.801a2 2 0 0 0 1.627-3.654l-4.303-1.916 3.077-8.478 4.599 2.048a2 2 0 0 0 1.627-3.654l-4.859-2.163 1.673-4.61 5.575.586a2 2 0 0 0 .419-3.978l-4.588-.482.105-.29a7.966 7.966 0 0 0 .383-3.98l3.182-.815a2 2 0 1 0-.994-3.875l-3.815.979a7.964 7.964 0 0 0-1.729-1.622l1.603-3.31A2 2 0 0 0 262.959.2Z" fill="#E9DAFF" stroke="#966ECF" stroke-width="2" mask="url(#a)"/><path d="M71 174.293V180h-.941v-4.59l-1.395.473v-.778l2.223-.812H71Zm5.894 3.68v.75h-4.101l-.031-.567 2.453-3.844h.754l-.817 1.399-1.41 2.262h3.152Zm-.71-3.661V180h-.942v-5.688h.942ZM85 164.293V170h-.941v-4.59l-1.395.473v-.778l2.223-.812H85Zm3.082 2.437h.563c.218 0 .4-.037.543-.113a.734.734 0 0 0 .324-.312.962.962 0 0 0 .105-.457.99.99 0 0 0-.098-.461.659.659 0 0 0-.288-.301 1.008 1.008 0 0 0-.489-.106.995.995 0 0 0-.453.102.77.77 0 0 0-.434.711h-.945c0-.302.08-.57.238-.805a1.62 1.62 0 0 1 .649-.55c.276-.136.586-.204.93-.204.367 0 .687.062.96.184.276.12.491.299.645.539.154.24.23.536.23.891 0 .161-.037.325-.113.492a1.426 1.426 0 0 1-.336.457 1.765 1.765 0 0 1-.554.332 2.185 2.185 0 0 1-.77.125h-.707v-.524Zm0 .735v-.516h.707c.333 0 .617.039.852.117.237.079.43.187.578.325.148.135.256.29.324.464.07.175.105.36.105.555 0 .266-.048.503-.144.711-.094.206-.228.38-.402.524a1.8 1.8 0 0 1-.614.324 2.512 2.512 0 0 1-.757.109c-.245 0-.48-.034-.704-.101a1.922 1.922 0 0 1-.601-.301 1.503 1.503 0 0 1-.422-.504 1.553 1.553 0 0 1-.152-.703h.941c0 .169.039.319.117.449.08.128.193.228.336.301.146.073.313.109.5.109.198 0 .369-.035.512-.105a.738.738 0 0 0 .328-.313 1 1 0 0 0 .117-.5c0-.221-.043-.401-.129-.539a.763.763 0 0 0-.367-.305 1.44 1.44 0 0 0-.563-.101h-.562ZM99 156.293V162h-.941v-4.59l-1.395.473v-.778l2.223-.812H99Zm5.789 4.957v.75h-3.812v-.645l1.851-2.019c.203-.229.363-.427.481-.594.117-.166.199-.316.246-.449.049-.135.074-.267.074-.395 0-.179-.034-.337-.102-.472a.739.739 0 0 0-.289-.324.847.847 0 0 0-.465-.122.97.97 0 0 0-.531.137.858.858 0 0 0-.324.379 1.297 1.297 0 0 0-.109.547h-.942c0-.331.076-.633.227-.906.151-.276.37-.495.656-.657.286-.164.632-.246 1.035-.246.38 0 .703.064.969.192.266.127.467.308.605.543.141.234.211.511.211.832 0 .177-.028.353-.086.527a2.475 2.475 0 0 1-.246.524 4.527 4.527 0 0 1-.371.519 9.872 9.872 0 0 1-.472.524l-1.231 1.355h2.625ZM114 149.293V155h-.941v-4.59l-1.395.473v-.778l2.223-.812H114Zm4.547 0V155h-.942v-4.59l-1.394.473v-.778l2.223-.812h.113Zm8.453-5V150h-.941v-4.59l-1.395.473v-.778l2.223-.812H127Zm5.684 2.387v.929c0 .446-.045.826-.133 1.141a1.999 1.999 0 0 1-.375.762 1.473 1.473 0 0 1-.59.429 2.012 2.012 0 0 1-.762.137c-.224 0-.432-.029-.625-.086a1.52 1.52 0 0 1-.91-.742 2.635 2.635 0 0 1-.25-.699 4.612 4.612 0 0 1-.086-.942v-.929c0-.448.044-.826.133-1.133.088-.31.215-.561.379-.754.164-.195.359-.337.586-.426.229-.088.484-.133.765-.133.227 0 .435.029.625.086a1.465 1.465 0 0 1 .907.731c.109.19.192.42.25.691.057.268.086.581.086.938Zm-.942 1.062v-1.203c0-.227-.013-.426-.039-.598a1.778 1.778 0 0 0-.117-.441.89.89 0 0 0-.188-.297.66.66 0 0 0-.257-.168.927.927 0 0 0-.325-.055.864.864 0 0 0-.39.086.705.705 0 0 0-.289.266 1.46 1.46 0 0 0-.18.484 3.805 3.805 0 0 0-.059.723v1.203c0 .229.013.431.04.606.026.174.065.324.117.449.052.122.114.224.187.305a.702.702 0 0 0 .258.171.918.918 0 0 0 .324.055c.149 0 .28-.029.395-.086a.723.723 0 0 0 .289-.273c.078-.128.137-.293.176-.496.039-.203.058-.447.058-.731Zm9.446-1.484h.078c.359 0 .658-.047.898-.141.242-.096.435-.229.578-.398.143-.17.246-.369.309-.598.062-.229.094-.478.094-.746v-.98c0-.232-.025-.435-.075-.61a1.25 1.25 0 0 0-.203-.441.862.862 0 0 0-.301-.27.757.757 0 0 0-.363-.09.773.773 0 0 0-.387.098.856.856 0 0 0-.285.262 1.305 1.305 0 0 0-.176.386 1.815 1.815 0 0 0-.058.469c0 .156.018.308.055.453.039.144.096.271.171.383a.798.798 0 0 0 .688.363.967.967 0 0 0 .723-.312 1.107 1.107 0 0 0 .3-.691l.36.109c0 .198-.042.393-.125.586a1.83 1.83 0 0 1-.34.523 1.635 1.635 0 0 1-.504.375c-.19.094-.397.141-.621.141-.271 0-.511-.051-.719-.152a1.514 1.514 0 0 1-.515-.422 1.86 1.86 0 0 1-.305-.61 2.525 2.525 0 0 1 .023-1.492 1.93 1.93 0 0 1 .364-.633c.158-.185.351-.328.578-.429.229-.105.488-.157.777-.157.307 0 .577.06.809.18.231.12.427.285.586.496.158.211.278.456.359.735a3.2 3.2 0 0 1 .121.898v.332c0 .336-.03.66-.09.973a3.23 3.23 0 0 1-.293.863 2.399 2.399 0 0 1-.527.695 2.306 2.306 0 0 1-.797.465c-.313.109-.68.164-1.102.164h-.085v-.777Zm16.96-2.809c0 .354-.082.653-.246.895a1.542 1.542 0 0 1-.672.551 2.368 2.368 0 0 1-.953.183c-.354 0-.673-.061-.957-.183a1.542 1.542 0 0 1-.672-.551c-.164-.242-.246-.541-.246-.895a1.434 1.434 0 0 1 .524-1.133c.169-.14.367-.248.594-.324.229-.075.479-.113.75-.113.359 0 .681.066.964.199.284.133.507.317.668.551.164.234.246.508.246.82Zm-.945-.047c0-.19-.039-.356-.117-.5a.825.825 0 0 0-.328-.332.992.992 0 0 0-.488-.117.978.978 0 0 0-.489.117.829.829 0 0 0-.324.332c-.075.144-.113.31-.113.5 0 .193.038.36.113.5a.768.768 0 0 0 .324.317c.141.073.306.109.496.109s.355-.036.493-.109a.77.77 0 0 0 .32-.317c.075-.14.113-.307.113-.5Zm.817-2.593c0 .283-.076.536-.227.757a1.522 1.522 0 0 1-.617.524 2.07 2.07 0 0 1-.899.187c-.338 0-.64-.062-.906-.187a1.554 1.554 0 0 1-.621-.524 1.331 1.331 0 0 1-.223-.757c0-.339.075-.624.223-.856.151-.234.358-.413.621-.535.263-.122.564-.184.902-.184.339 0 .64.062.903.184s.469.301.617.535c.151.232.227.517.227.856Zm-.942.031a.942.942 0 0 0-.101-.445.733.733 0 0 0-.278-.305.801.801 0 0 0-.426-.11.825.825 0 0 0-.425.106.706.706 0 0 0-.278.297.994.994 0 0 0-.097.457c0 .174.032.327.097.457a.74.74 0 0 0 .278.301.82.82 0 0 0 .429.109.804.804 0 0 0 .426-.109.738.738 0 0 0 .277-.301.999.999 0 0 0 .098-.457Zm21.129-2.528v.516L175.934 144h-.993l2.27-4.938h-2.945v-.75h3.941Zm13.066 1.965h.118v.77h-.067c-.336 0-.626.052-.871.156a1.621 1.621 0 0 0-.598.43 1.826 1.826 0 0 0-.351.64c-.076.243-.113.5-.113.774v.894c0 .227.024.427.074.602.049.172.118.316.207.434a.96.96 0 0 0 .312.261c.118.06.244.09.379.09a.846.846 0 0 0 .383-.086.889.889 0 0 0 .293-.246c.081-.104.142-.228.184-.371.041-.143.062-.299.062-.469 0-.161-.021-.312-.062-.453a1.139 1.139 0 0 0-.176-.375.825.825 0 0 0-.692-.348c-.187 0-.358.045-.511.133a1.093 1.093 0 0 0-.367.348.89.89 0 0 0-.149.449l-.359-.117c.021-.242.074-.46.16-.652.088-.193.204-.357.348-.493.143-.135.308-.238.496-.308.19-.073.398-.11.625-.11.276 0 .515.053.718.157.204.104.372.246.504.425.136.178.236.381.301.61.068.226.102.463.102.711 0 .273-.042.528-.125.765a1.801 1.801 0 0 1-.368.618 1.634 1.634 0 0 1-.582.414 1.91 1.91 0 0 1-.773.148c-.305 0-.577-.058-.816-.176a1.792 1.792 0 0 1-.606-.484 2.217 2.217 0 0 1-.375-.711 2.772 2.772 0 0 1-.129-.852v-.39c0-.432.055-.84.164-1.223a3.01 3.01 0 0 1 .504-1.019c.229-.295.522-.525.879-.692.357-.169.783-.254 1.277-.254Zm14.145 7.078-.75-.183.309-2.86h3.066v.797h-2.285l-.156 1.395c.088-.052.21-.103.367-.152.156-.053.334-.079.535-.079.268 0 .508.045.719.133.213.086.394.212.543.379.148.164.261.365.339.602.079.234.118.498.118.793 0 .263-.039.509-.118.738-.075.229-.19.431-.343.605a1.583 1.583 0 0 1-.582.411 2.15 2.15 0 0 1-.825.144c-.237 0-.464-.034-.683-.101a1.89 1.89 0 0 1-.582-.309 1.565 1.565 0 0 1-.414-.508 1.75 1.75 0 0 1-.18-.699h.922c.023.185.074.342.152.473a.815.815 0 0 0 .321.293c.132.067.286.101.461.101a.943.943 0 0 0 .41-.082.782.782 0 0 0 .285-.242c.078-.107.135-.232.172-.375a1.812 1.812 0 0 0-.008-.934 1.014 1.014 0 0 0-.191-.359.811.811 0 0 0-.317-.234 1.055 1.055 0 0 0-.441-.086c-.224 0-.396.032-.516.097a1.642 1.642 0 0 0-.328.242Zm17.93 4.618v.75h-4.102l-.031-.567 2.453-3.844h.754l-.817 1.399-1.41 2.262h3.153Zm-.711-3.661V154h-.942v-5.688h.942Zm11.898 9.418h.563c.218 0 .399-.037.543-.113a.736.736 0 0 0 .324-.312.966.966 0 0 0 .105-.457c0-.18-.032-.334-.097-.461a.663.663 0 0 0-.289-.301 1.012 1.012 0 0 0-.489-.106.999.999 0 0 0-.453.102.768.768 0 0 0-.316.281.77.77 0 0 0-.117.43h-.946c0-.302.08-.57.239-.805a1.61 1.61 0 0 1 .648-.55c.276-.136.586-.204.93-.204.367 0 .687.062.961.184.276.12.491.299.644.539.154.24.231.536.231.891 0 .161-.038.325-.114.492a1.41 1.41 0 0 1-.336.457 1.76 1.76 0 0 1-.554.332 2.189 2.189 0 0 1-.77.125h-.707v-.524Zm0 .735v-.516h.707c.334 0 .617.039.852.117.237.079.429.187.578.325.148.135.256.29.324.464a1.679 1.679 0 0 1-.039 1.266c-.094.206-.228.38-.402.524a1.803 1.803 0 0 1-.614.324 2.504 2.504 0 0 1-.757.109c-.245 0-.48-.034-.704-.101a1.928 1.928 0 0 1-.601-.301 1.502 1.502 0 0 1-.422-.504 1.547 1.547 0 0 1-.152-.703h.941c0 .169.039.319.117.449a.84.84 0 0 0 .336.301c.146.073.313.109.5.109.198 0 .369-.035.512-.105a.736.736 0 0 0 .328-.313c.078-.138.117-.305.117-.5 0-.221-.043-.401-.129-.539a.763.763 0 0 0-.367-.305 1.44 1.44 0 0 0-.562-.101h-.563Zm15.707 9.785v.75h-3.812v-.645l1.851-2.019c.203-.229.364-.427.481-.594.117-.166.199-.316.246-.449.049-.135.074-.267.074-.395 0-.179-.034-.337-.102-.472a.739.739 0 0 0-.289-.324.846.846 0 0 0-.464-.122.976.976 0 0 0-.532.137.858.858 0 0 0-.324.379 1.297 1.297 0 0 0-.109.547h-.942c0-.331.076-.633.227-.906.151-.276.37-.495.656-.657.287-.164.632-.246 1.035-.246.38 0 .703.064.969.192.266.127.467.308.605.543.141.234.211.511.211.832 0 .177-.028.353-.085.527a2.53 2.53 0 0 1-.247.524 4.407 4.407 0 0 1-.371.519c-.143.172-.3.346-.472.524l-1.231 1.355h2.625Zm9.758 5.043V179h-.941v-4.59l-1.395.473v-.778l2.223-.812H260Z" fill="#C5C5C5"/></svg>