<svg width="345" height="316" viewBox="0 0 345 316" fill="none" xmlns="http://www.w3.org/2000/svg"><rect width="345" height="316" rx="6" fill="#FAF9FC"/><path d="m194.465 76.23 36.529-21.148a2 2 0 0 1 2.01.004l87.309 50.93a2.001 2.001 0 0 1 .744 2.694l-6.075 11.01a2 2 0 0 1-2.746.769l-34.087-19.543a2 2 0 0 0-2.677.653l-2.406 3.742a1.995 1.995 0 0 1-2.734.621c-10.604-6.59-29.315-18.083-30.832-18.462-2-.5-10-.5-12.5 0-2.85.57-24.055 13.146-35.313 20.403a2.005 2.005 0 0 1-2.778-.605L178.09 90.421a2 2 0 0 0-1.684-.921H126.5a2 2 0 0 1-2-2v-9a2 2 0 0 1 2-2h66.963a2 2 0 0 0 1.002-.27Z" fill="#E7E7E7" stroke="#E7E7E7"/><path d="M22.5 150.5h102.934c.379 0 .736-.108 1.057-.311l45.518-28.878a1.957 1.957 0 0 1 1.058-.311H268.5c4 0 9 3.5 10 7s34 80.5 34.5 83.5-4.5 13.5-8 15.5c-2.794 1.597-75.521 15.607-111.767 22.456-.159.03-.315.039-.476.03l-177.868-9.881A1.99 1.99 0 0 1 13 237.619V161c0-5 2.5-10.5 9.5-10.5Z" stroke="#BCBCBC"/><rect x="192" y="167" width="18" height="18" rx="2" fill="#7C7C7C"/><path d="M201.137 176.654h-2.28v-.92h2.28c.441 0 .799-.07 1.072-.211.273-.14.473-.335.598-.585.129-.25.193-.536.193-.856a1.82 1.82 0 0 0-.193-.826 1.43 1.43 0 0 0-.598-.621c-.273-.16-.631-.24-1.072-.24h-2.016V180h-1.131v-8.531h3.147c.644 0 1.189.111 1.634.334a2.35 2.35 0 0 1 1.014.926c.231.39.346.837.346 1.341 0 .547-.115 1.014-.346 1.401-.23.386-.568.681-1.014.884-.445.2-.99.299-1.634.299Z" fill="#fff"/><path d="M214.484 73.5h3.276v.828h-3.276V73.5Zm0 3.432h3.276v.828h-3.276v-.828Zm-1.992-5.016c1.572 0 2.7 1.476 2.7 3.78 0 2.316-1.128 3.792-2.7 3.792-1.584 0-2.7-1.476-2.7-3.792 0-2.304 1.116-3.78 2.7-3.78Zm0 .9c-1.044 0-1.764 1.128-1.764 2.88 0 1.764.72 2.916 1.764 2.916s1.764-1.152 1.764-2.916c0-1.752-.72-2.88-1.764-2.88Zm5.052-1.74h.984v10.872h-.984V71.076Zm11.279.012h.948v6.396h-.948v-6.396Zm-1.728 2.724h2.052v.828h-2.052v-.828Zm-.636-2.52h.936v6.132h-.936v-6.132ZM222.487 78h7.284v3.936h-.984v-3.12h-6.3V78Zm1.86-6.108h1.008c0 2.592-1.44 4.548-4.176 5.7l-.492-.732c2.412-.984 3.66-2.604 3.66-4.632v-.336Zm-3.228 0h3.588v.816h-3.588v-.816Zm13.259 1.044h.816v.468c0 1.884-1.2 3.468-3.012 4.08l-.48-.78c1.596-.516 2.676-1.836 2.676-3.3v-.468Zm.18 0h.816v.468c0 1.344 1.116 2.556 2.712 3.024l-.456.78c-1.824-.564-3.072-2.028-3.072-3.804v-.468Zm-2.58-.54h5.784v.804h-5.784v-.804Zm2.4-1.356h.996v1.644h-.996V71.04Zm3.06 3.132h2.448V75h-2.448v-.828Zm2.16-3.084h.996v6.564h-.996v-6.564Zm-2.568 6.852c2.244 0 3.612.732 3.612 1.992 0 1.248-1.368 1.98-3.612 1.98-2.256 0-3.624-.732-3.624-1.98 0-1.26 1.368-1.992 3.624-1.992Zm0 .78c-1.644 0-2.628.444-2.628 1.212 0 .756.984 1.2 2.628 1.2 1.632 0 2.628-.444 2.628-1.2 0-.768-.996-1.212-2.628-1.212Zm8.339-6.696h.816v1.944c0 2.4-1.296 4.74-3.012 5.652l-.612-.792c1.572-.792 2.808-2.88 2.808-4.86v-1.944Zm.18 0h.804v1.944c0 1.908 1.212 3.888 2.748 4.656l-.612.792c-1.68-.9-2.94-3.12-2.94-5.448v-1.944Zm4.5-.936h1.008v10.848h-1.008V71.088Zm.768 4.392h2.016v.84h-2.016v-.84Z" fill="#BDBDBD"/></svg>