<svg width="300" height="109" viewBox="0 0 300 109" fill="none" xmlns="http://www.w3.org/2000/svg"><path class="area" d="m18.001 88.466 44.794-75.487a2 2 0 0 1 1.72-.979H297a2 2 0 0 1 2 2v25.402a2 2 0 0 1-2 2h-92.493a2 2 0 0 0-2 2V70.31a2 2 0 0 1-2 2h-77.534a2 2 0 0 1-2-2V53.202a2 2 0 0 0-2-2H98.53a2 2 0 0 0-.933.231l-25.71 13.56a2 2 0 0 0-.82.81l-22.634 41.346a2 2 0 0 1-2.808.739L18.668 91.186a2 2 0 0 1-.667-2.72Z" fill="#FCFCFC" stroke="#DEDEDE"/><path d="M289.872 6h-.864V1.84c.005-.117.008-.23.008-.336l.016-.32a7.7 7.7 0 0 1-.2.208l-.232.216-.576.504-.456-.544 1.56-1.28h.744V6Zm-48.896 0h-3.648v-.656l1.384-1.496c.267-.293.488-.547.664-.76a2.77 2.77 0 0 0 .392-.624c.091-.203.136-.421.136-.656 0-.293-.077-.512-.232-.656-.149-.15-.347-.224-.592-.224-.24 0-.456.05-.648.152a3.07 3.07 0 0 0-.6.408L237.36.92c.149-.133.307-.253.472-.36a2.4 2.4 0 0 1 .568-.256 2.5 2.5 0 0 1 .72-.096c.341 0 .635.064.88.192.251.123.443.299.576.528.139.23.208.499.208.808 0 .23-.035.443-.104.64a2.38 2.38 0 0 1-.288.584 5.07 5.07 0 0 1-.448.592c-.171.197-.36.41-.568.64l-.944 1.016v.04h2.544V6Zm-28.208-4.392c0 .256-.048.48-.144.672a1.22 1.22 0 0 1-.4.456 1.661 1.661 0 0 1-.592.256v.032c.437.053.763.197.976.432.219.23.328.533.328.912 0 .33-.075.627-.224.888-.149.256-.381.459-.696.608-.309.144-.707.216-1.192.216-.293 0-.563-.024-.808-.072a2.761 2.761 0 0 1-.696-.24V5a3 3 0 0 0 .72.28c.261.064.507.096.736.096.443 0 .76-.09.952-.272.192-.187.288-.445.288-.776a.838.838 0 0 0-.152-.52.866.866 0 0 0-.464-.304 2.545 2.545 0 0 0-.792-.104h-.464v-.696h.472c.299 0 .541-.04.728-.12a.859.859 0 0 0 .416-.352.964.964 0 0 0 .136-.512c0-.256-.077-.453-.232-.592-.149-.144-.365-.216-.648-.216a1.894 1.894 0 0 0-.92.232c-.123.07-.237.147-.344.232l-.408-.584c.133-.107.285-.205.456-.296a2.804 2.804 0 0 1 1.264-.288c.56 0 .984.13 1.272.392.288.256.432.592.432 1.008Zm2.105 3.552c-.043.187-.102.39-.176.608a9.92 9.92 0 0 1-.232.648c-.08.219-.16.424-.24.616h-.632a41.553 41.553 0 0 0 .28-1.344c.042-.224.074-.43.096-.616h.848l.056.088Zm6.639-.424h-.728V6h-.848V4.736h-2.456v-.672l2.448-3.8h.856v3.752h.728v.72Zm-1.576-2.272v-.368l.016-.336c.005-.112.008-.213.008-.304l.016-.256h-.032a3.549 3.549 0 0 1-.152.328 2.97 2.97 0 0 1-.16.296l-1.344 2.192h1.648V2.464Zm-55.776-.008c.347 0 .651.067.912.2.267.133.475.325.624.576.149.25.224.557.224.92 0 .4-.08.744-.24 1.032a1.6 1.6 0 0 1-.704.664c-.304.155-.677.232-1.12.232a3.72 3.72 0 0 1-.792-.08 2.201 2.201 0 0 1-.632-.232v-.776c.181.112.403.203.664.272.261.07.507.104.736.104.245 0 .456-.04.632-.12a.923.923 0 0 0 .416-.376 1.24 1.24 0 0 0 .152-.64c0-.347-.099-.61-.296-.792-.197-.187-.507-.28-.928-.28a2.92 2.92 0 0 0-.464.04 5.11 5.11 0 0 0-.408.08l-.384-.232.2-2.76h2.792v.752h-2.04l-.112 1.496c.085-.016.189-.032.312-.048.128-.021.28-.032.456-.032Zm3.713 2.704c-.043.187-.102.39-.176.608a9.92 9.92 0 0 1-.232.648c-.08.219-.16.424-.24.616h-.632a41.553 41.553 0 0 0 .28-1.344c.042-.224.074-.43.096-.616h.848l.056.088Zm2.823-1.592c0-.33.021-.656.064-.976.043-.32.117-.621.224-.904a2.53 2.53 0 0 1 .456-.76 1.9 1.9 0 0 1 .736-.52c.299-.128.659-.192 1.08-.192.107 0 .224.005.352.016.133.005.245.021.336.048v.712a1.775 1.775 0 0 0-.32-.072 2.485 2.485 0 0 0-.352-.024c-.331 0-.608.056-.832.168a1.385 1.385 0 0 0-.528.464 2.103 2.103 0 0 0-.28.688 4.465 4.465 0 0 0-.104.84h.04a1.54 1.54 0 0 1 .272-.344c.112-.101.245-.181.4-.24a1.59 1.59 0 0 1 .552-.088c.315 0 .587.07.816.208.229.139.408.339.536.6.128.261.192.579.192.952 0 .4-.072.747-.216 1.04-.144.288-.347.51-.608.664-.261.155-.573.232-.936.232a1.8 1.8 0 0 1-.736-.152 1.622 1.622 0 0 1-.6-.464 2.256 2.256 0 0 1-.4-.784 3.88 3.88 0 0 1-.144-1.112Zm1.872 1.808a.813.813 0 0 0 .656-.296c.171-.203.256-.515.256-.936 0-.336-.075-.603-.224-.8-.149-.197-.373-.296-.672-.296a.995.995 0 0 0-.536.144 1.056 1.056 0 0 0-.352.368.913.913 0 0 0-.128.456c0 .165.019.328.056.488.043.16.107.307.192.44s.189.24.312.32a.858.858 0 0 0 .44.112ZM102.952 6l2.112-4.96h-2.768V.288h3.696v.608L103.888 6h-.936Zm4.921-.84c-.043.187-.102.39-.176.608a9.92 9.92 0 0 1-.232.648c-.08.219-.16.424-.24.616h-.632a41.553 41.553 0 0 0 .28-1.344c.042-.224.074-.43.096-.616h.848l.056.088Zm4.623-4.952c.32 0 .603.053.848.16.251.101.445.253.584.456.144.203.216.456.216.76 0 .23-.045.43-.136.6-.085.17-.205.323-.36.456a2.7 2.7 0 0 1-.496.336c.208.112.4.24.576.384.176.139.317.301.424.488.112.187.168.41.168.672 0 .32-.075.597-.224.832-.144.23-.352.408-.624.536a2.256 2.256 0 0 1-.968.192c-.4 0-.739-.061-1.016-.184a1.356 1.356 0 0 1-.616-.52c-.139-.23-.208-.507-.208-.832 0-.261.048-.488.144-.68.101-.192.232-.357.392-.496a2.64 2.64 0 0 1 .544-.352 2.833 2.833 0 0 1-.464-.36 1.592 1.592 0 0 1-.328-.472 1.54 1.54 0 0 1-.112-.608c0-.299.072-.547.216-.744.144-.203.341-.357.592-.464a2.14 2.14 0 0 1 .848-.16Zm-1 4.32c0 .261.083.477.248.648.165.165.413.248.744.248.224 0 .408-.037.552-.112a.826.826 0 0 0 .328-.32.927.927 0 0 0 .12-.472.845.845 0 0 0-.128-.464 1.228 1.228 0 0 0-.352-.352 2.742 2.742 0 0 0-.496-.288l-.104-.048c-.192.09-.357.192-.496.304a1.301 1.301 0 0 0-.312.376 1.064 1.064 0 0 0-.104.48Zm.984-3.656a.885.885 0 0 0-.584.192c-.149.128-.224.315-.224.56 0 .176.037.325.112.448.08.123.181.23.304.32a5.1 5.1 0 0 0 .416.248c.149-.075.283-.155.4-.24.123-.09.219-.197.288-.32a.886.886 0 0 0 .112-.456c0-.245-.077-.432-.232-.56-.149-.128-.347-.192-.592-.192ZM68.968 2.728c0 .33-.024.659-.072.984-.043.325-.12.632-.232.92a2.557 2.557 0 0 1-.456.752c-.192.219-.437.39-.736.512-.293.123-.648.184-1.064.184-.101 0-.221-.005-.36-.016a1.56 1.56 0 0 1-.336-.056v-.712c.09.032.192.056.304.072.117.016.232.024.344.024.341 0 .624-.053.848-.16.224-.112.403-.267.536-.464a1.89 1.89 0 0 0 .28-.688c.059-.261.093-.539.104-.832h-.04a1.634 1.634 0 0 1-.272.336c-.107.101-.24.181-.4.24a1.609 1.609 0 0 1-.568.088c-.304 0-.57-.07-.8-.208a1.36 1.36 0 0 1-.528-.592c-.123-.261-.184-.579-.184-.952 0-.405.07-.752.208-1.04a1.56 1.56 0 0 1 .608-.672c.267-.16.579-.24.936-.24.267 0 .512.053.736.16.23.101.43.256.6.464.176.208.31.47.4.784.096.315.144.685.144 1.112ZM67.104.912a.827.827 0 0 0-.664.304c-.17.203-.256.512-.256.928 0 .341.072.61.216.808.15.192.373.288.672.288a1.01 1.01 0 0 0 .896-.504.923.923 0 0 0 .128-.464c0-.165-.021-.328-.064-.488a1.704 1.704 0 0 0-.184-.44.874.874 0 0 0-.312-.312.773.773 0 0 0-.432-.12ZM24.872 36h-.864v-4.16c.005-.117.008-.23.008-.336a64 64 0 0 1 .016-.32c-.064.07-.13.139-.2.208l-.232.216-.576.504-.456-.544 1.56-1.28h.744V36Zm5.416-2.864c0 .464-.032.877-.096 1.24s-.17.672-.32.928a1.51 1.51 0 0 1-.567.576c-.23.133-.512.2-.849.2-.41 0-.752-.117-1.023-.352-.267-.235-.467-.57-.6-1.008-.128-.443-.192-.97-.192-1.584 0-.619.058-1.147.176-1.584.122-.437.317-.77.584-1 .266-.235.62-.352 1.064-.352.416 0 .757.117 1.023.352.273.23.473.563.6 1 .134.437.2.965.2 1.584Zm-2.776 0c0 .496.03.91.088 1.24.064.33.166.579.304.744a.71.71 0 0 0 .56.248c.235 0 .42-.08.553-.24.138-.165.24-.413.303-.744a6.82 6.82 0 0 0 .096-1.248 6.55 6.55 0 0 0-.096-1.232c-.064-.33-.165-.579-.303-.744a.67.67 0 0 0-.552-.248.708.708 0 0 0-.56.248c-.14.165-.24.413-.305.744a7.132 7.132 0 0 0-.088 1.232Zm4.673 2.024a6.03 6.03 0 0 1-.176.608c-.07.219-.147.435-.232.648-.08.219-.16.424-.24.616h-.632a38.554 38.554 0 0 0 .28-1.344c.043-.224.075-.43.096-.616h.848l.056.088Zm5.335.84h-.864v-4.16a6.56 6.56 0 0 0 .008-.336l.016-.32a7.13 7.13 0 0 1-.2.208l-.232.216-.576.504-.456-.544 1.56-1.28h.744V36Zm4.313 0h-.864v-4.16c.005-.117.008-.23.008-.336l.016-.32a7.13 7.13 0 0 1-.2.208l-.232.216-.576.504-.456-.544 1.56-1.28h.744V36ZM2.872 69h-.864v-4.16c.005-.117.008-.23.008-.336a64 64 0 0 1 .016-.32c-.064.07-.13.139-.2.208l-.232.216-.576.504-.456-.544 1.56-1.28h.744V69Zm5.417 0H4.64v-.656l1.383-1.496c.267-.293.489-.547.665-.76.175-.219.306-.427.391-.624.091-.203.136-.421.136-.656 0-.293-.077-.512-.232-.656-.149-.15-.346-.224-.591-.224-.24 0-.457.05-.648.152a3.07 3.07 0 0 0-.6.408l-.472-.568c.149-.133.306-.253.471-.36.171-.107.36-.192.569-.256a2.5 2.5 0 0 1 .72-.096c.34 0 .634.064.88.192.25.123.442.299.575.528.14.23.209.499.209.808 0 .23-.035.443-.104.64-.065.197-.16.392-.288.584-.123.192-.272.39-.449.592-.17.197-.36.41-.567.64l-.944 1.016v.04h2.544V69Zm1.896-.84a6.03 6.03 0 0 1-.176.608c-.07.219-.147.435-.232.648-.08.219-.16.424-.24.616h-.632a38.283 38.283 0 0 0 .28-1.344c.043-.224.075-.43.096-.616h.848l.056.088Zm5.335.84h-.864v-4.16a6.56 6.56 0 0 0 .008-.336l.016-.32a7.13 7.13 0 0 1-.2.208l-.232.216-.576.504-.456-.544 1.56-1.28h.744V69Zm5.209-4.392c0 .256-.048.48-.144.672-.096.187-.23.339-.4.456a1.66 1.66 0 0 1-.592.256v.032c.437.053.763.197.976.432.219.23.328.533.328.912 0 .33-.075.627-.224.888-.15.256-.381.459-.696.608-.31.144-.707.216-1.192.216-.293 0-.563-.024-.808-.072a2.761 2.761 0 0 1-.696-.24V68a3 3 0 0 0 .72.28c.261.064.507.096.736.096.443 0 .76-.09.952-.272.192-.187.288-.445.288-.776a.836.836 0 0 0-.152-.52.867.867 0 0 0-.464-.304 2.546 2.546 0 0 0-.792-.104h-.464v-.696h.472c.299 0 .541-.04.728-.12a.86.86 0 0 0 .416-.352c.09-.15.136-.32.136-.512 0-.256-.077-.453-.232-.592-.15-.144-.365-.216-.648-.216a1.889 1.889 0 0 0-.92.232c-.123.07-.237.147-.344.232l-.408-.584a2.93 2.93 0 0 1 .456-.296 2.805 2.805 0 0 1 1.264-.288c.56 0 .984.13 1.272.392.288.256.432.592.432 1.008Z" fill="#C5C5C5"/></svg>